<?xml version="1.0" encoding="UTF-8" standalone="no"?>
<!-- Created with Inkscape (http://www.inkscape.org/) -->

<svg
   version="1.1"
   id="svg2"
   width="841.27997"
   height="498.55997"
   viewBox="0 0 841.27997 498.55997"
   xmlns="http://www.w3.org/2000/svg"
   xmlns:svg="http://www.w3.org/2000/svg">
  <defs
     id="defs6">
    <clipPath
       clipPathUnits="userSpaceOnUse"
       id="clipPath16">
      <path
         d="M 0,0 H 2629.1665 V 1558.1403 H 0 Z"
         clip-rule="evenodd"
         id="path14" />
    </clipPath>
    <clipPath
       clipPathUnits="userSpaceOnUse"
       id="clipPath28">
      <path
         d="M 0,0 H 2629.1665 V 1558.1403 H 0 Z"
         clip-rule="evenodd"
         id="path26" />
    </clipPath>
    <clipPath
       clipPathUnits="userSpaceOnUse"
       id="clipPath40">
      <path
         d="M 0,0 H 2629.1665 V 1558.1403 H 0 Z"
         clip-rule="evenodd"
         id="path38" />
    </clipPath>
    <clipPath
       clipPathUnits="userSpaceOnUse"
       id="clipPath52">
      <path
         d="M 0,0 H 2629.1665 V 1558.1403 H 0 Z"
         id="path50" />
    </clipPath>
    <clipPath
       clipPathUnits="userSpaceOnUse"
       id="clipPath58">
      <path
         d="M 0,0 H 2629.1665 V 1561.2627 H 0 Z"
         id="path56" />
    </clipPath>
    <clipPath
       clipPathUnits="userSpaceOnUse"
       id="clipPath64">
      <path
         d="M 18.672703,39.520943 H 1508.426 V 1316.3211 H 18.672703 Z"
         id="path62" />
    </clipPath>
    <clipPath
       clipPathUnits="userSpaceOnUse"
       id="clipPath70">
      <path
         d="M 18.672703,1255.0999 V 100.74229 c -2e-6,-8.118465 1.552572,-15.927928 4.657718,-23.428409 3.105147,-7.500473 7.526503,-14.121018 13.264069,-19.86163 5.737564,-5.740612 12.354591,-10.164318 19.851078,-13.271114 7.496487,-3.106796 15.301807,-4.660194 23.415951,-4.660194 H 1447.2373 c 8.114,0 15.9192,1.553398 23.4157,4.660194 7.4964,3.106796 14.1135,7.530502 19.8512,13.271118 5.7375,5.740612 10.1588,12.361153 13.2639,19.861634 3.1052,7.500473 4.6578,15.309936 4.6579,23.428401 V 1255.0999 c -10e-5,8.1184 -1.5527,15.9278 -4.6579,23.4283 -3.1051,7.5005 -7.5264,14.1211 -13.2639,19.8617 -5.7377,5.7406 -12.3548,10.1642 -19.8512,13.271 -7.4965,3.1068 -15.3017,4.6601 -23.4157,4.6603 H 79.861519 c -8.114144,-2e-4 -15.919464,-1.5536 -23.415951,-4.6604 -7.496487,-3.1067 -14.113514,-7.5303 -19.851078,-13.2709 -5.737566,-5.7406 -10.158922,-12.3612 -13.264069,-19.8617 -3.105146,-7.5005 -4.65772,-15.3099 -4.657718,-23.4283 z"
         id="path68" />
    </clipPath>
    <clipPath
       clipPathUnits="userSpaceOnUse"
       id="clipPath84">
      <path
         d="M 0,0 H 2629.1665 V 1558.1403 H 0 Z"
         clip-rule="evenodd"
         id="path82" />
    </clipPath>
    <clipPath
       clipPathUnits="userSpaceOnUse"
       id="clipPath98">
      <path
         d="M 0,0 H 2629.1665 V 1558.1403 H 0 Z"
         id="path96" />
    </clipPath>
    <clipPath
       clipPathUnits="userSpaceOnUse"
       id="clipPath104">
      <path
         d="M 0,0 H 2629.1665 V 1561.2627 H 0 Z"
         id="path102" />
    </clipPath>
    <clipPath
       clipPathUnits="userSpaceOnUse"
       id="clipPath110">
      <path
         d="M 55.893204,436.51114 H 1014.1592 V 1185.4694 H 55.893204 Z"
         id="path108" />
    </clipPath>
    <clipPath
       clipPathUnits="userSpaceOnUse"
       id="clipPath116">
      <path
         d="M 55.893204,1124.2481 V 497.73248 c -4e-6,-8.1185 1.552566,-15.92798 4.657715,-23.42843 3.105144,-7.50049 7.526496,-14.12104 13.264068,-19.86161 5.737564,-5.74063 12.354592,-10.16433 19.851074,-13.27114 7.496489,-3.10679 15.301809,-4.66016 23.415959,-4.66016 H 952.9704 c 8.11407,0 15.91937,1.55337 23.41577,4.66016 7.49646,3.10678 14.11352,7.53045 19.85113,13.27108 5.7376,5.7406 10.1589,12.36115 13.264,19.86167 3.1052,7.50045 4.6578,15.30993 4.6579,23.42843 v 626.51562 c -1e-4,8.1184 -1.5527,15.9278 -4.6579,23.4283 -3.1051,7.5004 -7.5264,14.121 -13.26393,19.8616 -5.73761,5.7406 -12.35468,10.1642 -19.85108,13.271 -7.49652,3.1068 -15.30182,4.6602 -23.41589,4.6604 H 117.08202 c -8.11415,-2e-4 -15.91947,-1.5535 -23.415959,-4.6603 -7.496482,-3.1068 -14.11351,-7.5305 -19.851074,-13.2711 -5.737572,-5.7406 -10.158924,-12.3612 -13.264068,-19.8616 -3.105149,-7.5005 -4.657719,-15.3099 -4.657715,-23.4283 z"
         id="path114" />
    </clipPath>
    <clipPath
       clipPathUnits="userSpaceOnUse"
       id="clipPath130">
      <path
         d="M 0,0 H 2629.1665 V 1558.1403 H 0 Z"
         clip-rule="evenodd"
         id="path128" />
    </clipPath>
    <clipPath
       clipPathUnits="userSpaceOnUse"
       id="clipPath152">
      <path
         d="M 0,0 H 2629.1665 V 1558.1403 H 0 Z"
         id="path150" />
    </clipPath>
    <clipPath
       clipPathUnits="userSpaceOnUse"
       id="clipPath158">
      <path
         d="M 0,0 H 2629.1665 V 1561.2627 H 0 Z"
         id="path156" />
    </clipPath>
    <clipPath
       clipPathUnits="userSpaceOnUse"
       id="clipPath164">
      <path
         d="M 116.15795,593.56396 H 535.02923 V 1144.7068 H 116.15795 Z"
         id="path162" />
    </clipPath>
    <clipPath
       clipPathUnits="userSpaceOnUse"
       id="clipPath170">
      <path
         d="M 116.15795,1083.4855 V 654.78528 c -1e-5,-8.11847 1.55256,-15.92798 4.6577,-23.42847 3.10515,-7.50049 7.52651,-14.12103 13.26408,-19.86157 5.73756,-5.74066 12.35458,-10.16437 19.85107,-13.27118 7.49651,-3.10675 15.30182,-4.6601 23.41597,-4.6601 h 296.49365 c 8.11411,0 15.91941,1.55335 23.41587,4.6601 7.49649,3.10681 14.11349,7.53052 19.85107,13.27118 5.73755,5.74054 10.15894,12.36108 13.2641,19.86157 3.10516,7.50049 4.65771,15.31 4.65778,23.42847 v 428.70022 c -7e-5,8.1183 -1.55262,15.9277 -4.65778,23.4282 -3.10516,7.5005 -7.52649,14.1211 -13.26404,19.8617 -5.73758,5.7406 -12.35461,10.1642 -19.8511,13.271 -7.49649,3.1068 -15.30179,4.6603 -23.4159,4.6604 H 177.34677 c -8.11415,-10e-5 -15.91946,-1.5536 -23.41597,-4.6604 -7.49649,-3.1068 -14.11351,-7.5304 -19.85107,-13.271 -5.73757,-5.7406 -10.15893,-12.3612 -13.26408,-19.8617 -3.10514,-7.5005 -4.65771,-15.3099 -4.6577,-23.4282 z"
         id="path168" />
    </clipPath>
    <clipPath
       clipPathUnits="userSpaceOnUse"
       id="clipPath184">
      <path
         d="M 0,0 H 2629.1665 V 1558.1403 H 0 Z"
         clip-rule="evenodd"
         id="path182" />
    </clipPath>
    <clipPath
       clipPathUnits="userSpaceOnUse"
       id="clipPath198">
      <path
         d="M 0,0 H 2629.1665 V 1558.1403 H 0 Z"
         id="path196" />
    </clipPath>
    <clipPath
       clipPathUnits="userSpaceOnUse"
       id="clipPath204">
      <path
         d="M 0,0 H 2629.1665 V 1561.2627 H 0 Z"
         id="path202" />
    </clipPath>
    <clipPath
       clipPathUnits="userSpaceOnUse"
       id="clipPath210">
      <path
         d="M 554.12341,593.56396 H 972.99469 V 884.00708 H 554.12341 Z"
         id="path208" />
    </clipPath>
    <clipPath
       clipPathUnits="userSpaceOnUse"
       id="clipPath216">
      <path
         d="M 554.12341,822.78571 V 654.78528 c -6e-5,-8.11847 1.55249,-15.92798 4.65766,-23.42847 3.10516,-7.50049 7.52649,-14.12103 13.2641,-19.86157 5.73748,-5.74066 12.35449,-10.16437 19.85101,-13.27118 7.49652,-3.10675 15.30188,-4.6601 23.41608,-4.6601 h 296.49359 c 8.11407,0 15.91931,1.55335 23.41577,4.6601 7.49652,3.10681 14.11359,7.53052 19.85119,13.27118 5.73755,5.74054 10.15888,12.36108 13.26404,19.86157 3.10517,7.50049 4.65778,15.31 4.65784,23.42847 v 168.00043 c -6e-5,8.11834 -1.55267,15.92779 -4.65784,23.42828 -3.10516,7.50049 -7.52649,14.12103 -13.26404,19.86169 -5.7376,5.7406 -12.35467,10.16431 -19.85113,13.27112 -7.49652,3.10681 -15.30176,4.66022 -23.41583,4.66028 H 615.31226 c -8.1142,-6e-5 -15.91956,-1.55347 -23.41608,-4.66034 -7.49652,-3.10675 -14.11353,-7.53046 -19.85101,-13.27106 -5.73761,-5.74066 -10.15894,-12.3612 -13.2641,-19.86169 -3.10517,-7.50049 -4.65772,-15.30994 -4.65766,-23.42828 z"
         id="path214" />
    </clipPath>
    <clipPath
       clipPathUnits="userSpaceOnUse"
       id="clipPath228">
      <path
         d="M 0,0 H 2629.1665 V 1558.1403 H 0 Z"
         clip-rule="evenodd"
         id="path226" />
    </clipPath>
    <clipPath
       clipPathUnits="userSpaceOnUse"
       id="clipPath262">
      <path
         d="M 0,0 H 2629.1665 V 1558.1403 H 0 Z"
         id="path260" />
    </clipPath>
    <clipPath
       clipPathUnits="userSpaceOnUse"
       id="clipPath268">
      <path
         d="M 0,0 H 2629.1665 V 1561.2627 H 0 Z"
         id="path266" />
    </clipPath>
    <clipPath
       clipPathUnits="userSpaceOnUse"
       id="clipPath274">
      <path
         d="M 1046.5457,224.12904 H 1465.417 V 514.57216 H 1046.5457 Z"
         id="path272" />
    </clipPath>
    <clipPath
       clipPathUnits="userSpaceOnUse"
       id="clipPath280">
      <path
         d="M 1046.5457,453.3508 V 285.3504 c -2e-4,-8.11847 1.5523,-15.92795 4.6574,-23.42843 3.1053,-7.50048 7.5266,-14.12101 13.2643,-19.86162 5.7374,-5.74062 12.3545,-10.16434 19.851,-13.27113 7.4964,-3.10679 15.3018,-4.66018 23.4161,-4.66018 h 296.4937 c 8.1141,0 15.9193,1.55339 23.4157,4.66018 7.4965,3.10679 14.1136,7.53051 19.8512,13.27113 5.7374,5.74061 10.1588,12.36114 13.2639,19.86162 3.1051,7.50048 4.6579,15.30996 4.658,23.42843 v 168.0004 c -10e-5,8.11844 -1.5529,15.92786 -4.658,23.42831 -3.1051,7.50046 -7.5265,14.12104 -13.2639,19.86167 -5.7376,5.74057 -12.3547,10.16427 -19.8512,13.27109 -7.4964,3.10681 -15.3016,4.66021 -23.4157,4.66027 h -296.4937 c -8.1143,-6e-5 -15.9197,-1.55346 -23.4161,-4.66024 -7.4965,-3.10682 -14.1136,-7.53049 -19.851,-13.27106 -5.7377,-5.74063 -10.159,-12.36121 -13.2641,-19.86167 -3.1052,-7.50048 -4.6578,-15.30993 -4.6576,-23.42837 z"
         id="path278" />
    </clipPath>
    <clipPath
       clipPathUnits="userSpaceOnUse"
       id="clipPath292">
      <path
         d="M 0,0 H 2629.1665 V 1558.1403 H 0 Z"
         clip-rule="evenodd"
         id="path290" />
    </clipPath>
    <clipPath
       clipPathUnits="userSpaceOnUse"
       id="clipPath318">
      <path
         d="M 0,0 H 2629.1665 V 1558.1403 H 0 Z"
         id="path316" />
    </clipPath>
    <clipPath
       clipPathUnits="userSpaceOnUse"
       id="clipPath324">
      <path
         d="M 0,0 H 2629.1665 V 1561.2627 H 0 Z"
         id="path322" />
    </clipPath>
    <clipPath
       clipPathUnits="userSpaceOnUse"
       id="clipPath330">
      <path
         d="m 1567.4141,930.35114 h 639.3955 v 209.34126 h -639.3955 z"
         id="path328" />
    </clipPath>
    <clipPath
       clipPathUnits="userSpaceOnUse"
       id="clipPath336">
      <path
         d="m 1567.4141,1078.4711 v -86.89859 c -2e-4,-8.11847 1.5523,-15.92798 4.6574,-23.42853 3.1051,-7.50049 7.5266,-14.12103 13.2643,-19.86163 5.7374,-5.74066 12.3545,-10.16437 19.851,-13.27112 7.4964,-3.10675 15.3019,-4.66009 23.4161,-4.66009 h 517.0179 c 8.1141,0 15.9195,1.5534 23.4158,4.66015 7.4964,3.10675 14.1133,7.53046 19.8509,13.27112 5.7375,5.74054 10.1589,12.36108 13.2641,19.86163 3.1052,7.50049 4.6577,15.31 4.658,23.42847 v 86.89859 c -3e-4,8.1184 -1.5528,15.9278 -4.658,23.4283 -3.1052,7.5004 -7.5266,14.121 -13.2641,19.8616 -5.7376,5.7406 -12.3545,10.1642 -19.8509,13.271 -7.4963,3.1068 -15.3017,4.6603 -23.4158,4.6604 h -517.0179 c -8.1142,-10e-5 -15.9197,-1.5535 -23.4161,-4.6603 -7.4965,-3.1068 -14.1136,-7.5304 -19.851,-13.271 -5.7377,-5.7406 -10.1592,-12.3612 -13.2643,-19.8617 -3.1051,-7.5005 -4.6576,-15.3099 -4.6574,-23.4283 z"
         id="path334" />
    </clipPath>
    <clipPath
       clipPathUnits="userSpaceOnUse"
       id="clipPath348">
      <path
         d="M 0,0 H 2629.1665 V 1558.1403 H 0 Z"
         clip-rule="evenodd"
         id="path346" />
    </clipPath>
    <clipPath
       clipPathUnits="userSpaceOnUse"
       id="clipPath368">
      <path
         d="M 0,0 H 2629.1665 V 1558.1403 H 0 Z"
         id="path366" />
    </clipPath>
    <clipPath
       clipPathUnits="userSpaceOnUse"
       id="clipPath374">
      <path
         d="M 0,0 H 2629.1665 V 1561.2627 H 0 Z"
         id="path372" />
    </clipPath>
    <clipPath
       clipPathUnits="userSpaceOnUse"
       id="clipPath380">
      <path
         d="m 1958.448,1316.313 h 639.3958 v 209.3413 H 1958.448 Z"
         id="path378" />
    </clipPath>
    <clipPath
       clipPathUnits="userSpaceOnUse"
       id="clipPath386">
      <path
         d="m 1958.448,1464.433 v -86.8987 c -1e-4,-8.1185 1.5524,-15.928 4.6575,-23.4286 3.1051,-7.5003 7.5263,-14.1208 13.264,-19.8614 5.7374,-5.7406 12.3545,-10.1643 19.8511,-13.2712 7.4966,-3.1068 15.302,-4.6601 23.4162,-4.6601 h 517.0182 c 8.114,0 15.9195,1.5533 23.4158,4.6601 7.4963,3.1069 14.1133,7.5306 19.8508,13.2712 5.7376,5.7406 10.159,12.3611 13.2642,19.8614 3.1052,7.5006 4.6577,15.3101 4.658,23.4286 v 86.8987 c -3e-4,8.1183 -1.5528,15.9277 -4.658,23.4281 -3.1052,7.5005 -7.5266,14.1211 -13.2642,19.8618 -5.7375,5.7406 -12.3545,10.1643 -19.8508,13.2711 -7.4963,3.1068 -15.3018,4.6602 -23.4158,4.6603 h -517.0182 c -8.1142,-10e-5 -15.9196,-1.5535 -23.4162,-4.6603 -7.4966,-3.1068 -14.1137,-7.5305 -19.8511,-13.2711 -5.7377,-5.7407 -10.1589,-12.3613 -13.264,-19.8617 -3.1051,-7.5005 -4.6576,-15.3099 -4.6575,-23.4282 z"
         id="path384" />
    </clipPath>
    <clipPath
       clipPathUnits="userSpaceOnUse"
       id="clipPath398">
      <path
         d="M 0,0 H 2629.1665 V 1558.1403 H 0 Z"
         clip-rule="evenodd"
         id="path396" />
    </clipPath>
  </defs>
  <g
     id="g8"
     transform="matrix(0.31999998,0,0,0.31999998,0,9.130666e-6)">
    <g
       id="g10">
      <g
         id="g12"
         clip-path="url(#clipPath16)">
        <g
           id="g18"
           transform="scale(3.1225255)">
          <path
             d="M 0,0 H 842 V 500 H 0 Z"
             style="fill:#ffffff;fill-opacity:1;fill-rule:nonzero;stroke:none"
             id="path20" />
        </g>
      </g>
    </g>
    <g
       id="g22">
      <g
         id="g24"
         clip-path="url(#clipPath28)">
        <g
           id="g30"
           transform="scale(3.1225255,3.1241853)">
          <path
             d="M 0,0 H 842 V 499.73438 H 0 Z"
             style="fill:#f2f2f2;fill-opacity:1;fill-rule:nonzero;stroke:none"
             id="path32" />
        </g>
      </g>
    </g>
    <g
       id="g34">
      <g
         id="g36"
         clip-path="url(#clipPath40)">
        <g
           id="g42"
           transform="matrix(5.700448,0,0,5.7034883,-3507.2205,-266.27432)">
          <path
             d="M 0,0 H 1737.3361 V 800.37671 H 0 Z"
             style="fill:#ffffff;fill-opacity:1;fill-rule:nonzero;stroke:none"
             id="path44" />
        </g>
      </g>
    </g>
    <g
       id="g46">
      <g
         id="g48"
         clip-path="url(#clipPath52)">
        <g
           id="g54"
           clip-path="url(#clipPath58)">
          <g
             id="g60"
             clip-path="url(#clipPath64)">
            <g
               id="g66"
               clip-path="url(#clipPath70)">
              <g
                 id="g72"
                 transform="matrix(5.7004347,0,0,5.703465,18.672703,39.520943)">
                <path
                   d="M 10.734061,0 H 250.60625 c 0.70479,0 1.40281,0.06875064 2.09408,0.20625193 0.69126,0.13750129 1.36246,0.34111117 2.01363,0.6108297 0.65117,0.26971847 1.26976,0.60036307 1.8558,0.99193377 0.58603,0.3915704 1.12824,0.8365432 1.62662,1.3349181 0.49838,0.4983747 0.94333,1.0405758 1.3349,1.6266024 0.39157,0.5860267 0.7222,1.2046195 0.99194,1.8557773 0.26972,0.6511579 0.47333,1.3223701 0.61081,2.0136356 0.13748,0.6912661 0.20624,1.3893042 0.20627,2.0941122 V 213.1299 c -3e-5,0.7048 -0.0688,1.40283 -0.2063,2.0941 -0.13748,0.69127 -0.34106,1.36247 -0.61081,2.01361 -0.26971,0.65117 -0.60037,1.26974 -0.99194,1.85576 -0.39157,0.58603 -0.83652,1.12823 -1.3349,1.62663 -0.49838,0.49837 -1.04059,0.94335 -1.62662,1.33493 -0.58601,0.39156 -1.2046,0.7222 -1.85576,0.99191 -0.65116,0.26972 -1.32237,0.47333 -2.01364,0.61084 -0.69127,0.1375 -1.38929,0.20626 -2.09408,0.20627 H 10.734061 c -0.704808,-10e-6 -1.4028461,-0.0688 -2.0941122,-0.20628 -0.6912655,-0.1375 -1.3624777,-0.34111 -2.0136356,-0.61083 C 5.9751554,222.77713 5.3565626,222.44649 4.7705359,222.0549 4.1845093,221.66335 3.6423082,221.21837 3.1439335,220.72 2.6455586,220.2216 2.2005858,219.6794 1.8090153,219.09338 1.4174446,218.50737 1.0868001,217.88878 0.81708163,217.23761 0.5473631,216.58647 0.34375322,215.91525 0.20625193,215.22398 0.06875064,214.53273 0,213.8347 0,213.1299 V 10.734061 C 0,10.029253 0.06875064,9.3312149 0.20625193,8.6399488 0.34375322,7.9486833 0.5473631,7.2774711 0.81708163,6.6263132 1.0868001,5.9751554 1.4174447,5.3565626 1.8090154,4.7705359 2.2005858,4.1845093 2.6455586,3.6423082 3.1439335,3.1439335 3.6423082,2.6455586 4.1845093,2.2005858 4.7705359,1.8090153 5.3565626,1.4174446 5.9751554,1.0868001 6.6263132,0.81708163 7.2774711,0.5473631 7.9486833,0.34375322 8.6399488,0.20625193 9.3312149,0.06875064 10.029253,0 10.734061,0 Z"
                   style="fill:#fac710;fill-opacity:1;fill-rule:evenodd;stroke:none"
                   id="path74" />
                <path
                   d="M 10.734061,0 H 250.60625 c 0.70479,0 1.40281,0.06875064 2.09408,0.20625193 0.69126,0.13750129 1.36246,0.34111117 2.01363,0.6108297 0.65117,0.26971847 1.26976,0.60036307 1.8558,0.99193377 0.58603,0.3915704 1.12824,0.8365432 1.62662,1.3349181 0.49838,0.4983747 0.94333,1.0405758 1.3349,1.6266024 0.39157,0.5860267 0.7222,1.2046195 0.99194,1.8557773 0.26972,0.6511579 0.47333,1.3223701 0.61081,2.0136356 0.13748,0.6912661 0.20624,1.3893042 0.20627,2.0941122 V 213.1299 c -3e-5,0.7048 -0.0688,1.40283 -0.2063,2.0941 -0.13748,0.69127 -0.34106,1.36247 -0.61081,2.01361 -0.26971,0.65117 -0.60037,1.26974 -0.99194,1.85576 -0.39157,0.58603 -0.83652,1.12823 -1.3349,1.62663 -0.49838,0.49837 -1.04059,0.94335 -1.62662,1.33493 -0.58601,0.39156 -1.2046,0.7222 -1.85576,0.99191 -0.65116,0.26972 -1.32237,0.47333 -2.01364,0.61084 -0.69127,0.1375 -1.38929,0.20626 -2.09408,0.20627 H 10.734061 c -0.704808,-10e-6 -1.4028461,-0.0688 -2.0941122,-0.20628 -0.6912655,-0.1375 -1.3624777,-0.34111 -2.0136356,-0.61083 C 5.9751554,222.77713 5.3565626,222.44649 4.7705359,222.0549 4.1845093,221.66335 3.6423082,221.21837 3.1439335,220.72 2.6455586,220.2216 2.2005858,219.6794 1.8090153,219.09338 1.4174446,218.50737 1.0868001,217.88878 0.81708163,217.23761 0.5473631,216.58647 0.34375322,215.91525 0.20625193,215.22398 0.06875064,214.53273 0,213.8347 0,213.1299 V 10.734061 C 0,10.029253 0.06875064,9.3312149 0.20625193,8.6399488 0.34375322,7.9486833 0.5473631,7.2774711 0.81708163,6.6263132 1.0868001,5.9751554 1.4174447,5.3565626 1.8090154,4.7705359 2.2005858,4.1845093 2.6455586,3.6423082 3.1439335,3.1439335 3.6423082,2.6455586 4.1845093,2.2005858 4.7705359,1.8090153 5.3565626,1.4174446 5.9751554,1.0868001 6.6263132,0.81708163 7.2774711,0.5473631 7.9486833,0.34375322 8.6399488,0.20625193 9.3312149,0.06875064 10.029253,0 10.734061,0 Z"
                   style="fill:none;stroke:#1a1a1a;stroke-width:1;stroke-linecap:butt;stroke-linejoin:miter;stroke-miterlimit:10;stroke-dasharray:none;stroke-opacity:1"
                   id="path76" />
              </g>
            </g>
          </g>
        </g>
      </g>
    </g>
    <g
       id="g78">
      <g
         id="g80"
         clip-path="url(#clipPath84)">
        <g
           id="g86"
           transform="matrix(5.7004247,0,0,5.703465,82.479622,103.36095)">
          <text
             xml:space="preserve"
             transform="translate(83.562042,10)"
             style="font-variant:normal;font-weight:normal;font-size:10px;font-family:'Noto Sans';-inkscape-font-specification:NotoSans-Regular;writing-mode:lr-tb;fill:#1a1a1a;fill-opacity:1;fill-rule:nonzero;stroke:none"
             id="text90"><tspan
               x="0 6.1799927 11.819992 17.429993 23.579987 26.179977 31.789978 34.36998 36.949982 42.999969 47.799973 53.409973 57.019974 59.599976 65.649963"
               y="0"
               id="tspan88">heap allocation</tspan></text>
        </g>
      </g>
    </g>
    <g
       id="g92">
      <g
         id="g94"
         clip-path="url(#clipPath98)">
        <g
           id="g100"
           clip-path="url(#clipPath104)">
          <g
             id="g106"
             clip-path="url(#clipPath110)">
            <g
               id="g112"
               clip-path="url(#clipPath116)">
              <g
                 id="g118"
                 transform="matrix(5.7004347,0,0,5.703465,55.893204,436.51114)">
                <path
                   d="M 10.734061,0 H 157.36996 c 0.70481,0 1.40284,0.06875064 2.09411,0.20625193 0.69125,0.13750129 1.36245,0.34111117 2.01361,0.6108297 0.65116,0.26971847 1.26977,0.60036307 1.85579,0.99193377 0.58604,0.3915704 1.12825,0.8365432 1.62661,1.3349181 0.49837,0.4983747 0.94335,1.0405758 1.3349,1.6266024 0.39157,0.5860267 0.72222,1.2046195 0.99193,1.8557773 0.26971,0.6511579 0.47333,1.3223701 0.61083,2.0136356 0.13751,0.6912661 0.20626,1.3893042 0.20628,2.0941122 V 120.58228 c -2e-5,0.70481 -0.0688,1.40284 -0.20627,2.0941 -0.13751,0.69127 -0.34113,1.36247 -0.61084,2.01363 -0.26971,0.65116 -0.60036,1.26975 -0.99193,1.85577 -0.39155,0.58603 -0.83653,1.12824 -1.3349,1.62661 -0.49836,0.49837 -1.04057,0.94333 -1.62661,1.33492 -0.58602,0.39157 -1.20463,0.72221 -1.85579,0.99194 -0.65116,0.26972 -1.32236,0.47333 -2.01361,0.61083 -0.69127,0.13749 -1.3893,0.20625 -2.09411,0.20626 H 10.734061 c -0.704808,-1e-5 -1.4028461,-0.0688 -2.0941122,-0.20626 -0.6912655,-0.1375 -1.3624777,-0.34111 -2.0136356,-0.61084 C 5.9751554,130.22951 5.3565626,129.89886 4.7705359,129.50731 4.1845093,129.11572 3.6423082,128.67076 3.1439335,128.17239 2.6455586,127.67402 2.2005858,127.13181 1.8090153,126.54578 1.4174446,125.95976 1.0868001,125.34117 0.81708163,124.69001 0.5473631,124.03885 0.34375322,123.36765 0.20625193,122.67638 0.06875064,121.98512 0,121.28709 0,120.58228 V 10.734061 C 0,10.029253 0.06875064,9.3312149 0.20625193,8.6399488 0.34375322,7.9486833 0.5473631,7.2774711 0.81708163,6.6263132 1.0868001,5.9751554 1.4174447,5.3565626 1.8090154,4.7705359 2.2005858,4.1845093 2.6455586,3.6423082 3.1439335,3.1439335 3.6423082,2.6455586 4.1845093,2.2005858 4.7705359,1.8090153 5.3565626,1.4174446 5.9751554,1.0868001 6.6263132,0.81708163 7.2774711,0.5473631 7.9486833,0.34375322 8.6399488,0.20625193 9.3312149,0.06875064 10.029253,0 10.734061,0 Z"
                   style="fill:#8fd14f;fill-opacity:1;fill-rule:evenodd;stroke:none"
                   id="path120" />
                <path
                   d="M 10.734061,0 H 157.36996 c 0.70481,0 1.40284,0.06875064 2.09411,0.20625193 0.69125,0.13750129 1.36245,0.34111117 2.01361,0.6108297 0.65116,0.26971847 1.26977,0.60036307 1.85579,0.99193377 0.58604,0.3915704 1.12825,0.8365432 1.62661,1.3349181 0.49837,0.4983747 0.94335,1.0405758 1.3349,1.6266024 0.39157,0.5860267 0.72222,1.2046195 0.99193,1.8557773 0.26971,0.6511579 0.47333,1.3223701 0.61083,2.0136356 0.13751,0.6912661 0.20626,1.3893042 0.20628,2.0941122 V 120.58228 c -2e-5,0.70481 -0.0688,1.40284 -0.20627,2.0941 -0.13751,0.69127 -0.34113,1.36247 -0.61084,2.01363 -0.26971,0.65116 -0.60036,1.26975 -0.99193,1.85577 -0.39155,0.58603 -0.83653,1.12824 -1.3349,1.62661 -0.49836,0.49837 -1.04057,0.94333 -1.62661,1.33492 -0.58602,0.39157 -1.20463,0.72221 -1.85579,0.99194 -0.65116,0.26972 -1.32236,0.47333 -2.01361,0.61083 -0.69127,0.13749 -1.3893,0.20625 -2.09411,0.20626 H 10.734061 c -0.704808,-1e-5 -1.4028461,-0.0688 -2.0941122,-0.20626 -0.6912655,-0.1375 -1.3624777,-0.34111 -2.0136356,-0.61084 C 5.9751554,130.22951 5.3565626,129.89886 4.7705359,129.50731 4.1845093,129.11572 3.6423082,128.67076 3.1439335,128.17239 2.6455586,127.67402 2.2005858,127.13181 1.8090153,126.54578 1.4174446,125.95976 1.0868001,125.34117 0.81708163,124.69001 0.5473631,124.03885 0.34375322,123.36765 0.20625193,122.67638 0.06875064,121.98512 0,121.28709 0,120.58228 V 10.734061 C 0,10.029253 0.06875064,9.3312149 0.20625193,8.6399488 0.34375322,7.9486833 0.5473631,7.2774711 0.81708163,6.6263132 1.0868001,5.9751554 1.4174447,5.3565626 1.8090154,4.7705359 2.2005858,4.1845093 2.6455586,3.6423082 3.1439335,3.1439335 3.6423082,2.6455586 4.1845093,2.2005858 4.7705359,1.8090153 5.3565626,1.4174446 5.9751554,1.0868001 6.6263132,0.81708163 7.2774711,0.5473631 7.9486833,0.34375322 8.6399488,0.20625193 9.3312149,0.06875064 10.029253,0 10.734061,0 Z"
                   style="fill:none;stroke:#1a1a1a;stroke-width:1;stroke-linecap:butt;stroke-linejoin:miter;stroke-miterlimit:10;stroke-dasharray:none;stroke-opacity:1"
                   id="path122" />
              </g>
            </g>
          </g>
        </g>
      </g>
    </g>
    <g
       id="g124">
      <g
         id="g126"
         clip-path="url(#clipPath130)">
        <g
           id="g132"
           transform="matrix(5.7004271,0,0,5.703465,93.321632,473.95908)">
          <text
             xml:space="preserve"
             transform="translate(54.716244,10)"
             style="font-variant:normal;font-weight:normal;font-size:10px;font-family:'Noto Sans';-inkscape-font-specification:NotoSans-Regular;writing-mode:lr-tb;fill:#1a1a1a;fill-opacity:1;fill-rule:nonzero;stroke:none"
             id="text136"><tspan
               x="0 4.7899933 10.399994 16.009995 25.359985 28.039978 30.719971 35.799973 41.409973"
               y="0"
               id="tspan134">saam::var</tspan></text>
        </g>
        <g
           id="g138"
           transform="matrix(5.7004347,0,0,5.703465,656.35486,1185.4721)">
          <path
             d="M 228.41998,41.292336 H 8 c -5.3333335,0 -8,-2.666668 -8,-8 V 10.181818"
             style="fill:none;stroke:#333333;stroke-width:1;stroke-linecap:butt;stroke-linejoin:miter;stroke-miterlimit:10;stroke-dasharray:none;stroke-opacity:1"
             id="path140" />
        </g>
        <g
           id="g142"
           transform="matrix(0,-5.703465,5.7004347,0,656.35486,1185.4721)">
          <path
             d="M -12.727273,-7.5454545 0,0 -12.727273,7.5454545 Z"
             style="fill:#333333;fill-opacity:1;fill-rule:nonzero;stroke:none"
             id="path144" />
        </g>
      </g>
    </g>
    <g
       id="g146">
      <g
         id="g148"
         clip-path="url(#clipPath152)">
        <g
           id="g154"
           clip-path="url(#clipPath158)">
          <g
             id="g160"
             clip-path="url(#clipPath164)">
            <g
               id="g166"
               clip-path="url(#clipPath170)">
              <g
                 id="g172"
                 transform="matrix(5.7004347,0,0,5.703465,116.15795,593.56396)">
                <path
                   d="m 10.734061,0 h 52.01246 c 0.704807,0 1.40284,0.06875064 2.094109,0.20625193 0.691261,0.13750129 1.362464,0.34111117 2.013626,0.6108297 0.651161,0.26971847 1.269752,0.60036307 1.855774,0.99193377 0.586036,0.3915704 1.128242,0.8365432 1.626617,1.3349181 0.498375,0.4983747 0.943344,1.0405758 1.334915,1.6266024 0.391564,0.5860267 0.722214,1.2046195 0.991936,1.8557773 0.269722,0.6511579 0.473328,1.3223701 0.610832,2.0136356 0.137505,0.6912661 0.206253,1.3893042 0.206253,2.0941122 v 75.164842 c 0,0.704811 -0.06876,1.40284 -0.20626,2.094101 -0.137505,0.691261 -0.341111,1.36248 -0.610833,2.013641 -0.269722,0.651161 -0.600364,1.269753 -0.991935,1.855782 -0.391564,0.586021 -0.836533,1.128227 -1.334908,1.626602 -0.498375,0.498375 -1.040581,0.943344 -1.626617,1.334907 -0.586022,0.391572 -1.204613,0.722214 -1.855774,0.991936 -0.651162,0.269722 -1.322365,0.473328 -2.013626,0.610832 -0.691269,0.137505 -1.389302,0.206253 -2.094109,0.206261 h -52.01246 c -0.704808,-8e-6 -1.4028461,-0.06876 -2.0941122,-0.206253 C 7.9486833,96.289207 7.2774711,96.085602 6.6263132,95.81588 5.9751554,95.546158 5.3565626,95.215515 4.7705359,94.823936 4.1845093,94.432373 3.6423082,93.987404 3.1439335,93.489029 2.6455586,92.990654 2.2005858,92.448448 1.8090153,91.862427 1.4174446,91.27639 1.0868001,90.657799 0.81708163,90.006638 0.5473631,89.355476 0.34375322,88.684265 0.20625193,87.992996 0.06875064,87.301743 0,86.603714 0,85.898903 V 10.734061 C 0,10.029253 0.06875064,9.3312149 0.20625193,8.6399488 0.34375322,7.9486833 0.5473631,7.2774711 0.81708163,6.6263132 1.0868001,5.9751554 1.4174447,5.3565626 1.8090154,4.7705359 2.2005858,4.1845093 2.6455586,3.6423082 3.1439335,3.1439335 3.6423082,2.6455586 4.1845093,2.2005858 4.7705359,1.8090153 5.3565626,1.4174446 5.9751554,1.0868001 6.6263132,0.81708163 7.2774711,0.5473631 7.9486833,0.34375322 8.6399488,0.20625193 9.3312149,0.06875064 10.029253,0 10.734061,0 Z"
                   style="fill:#85cddb;fill-opacity:1;fill-rule:evenodd;stroke:none"
                   id="path174" />
                <path
                   d="m 10.734061,0 h 52.01246 c 0.704807,0 1.40284,0.06875064 2.094109,0.20625193 0.691261,0.13750129 1.362464,0.34111117 2.013626,0.6108297 0.651161,0.26971847 1.269752,0.60036307 1.855774,0.99193377 0.586036,0.3915704 1.128242,0.8365432 1.626617,1.3349181 0.498375,0.4983747 0.943344,1.0405758 1.334915,1.6266024 0.391564,0.5860267 0.722214,1.2046195 0.991936,1.8557773 0.269722,0.6511579 0.473328,1.3223701 0.610832,2.0136356 0.137505,0.6912661 0.206253,1.3893042 0.206253,2.0941122 v 75.164842 c 0,0.704811 -0.06876,1.40284 -0.20626,2.094101 -0.137505,0.691261 -0.341111,1.36248 -0.610833,2.013641 -0.269722,0.651161 -0.600364,1.269753 -0.991935,1.855782 -0.391564,0.586021 -0.836533,1.128227 -1.334908,1.626602 -0.498375,0.498375 -1.040581,0.943344 -1.626617,1.334907 -0.586022,0.391572 -1.204613,0.722214 -1.855774,0.991936 -0.651162,0.269722 -1.322365,0.473328 -2.013626,0.610832 -0.691269,0.137505 -1.389302,0.206253 -2.094109,0.206261 h -52.01246 c -0.704808,-8e-6 -1.4028461,-0.06876 -2.0941122,-0.206253 C 7.9486833,96.289207 7.2774711,96.085602 6.6263132,95.81588 5.9751554,95.546158 5.3565626,95.215515 4.7705359,94.823936 4.1845093,94.432373 3.6423082,93.987404 3.1439335,93.489029 2.6455586,92.990654 2.2005858,92.448448 1.8090153,91.862427 1.4174446,91.27639 1.0868001,90.657799 0.81708163,90.006638 0.5473631,89.355476 0.34375322,88.684265 0.20625193,87.992996 0.06875064,87.301743 0,86.603714 0,85.898903 V 10.734061 C 0,10.029253 0.06875064,9.3312149 0.20625193,8.6399488 0.34375322,7.9486833 0.5473631,7.2774711 0.81708163,6.6263132 1.0868001,5.9751554 1.4174447,5.3565626 1.8090154,4.7705359 2.2005858,4.1845093 2.6455586,3.6423082 3.1439335,3.1439335 3.6423082,2.6455586 4.1845093,2.2005858 4.7705359,1.8090153 5.3565626,1.4174446 5.9751554,1.0868001 6.6263132,0.81708163 7.2774711,0.5473631 7.9486833,0.34375322 8.6399488,0.20625193 9.3312149,0.06875064 10.029253,0 10.734061,0 Z"
                   style="fill:none;stroke:#1a1a1a;stroke-width:1;stroke-linecap:butt;stroke-linejoin:miter;stroke-miterlimit:10;stroke-dasharray:none;stroke-opacity:1"
                   id="path176" />
              </g>
            </g>
          </g>
        </g>
      </g>
    </g>
    <g
       id="g178">
      <g
         id="g180"
         clip-path="url(#clipPath184)">
        <g
           id="g186"
           transform="matrix(5.7004256,0,0,5.703465,137.10168,614.51868)">
          <text
             xml:space="preserve"
             transform="translate(18.651291,47.642452)"
             style="font-variant:normal;font-weight:normal;font-size:10px;font-family:'Noto Sans';-inkscape-font-specification:NotoSans-Regular;writing-mode:lr-tb;fill:#1a1a1a;fill-opacity:1;fill-rule:nonzero;stroke:none"
             id="text190"><tspan
               x="0 6.0499878 12.199982 14.779984 20.419983 25.219986"
               y="0"
               id="tspan188">object</tspan></text>
        </g>
      </g>
    </g>
    <g
       id="g192">
      <g
         id="g194"
         clip-path="url(#clipPath198)">
        <g
           id="g200"
           clip-path="url(#clipPath204)">
          <g
             id="g206"
             clip-path="url(#clipPath210)">
            <g
               id="g212"
               clip-path="url(#clipPath216)">
              <g
                 id="g218"
                 transform="matrix(5.7004347,0,0,5.703465,554.12341,593.56396)">
                <path
                   d="m 10.734061,0 h 52.01246 c 0.704807,0 1.40284,0.06875064 2.094109,0.20625193 0.691261,0.13750129 1.362464,0.34111117 2.013626,0.6108297 0.651161,0.26971847 1.269752,0.60036307 1.855774,0.99193377 0.586036,0.3915704 1.128242,0.8365432 1.626617,1.3349181 0.498375,0.4983747 0.943344,1.0405758 1.334915,1.6266024 0.391564,0.5860267 0.722214,1.2046195 0.991936,1.8557773 0.269722,0.6511579 0.473328,1.3223701 0.610832,2.0136356 0.137505,0.6912661 0.206253,1.3893042 0.206253,2.0941122 v 29.455854 c 0,0.704807 -0.06876,1.402843 -0.20626,2.094108 -0.137505,0.691265 -0.341111,1.362477 -0.610833,2.013634 -0.269722,0.651161 -0.600364,1.269756 -0.991935,1.855782 -0.391564,0.586025 -0.836533,1.128227 -1.334908,1.626602 -0.498375,0.498371 -1.040581,0.943344 -1.626617,1.334911 -0.586022,0.391571 -1.204613,0.722218 -1.855774,0.991936 -0.651162,0.269718 -1.322365,0.473327 -2.013626,0.610836 -0.691269,0.137501 -1.389302,0.206249 -2.094109,0.206253 H 10.734061 C 10.029253,50.923973 9.3312149,50.855221 8.6399488,50.71772 7.9486833,50.580215 7.2774711,50.376606 6.6263132,50.106888 5.9751554,49.83717 5.3565626,49.506523 4.7705359,49.114956 4.1845093,48.723385 3.6423082,48.278412 3.1439335,47.780041 2.6455586,47.281666 2.2005858,46.739464 1.8090153,46.153439 1.4174446,45.567413 1.0868001,44.948818 0.81708163,44.297657 0.5473631,43.6465 0.34375322,42.975288 0.20625193,42.284023 0.06875064,41.592758 0,40.894722 0,40.189915 V 10.734061 C 0,10.029253 0.06875064,9.3312149 0.20625193,8.6399488 0.34375322,7.9486833 0.5473631,7.2774711 0.81708163,6.6263132 1.0868001,5.9751554 1.4174447,5.3565626 1.8090154,4.7705359 2.2005858,4.1845093 2.6455586,3.6423082 3.1439335,3.1439335 3.6423082,2.6455586 4.1845093,2.2005858 4.7705359,1.8090153 5.3565626,1.4174446 5.9751554,1.0868001 6.6263132,0.81708163 7.2774711,0.5473631 7.9486833,0.34375322 8.6399488,0.20625193 9.3312149,0.06875064 10.029253,0 10.734061,0 Z"
                   style="fill:none;stroke:#1a1a1a;stroke-width:1;stroke-linecap:butt;stroke-linejoin:miter;stroke-miterlimit:10;stroke-dasharray:none;stroke-opacity:1"
                   id="path220" />
              </g>
            </g>
          </g>
        </g>
      </g>
    </g>
    <g
       id="g222">
      <g
         id="g224"
         clip-path="url(#clipPath228)">
        <g
           id="g230"
           transform="matrix(5.7004328,0,0,5.703465,568.63782,608.08612)">
          <text
             xml:space="preserve"
             transform="translate(6.2891383,11.91579)"
             style="font-variant:normal;font-weight:normal;font-size:10px;font-family:'Noto Sans';-inkscape-font-specification:NotoSans-Regular;writing-mode:lr-tb;fill:#1a1a1a;fill-opacity:1;fill-rule:nonzero;stroke:none"
             id="text234"><tspan
               x="0 6.1799927 12.22998 18.409973 21.009964 26.859955 34.71994 40.899933 43.479935 49.659927"
               y="0"
               id="tspan232">non owning</tspan></text>
        </g>
        <g
           id="g236"
           transform="matrix(5.7004309,0,0,5.703465,568.63788,608.08612)">
          <text
             xml:space="preserve"
             transform="translate(11.774117,25.915791)"
             style="font-variant:normal;font-weight:normal;font-size:10px;font-family:'Noto Sans';-inkscape-font-specification:NotoSans-Regular;writing-mode:lr-tb;fill:#1a1a1a;fill-opacity:1;fill-rule:nonzero;stroke:none"
             id="text240"><tspan
               x="0 3.9299927 9.5699921 13.009995 18.649994 22.579987 28.219986 34.399979 39.199982"
               y="0"
               id="tspan238">reference</tspan></text>
        </g>
        <g
           id="g242"
           transform="matrix(5.7004304,0,0,5.703465,568.63782,608.08612)">
          <text
             xml:space="preserve"
             transform="translate(2.5341334,39.915791)"
             style="font-variant:normal;font-weight:normal;font-size:10px;font-family:'Noto Sans';-inkscape-font-specification:NotoSans-Regular;writing-mode:lr-tb;fill:#1a1a1a;fill-opacity:1;fill-rule:nonzero;stroke:none"
             id="text246"><tspan
               x="0 9.3499908 14.959991 21.139984 26.749985 32.899979 38.539978 47.889969 53.529968 59.709961"
               y="0"
               id="tspan244">management</tspan></text>
        </g>
        <g
           id="g248"
           transform="matrix(5.7004347,0,0,5.703465,535.01349,1029.5441)">
          <path
             d="M 181.10559,0.95684898 C 112.73501,0.95684898 78.552399,0 10.181818,0"
             style="fill:none;stroke:#333333;stroke-width:1;stroke-linecap:butt;stroke-linejoin:miter;stroke-miterlimit:10;stroke-dasharray:none;stroke-opacity:1"
             id="path250" />
        </g>
        <g
           id="g252"
           transform="matrix(-5.7004347,0,0,-5.703465,535.01349,1029.5441)">
          <path
             d="M -12.727273,-7.5454545 0,0 -12.727273,7.5454545 Z"
             style="fill:#333333;fill-opacity:1;fill-rule:nonzero;stroke:none"
             id="path254" />
        </g>
      </g>
    </g>
    <g
       id="g256">
      <g
         id="g258"
         clip-path="url(#clipPath262)">
        <g
           id="g264"
           clip-path="url(#clipPath268)">
          <g
             id="g270"
             clip-path="url(#clipPath274)">
            <g
               id="g276"
               clip-path="url(#clipPath280)">
              <g
                 id="g282"
                 transform="matrix(5.7004347,0,0,5.703465,1046.5457,224.12904)">
                <path
                   d="m 10.734061,0 h 52.01246 c 0.704807,0 1.40284,0.06875064 2.094109,0.20625193 0.691261,0.13750129 1.362464,0.34111117 2.013626,0.6108297 0.651161,0.26971847 1.269752,0.60036307 1.855774,0.99193377 0.586036,0.3915704 1.128242,0.8365432 1.626617,1.3349181 0.498375,0.4983747 0.943344,1.0405758 1.334915,1.6266024 0.391564,0.5860267 0.722214,1.2046195 0.991936,1.8557773 0.269722,0.6511579 0.473328,1.3223701 0.610832,2.0136356 0.137505,0.6912661 0.206253,1.3893042 0.206253,2.0941122 v 29.455854 c 0,0.704807 -0.06876,1.402843 -0.20626,2.094108 -0.137505,0.691265 -0.341111,1.362477 -0.610833,2.013634 -0.269722,0.651161 -0.600364,1.269756 -0.991935,1.855782 -0.391564,0.586025 -0.836533,1.128227 -1.334908,1.626602 -0.498375,0.498371 -1.040581,0.943344 -1.626617,1.334911 -0.586022,0.391571 -1.204613,0.722218 -1.855774,0.991936 -0.651162,0.269718 -1.322365,0.473327 -2.013626,0.610836 -0.691269,0.137501 -1.389302,0.206249 -2.094109,0.206253 H 10.734061 C 10.029253,50.923973 9.3312149,50.855221 8.6399488,50.71772 7.9486833,50.580215 7.2774711,50.376606 6.6263132,50.106888 5.9751554,49.83717 5.3565626,49.506523 4.7705359,49.114956 4.1845093,48.723385 3.6423082,48.278412 3.1439335,47.780041 2.6455586,47.281666 2.2005858,46.739464 1.8090153,46.153439 1.4174446,45.567413 1.0868001,44.948818 0.81708163,44.297657 0.5473631,43.6465 0.34375322,42.975288 0.20625193,42.284023 0.06875064,41.592758 0,40.894722 0,40.189915 V 10.734061 C 0,10.029253 0.06875064,9.3312149 0.20625193,8.6399488 0.34375322,7.9486833 0.5473631,7.2774711 0.81708163,6.6263132 1.0868001,5.9751554 1.4174447,5.3565626 1.8090154,4.7705359 2.2005858,4.1845093 2.6455586,3.6423082 3.1439335,3.1439335 3.6423082,2.6455586 4.1845093,2.2005858 4.7705359,1.8090153 5.3565626,1.4174446 5.9751554,1.0868001 6.6263132,0.81708163 7.2774711,0.5473631 7.9486833,0.34375322 8.6399488,0.20625193 9.3312149,0.06875064 10.029253,0 10.734061,0 Z"
                   style="fill:none;stroke:#1a1a1a;stroke-width:1;stroke-linecap:butt;stroke-linejoin:miter;stroke-miterlimit:10;stroke-dasharray:none;stroke-opacity:1"
                   id="path284" />
              </g>
            </g>
          </g>
        </g>
      </g>
    </g>
    <g
       id="g286">
      <g
         id="g288"
         clip-path="url(#clipPath292)">
        <g
           id="g294"
           transform="matrix(5.7004323,0,0,5.703465,1061.0602,238.65118)">
          <text
             xml:space="preserve"
             transform="translate(16.794121,11.91579)"
             style="font-variant:normal;font-weight:normal;font-size:10px;font-family:'Noto Sans';-inkscape-font-specification:NotoSans-Regular;writing-mode:lr-tb;fill:#1a1a1a;fill-opacity:1;fill-rule:nonzero;stroke:none"
             id="text298"><tspan
               x="0 5.8499908 13.709976 19.889969 22.469971 28.649963"
               y="0"
               id="tspan296">owning</tspan></text>
        </g>
        <g
           id="g300"
           transform="matrix(5.7004309,0,0,5.703465,1061.0602,238.65118)">
          <text
             xml:space="preserve"
             transform="translate(11.774117,25.915791)"
             style="font-variant:normal;font-weight:normal;font-size:10px;font-family:'Noto Sans';-inkscape-font-specification:NotoSans-Regular;writing-mode:lr-tb;fill:#1a1a1a;fill-opacity:1;fill-rule:nonzero;stroke:none"
             id="text304"><tspan
               x="0 3.9299927 9.5699921 13.009995 18.649994 22.579987 28.219986 34.399979 39.199982"
               y="0"
               id="tspan302">reference</tspan></text>
        </g>
        <g
           id="g306"
           transform="matrix(5.7004304,0,0,5.703465,1061.0602,238.65118)">
          <text
             xml:space="preserve"
             transform="translate(2.5341334,39.915791)"
             style="font-variant:normal;font-weight:normal;font-size:10px;font-family:'Noto Sans';-inkscape-font-specification:NotoSans-Regular;writing-mode:lr-tb;fill:#1a1a1a;fill-opacity:1;fill-rule:nonzero;stroke:none"
             id="text310"><tspan
               x="0 9.3499908 14.959991 21.139984 26.749985 32.899979 38.539978 47.889969 53.529968 59.709961"
               y="0"
               id="tspan308">management</tspan></text>
        </g>
      </g>
    </g>
    <g
       id="g312">
      <g
         id="g314"
         clip-path="url(#clipPath318)">
        <g
           id="g320"
           clip-path="url(#clipPath324)">
          <g
             id="g326"
             clip-path="url(#clipPath330)">
            <g
               id="g332"
               clip-path="url(#clipPath336)">
              <g
                 id="g338"
                 transform="matrix(5.7004347,0,0,5.703465,1567.4141,930.35114)">
                <path
                   d="m 10.734061,0 h 90.697999 c 0.7048,0 1.40284,0.06875064 2.0941,0.20625193 0.69126,0.13750129 1.36247,0.34111117 2.01363,0.6108297 0.65117,0.26971847 1.26976,0.60036307 1.85579,0.99193377 0.58603,0.3915704 1.12823,0.8365432 1.62661,1.3349181 0.49837,0.4983747 0.94334,1.0405758 1.33491,1.6266024 0.39157,0.5860267 0.72221,1.2046195 0.99193,1.8557773 0.26971,0.6511579 0.47333,1.3223701 0.61084,2.0136356 0.1375,0.6912661 0.20625,1.3893042 0.20625,2.0941122 v 15.236108 c 0,0.704807 -0.0688,1.402844 -0.20626,2.094109 -0.1375,0.691265 -0.34112,1.362476 -0.61083,2.013635 -0.26972,0.65116 -0.60036,1.269751 -0.99193,1.855776 -0.39157,0.586029 -0.83654,1.128231 -1.33491,1.626606 -0.49838,0.498375 -1.04058,0.943348 -1.62661,1.334919 -0.58603,0.391571 -1.20462,0.722218 -1.85579,0.991936 -0.65116,0.269718 -1.32236,0.473327 -2.01362,0.610828 -0.69127,0.137501 -1.38931,0.206253 -2.09411,0.206253 H 10.734061 c -0.704808,0 -1.4028461,-0.06875 -2.0941122,-0.206257 C 7.9486833,36.360474 7.2774711,36.156868 6.6263132,35.88715 5.9751554,35.617432 5.3565626,35.286785 4.7705359,34.89521 4.1845093,34.503643 3.6423082,34.05867 3.1439335,33.560295 2.6455586,33.06192 2.2005858,32.519718 1.8090153,31.933689 1.4174446,31.347664 1.0868001,30.729073 0.81708163,30.077913 0.5473631,29.426754 0.34375322,28.755543 0.20625193,28.064278 0.06875064,27.373013 0,26.674976 0,25.970169 V 10.734061 C 0,10.029253 0.06875064,9.3312149 0.20625193,8.6399488 0.34375322,7.9486833 0.5473631,7.2774711 0.81708163,6.6263132 1.0868001,5.9751554 1.4174447,5.3565626 1.8090154,4.7705359 2.2005858,4.1845093 2.6455586,3.6423082 3.1439335,3.1439335 3.6423082,2.6455586 4.1845093,2.2005858 4.7705359,1.8090153 5.3565626,1.4174446 5.9751554,1.0868001 6.6263132,0.81708163 7.2774711,0.5473631 7.9486833,0.34375322 8.6399488,0.20625193 9.3312149,0.06875064 10.029253,0 10.734061,0 Z"
                   style="fill:none;stroke:#1a1a1a;stroke-width:1;stroke-linecap:butt;stroke-linejoin:miter;stroke-miterlimit:10;stroke-dasharray:none;stroke-opacity:1"
                   id="path340" />
              </g>
            </g>
          </g>
        </g>
      </g>
    </g>
    <g
       id="g342">
      <g
         id="g344"
         clip-path="url(#clipPath348)">
        <g
           id="g350"
           transform="matrix(5.7004285,0,0,5.703465,1577.8759,940.81824)">
          <text
             xml:space="preserve"
             transform="translate(32.382893,12.516905)"
             style="font-variant:normal;font-weight:normal;font-size:10px;font-family:'Noto Sans';-inkscape-font-specification:NotoSans-Regular;writing-mode:lr-tb;fill:#1a1a1a;fill-opacity:1;fill-rule:nonzero;stroke:none"
             id="text354"><tspan
               x="0 4.7899933 10.399994 16.009995 25.359985 28.039978 30.719971 34.649963 40.289963"
               y="0"
               id="tspan352">saam::ref</tspan></text>
        </g>
        <g
           id="g356"
           transform="matrix(5.7004294,0,0,5.703465,1577.8756,940.81824)">
          <text
             xml:space="preserve"
             transform="translate(7.0979409,26.516905)"
             style="font-variant:normal;font-weight:normal;font-size:10px;font-family:'Noto Sans';-inkscape-font-specification:NotoSans-Regular;writing-mode:lr-tb;fill:#1a1a1a;fill-opacity:1;fill-rule:nonzero;stroke:none"
             id="text360"><tspan
               x="0 5.7200012 11.440002 17.619995 23.669983 29.849976 32.449966 38.299957 46.159943 52.339935 54.919937 61.09993 67.249924 69.849915 73.779907 79.419907 82.859909 88.57991"
               y="0"
               id="tspan358">&lt;&lt;non owning ref&gt;&gt;</tspan></text>
        </g>
      </g>
    </g>
    <g
       id="g362">
      <g
         id="g364"
         clip-path="url(#clipPath368)">
        <g
           id="g370"
           clip-path="url(#clipPath374)">
          <g
             id="g376"
             clip-path="url(#clipPath380)">
            <g
               id="g382"
               clip-path="url(#clipPath386)">
              <g
                 id="g388"
                 transform="matrix(5.7004347,0,0,5.703465,1958.448,1316.313)">
                <path
                   d="m 10.734061,0 h 90.697999 c 0.7048,0 1.40284,0.06875064 2.0941,0.20625193 0.69126,0.13750129 1.36247,0.34111117 2.01363,0.6108297 0.65117,0.26971847 1.26976,0.60036307 1.85579,0.99193377 0.58603,0.3915704 1.12823,0.8365432 1.62661,1.3349181 0.49837,0.4983747 0.94334,1.0405758 1.33491,1.6266024 0.39157,0.5860267 0.72221,1.2046195 0.99193,1.8557773 0.26971,0.6511579 0.47333,1.3223701 0.61084,2.0136356 0.1375,0.6912661 0.20625,1.3893042 0.20625,2.0941122 v 15.236108 c 0,0.704807 -0.0688,1.402844 -0.20626,2.094109 -0.1375,0.691265 -0.34112,1.362476 -0.61083,2.013635 -0.26972,0.65116 -0.60036,1.269751 -0.99193,1.855776 -0.39157,0.586029 -0.83654,1.128231 -1.33491,1.626606 -0.49838,0.498375 -1.04058,0.943348 -1.62661,1.334919 -0.58603,0.391571 -1.20462,0.722218 -1.85579,0.991936 -0.65116,0.269718 -1.32236,0.473327 -2.01362,0.610828 -0.69127,0.137501 -1.38931,0.206253 -2.09411,0.206253 H 10.734061 c -0.704808,0 -1.4028461,-0.06875 -2.0941122,-0.206257 C 7.9486833,36.360474 7.2774711,36.156868 6.6263132,35.88715 5.9751554,35.617432 5.3565626,35.286785 4.7705359,34.89521 4.1845093,34.503643 3.6423082,34.05867 3.1439335,33.560295 2.6455586,33.06192 2.2005858,32.519718 1.8090153,31.933689 1.4174446,31.347664 1.0868001,30.729073 0.81708163,30.077913 0.5473631,29.426754 0.34375322,28.755543 0.20625193,28.064278 0.06875064,27.373013 0,26.674976 0,25.970169 V 10.734061 C 0,10.029253 0.06875064,9.3312149 0.20625193,8.6399488 0.34375322,7.9486833 0.5473631,7.2774711 0.81708163,6.6263132 1.0868001,5.9751554 1.4174447,5.3565626 1.8090154,4.7705359 2.2005858,4.1845093 2.6455586,3.6423082 3.1439335,3.1439335 3.6423082,2.6455586 4.1845093,2.2005858 4.7705359,1.8090153 5.3565626,1.4174446 5.9751554,1.0868001 6.6263132,0.81708163 7.2774711,0.5473631 7.9486833,0.34375322 8.6399488,0.20625193 9.3312149,0.06875064 10.029253,0 10.734061,0 Z"
                   style="fill:none;stroke:#1a1a1a;stroke-width:1;stroke-linecap:butt;stroke-linejoin:miter;stroke-miterlimit:10;stroke-dasharray:none;stroke-opacity:1"
                   id="path390" />
              </g>
            </g>
          </g>
        </g>
      </g>
    </g>
    <g
       id="g392">
      <g
         id="g394"
         clip-path="url(#clipPath398)">
        <g
           id="g400"
           transform="matrix(5.7004294,0,0,5.703465,1968.9097,1326.78)">
          <text
             xml:space="preserve"
             transform="translate(18.977915,12.516905)"
             style="font-variant:normal;font-weight:normal;font-size:10px;font-family:'Noto Sans';-inkscape-font-specification:NotoSans-Regular;writing-mode:lr-tb;fill:#1a1a1a;fill-opacity:1;fill-rule:nonzero;stroke:none"
             id="text404"><tspan
               x="0 4.7899933 8.3999939 14.549988 17.22998 19.909973 24.699966 30.879959 36.48996 40.419952 46.059952 52.209946 56.649948 62.799942 66.409943"
               y="0"
               id="tspan402">std::shared_ptr</tspan></text>
        </g>
        <g
           id="g406"
           transform="matrix(5.7004275,0,0,5.703465,1968.9097,1326.78)">
          <text
             xml:space="preserve"
             transform="translate(17.602922,26.516905)"
             style="font-variant:normal;font-weight:normal;font-size:10px;font-family:'Noto Sans';-inkscape-font-specification:NotoSans-Regular;writing-mode:lr-tb;fill:#1a1a1a;fill-opacity:1;fill-rule:nonzero;stroke:none"
             id="text410"><tspan
               x="0 5.7200012 11.440002 17.289993 25.149979 31.329971 33.909973 40.089966 46.23996 48.839951 52.769943 58.409943 61.849945 67.569946"
               y="0"
               id="tspan408">&lt;&lt;owning ref&gt;&gt;</tspan></text>
        </g>
        <g
           id="g412"
           transform="matrix(5.7004347,0,0,5.703465,972.97894,738.77612)">
          <path
             d="M 160.35841,33.586678 V 8 c 0,-5.3333335 -2.66667,-8 -8,-8 H 10.181818"
             style="fill:none;stroke:#333333;stroke-width:1;stroke-linecap:butt;stroke-linejoin:miter;stroke-miterlimit:10;stroke-dasharray:none;stroke-opacity:1"
             id="path414" />
        </g>
        <g
           id="g416"
           transform="matrix(-5.7004347,0,0,-5.703465,972.97894,738.77612)">
          <path
             d="M -12.727273,-7.5454545 0,0 -12.727273,7.5454545 Z"
             style="fill:#333333;fill-opacity:1;fill-rule:nonzero;stroke:none"
             id="path418" />
        </g>
        <g
           id="g420"
           transform="matrix(5.7004347,0,0,5.703465,1465.4324,369.34119)">
          <path
             d="M 142.573,166.03497 V 8 c 0,-5.3333335 -2.66667,-8 -8,-8 H 10.181818"
             style="fill:none;stroke:#333333;stroke-width:1;stroke-linecap:butt;stroke-linejoin:miter;stroke-miterlimit:10;stroke-dasharray:none;stroke-opacity:1"
             id="path422" />
        </g>
        <g
           id="g424"
           transform="matrix(-5.7004347,0,0,-5.703465,1465.4324,369.34119)">
          <path
             d="M -12.727273,-7.5454545 0,0 -12.727273,7.5454545 Z"
             style="fill:#333333;fill-opacity:1;fill-rule:nonzero;stroke:none"
             id="path426" />
        </g>
      </g>
    </g>
  </g>
</svg>
