<?xml version="1.0" encoding="UTF-8" standalone="no"?>
<!-- Created with Inkscape (http://www.inkscape.org/) -->

<svg
   version="1.1"
   id="svg2"
   width="841.27997"
   height="508.16"
   viewBox="0 0 841.27997 508.16"
   xmlns="http://www.w3.org/2000/svg"
   xmlns:svg="http://www.w3.org/2000/svg">
  <defs
     id="defs6">
    <clipPath
       clipPathUnits="userSpaceOnUse"
       id="clipPath16">
      <path
         d="M 0,0 H 2629.1665 V 1586.2429 H 0 Z"
         clip-rule="evenodd"
         id="path14" />
    </clipPath>
    <clipPath
       clipPathUnits="userSpaceOnUse"
       id="clipPath28">
      <path
         d="M 0,0 H 2629.1665 V 1586.2429 H 0 Z"
         clip-rule="evenodd"
         id="path26" />
    </clipPath>
    <clipPath
       clipPathUnits="userSpaceOnUse"
       id="clipPath40">
      <path
         d="M 0,0 H 2629.1665 V 1586.2429 H 0 Z"
         clip-rule="evenodd"
         id="path38" />
    </clipPath>
    <clipPath
       clipPathUnits="userSpaceOnUse"
       id="clipPath52">
      <path
         d="M 0,0 H 2629.1665 V 1586.2429 H 0 Z"
         id="path50" />
    </clipPath>
    <clipPath
       clipPathUnits="userSpaceOnUse"
       id="clipPath58">
      <path
         d="M 0,0 H 2629.1665 V 1589.3655 H 0 Z"
         id="path56" />
    </clipPath>
    <clipPath
       clipPathUnits="userSpaceOnUse"
       id="clipPath64">
      <path
         d="M 19.796812,29.1992 H 1253.9257 V 1350.3186 H 19.796812 Z"
         id="path62" />
    </clipPath>
    <clipPath
       clipPathUnits="userSpaceOnUse"
       id="clipPath70">
      <path
         d="M 19.796812,1277.7236 V 101.79421 c 0,-4.76666 0.464907,-9.487524 1.39472,-14.162588 0.929814,-4.675071 2.306667,-9.214515 4.130564,-13.618332 1.823894,-4.403816 4.059786,-8.587387 6.707674,-12.550716 2.647884,-3.963329 5.656891,-7.63026 9.027012,-11.000793 3.370117,-3.370537 7.036598,-6.37991 10.999439,-9.028122 3.962845,-2.648213 8.145905,-4.884377 12.549179,-6.708496 4.403275,-1.82412 8.942162,-3.201144 13.616654,-4.131072 4.674491,-0.929927 9.394775,-1.394891 14.16085,-1.394891 H 1181.3396 c 4.7661,0 9.4865,0.464964 14.1609,1.394891 4.6744,0.929926 9.2133,2.306948 13.6164,4.131068 4.4032,1.824119 8.5864,4.060287 12.5492,6.7085 3.9629,2.648212 7.6294,5.657585 10.9996,9.028122 3.3701,3.370533 6.379,7.037464 9.0268,11.000793 2.6478,3.963329 4.8838,8.1469 6.7078,12.550716 1.8238,4.403817 3.2008,8.943261 4.1306,13.618325 0.9298,4.675071 1.3946,9.395935 1.3948,14.162595 V 1277.7236 c -2e-4,4.7666 -0.4651,9.4875 -1.3949,14.1626 -0.9298,4.675 -2.3067,9.2144 -4.1306,13.6182 -1.8239,4.4037 -4.0599,8.5873 -6.7077,12.5505 -2.6478,3.9633 -5.6567,7.6303 -9.0268,11.0009 -3.3702,3.3705 -7.0367,6.3798 -10.9996,9.0281 -3.9628,2.6482 -8.1458,4.8844 -12.549,6.7085 -4.4032,1.8241 -8.9422,3.2011 -13.6166,4.1311 -4.6744,0.93 -9.3948,1.395 -14.1609,1.3951 H 92.382904 c -4.766075,-10e-5 -9.486359,-0.4651 -14.16085,-1.395 -4.674492,-0.9301 -9.213379,-2.3071 -13.616654,-4.1312 -4.403274,-1.8241 -8.586334,-4.0603 -12.549175,-6.7084 -3.962845,-2.6483 -7.629326,-5.6576 -10.999443,-9.0281 -3.370121,-3.3706 -6.379128,-7.0376 -9.027012,-11.0008 -2.647888,-3.9634 -4.88378,-8.147 -6.707674,-12.5507 -1.823897,-4.4038 -3.20075,-8.9432 -4.130564,-13.6182 -0.929813,-4.6751 -1.39472,-9.396 -1.39472,-14.1626 z"
         id="path68" />
    </clipPath>
    <clipPath
       clipPathUnits="userSpaceOnUse"
       id="clipPath84">
      <path
         d="M 0,0 H 2629.1665 V 1586.2429 H 0 Z"
         clip-rule="evenodd"
         id="path82" />
    </clipPath>
    <clipPath
       clipPathUnits="userSpaceOnUse"
       id="clipPath98">
      <path
         d="M 0,0 H 2629.1665 V 1586.2429 H 0 Z"
         id="path96" />
    </clipPath>
    <clipPath
       clipPathUnits="userSpaceOnUse"
       id="clipPath104">
      <path
         d="M 0,0 H 2629.1665 V 1589.3655 H 0 Z"
         id="path102" />
    </clipPath>
    <clipPath
       clipPathUnits="userSpaceOnUse"
       id="clipPath110">
      <path
         d="M 63.918095,307.07562 H 1200.6746 V 1189.2229 H 63.918095 Z"
         id="path108" />
    </clipPath>
    <clipPath
       clipPathUnits="userSpaceOnUse"
       id="clipPath116">
      <path
         d="M 63.918095,1116.6279 V 379.67062 c -4e-6,-4.76666 0.464901,-9.48751 1.394718,-14.16259 0.929817,-4.67508 2.306671,-9.21451 4.130562,-13.61832 1.82389,-4.40381 4.059784,-8.58737 6.707672,-12.55072 2.647888,-3.96332 5.656891,-7.63025 9.027015,-11.00076 3.37011,-3.37055 7.036591,-6.37995 10.999443,-9.02817 3.962835,-2.64819 8.145885,-4.88434 12.549175,-6.70847 4.40327,-1.82412 8.94215,-3.20114 13.61664,-4.13104 4.6745,-0.92996 9.39478,-1.39493 14.16086,-1.39493 h 991.58432 c 4.7661,0 9.4863,0.46497 14.1608,1.3949 4.6745,0.92993 9.2134,2.30695 13.6165,4.13104 4.4032,1.82413 8.5864,4.06027 12.5492,6.70847 3.9629,2.64822 7.6294,5.65759 10.9996,9.02814 3.3701,3.37054 6.379,7.03747 9.0268,11.00082 2.6478,3.96335 4.8838,8.14691 6.7078,12.55072 1.8238,4.40381 3.2007,8.94324 4.1305,13.61832 0.9298,4.67508 1.3947,9.39593 1.3949,14.16259 v 736.95728 c -2e-4,4.7666 -0.4651,9.4875 -1.3949,14.1625 -0.9298,4.6751 -2.3067,9.2145 -4.1305,13.6183 -1.824,4.4037 -4.06,8.5873 -6.7078,12.5507 -2.6478,3.9632 -5.6567,7.6302 -9.0268,11.0008 -3.3702,3.3705 -7.0367,6.3798 -10.9996,9.028 -3.9628,2.6482 -8.146,4.8844 -12.5492,6.7085 -4.4031,1.8241 -8.942,3.2011 -13.6165,4.1312 -4.6745,0.9299 -9.3947,1.3949 -14.1608,1.395 H 136.50418 c -4.76608,-10e-5 -9.48636,-0.4651 -14.16085,-1.3951 -4.67449,-0.93 -9.21338,-2.307 -13.61665,-4.1311 -4.40329,-1.8241 -8.58634,-4.0603 -12.549175,-6.7085 -3.962852,-2.6482 -7.629333,-5.6575 -10.999443,-9.028 -3.370124,-3.3706 -6.379127,-7.0376 -9.027023,-11.0008 -2.64788,-3.9634 -4.883774,-8.147 -6.707664,-12.5507 -1.823891,-4.4038 -3.200753,-8.9432 -4.13057,-13.6183 -0.929809,-4.675 -1.394714,-9.3959 -1.39471,-14.1625 z"
         id="path114" />
    </clipPath>
    <clipPath
       clipPathUnits="userSpaceOnUse"
       id="clipPath130">
      <path
         d="M 0,0 H 2629.1665 V 1586.2429 H 0 Z"
         clip-rule="evenodd"
         id="path128" />
    </clipPath>
    <clipPath
       clipPathUnits="userSpaceOnUse"
       id="clipPath152">
      <path
         d="M 0,0 H 2629.1665 V 1586.2429 H 0 Z"
         id="path150" />
    </clipPath>
    <clipPath
       clipPathUnits="userSpaceOnUse"
       id="clipPath158">
      <path
         d="M 0,0 H 2629.1665 V 1589.3655 H 0 Z"
         id="path156" />
    </clipPath>
    <clipPath
       clipPathUnits="userSpaceOnUse"
       id="clipPath164">
      <path
         d="M 135.42392,517.55969 H 632.31586 V 1140.8749 H 135.42392 Z"
         id="path162" />
    </clipPath>
    <clipPath
       clipPathUnits="userSpaceOnUse"
       id="clipPath170">
      <path
         d="M 135.42392,1068.2799 V 590.15466 c 0,-4.76666 0.4649,-9.48748 1.39471,-14.16259 0.92981,-4.67511 2.30666,-9.21454 4.13056,-13.61829 1.8239,-4.40381 4.05978,-8.5874 6.70767,-12.55072 2.64787,-3.96332 5.65689,-7.63025 9.02702,-11.00079 3.37012,-3.37055 7.03659,-6.37995 10.99944,-9.02814 3.96284,-2.64826 8.1459,-4.8844 12.54918,-6.7085 4.40327,-1.82416 8.94215,-3.20117 13.61665,-4.1311 4.67449,-0.92987 9.39478,-1.39484 14.16086,-1.39484 h 351.71973 c 4.76605,0 9.48632,0.46497 14.16076,1.39484 4.6745,0.92987 9.21344,2.30688 13.6167,4.13104 4.40326,1.82416 8.58637,4.0603 12.5492,6.70856 3.96283,2.64819 7.62933,5.65759 10.99945,9.02814 3.37005,3.37054 6.37909,7.03747 9.02697,11.00079 2.64783,3.96332 4.88373,8.14691 6.70765,12.55072 1.82391,4.40375 3.2008,8.94318 4.13061,13.61829 0.92987,4.67511 1.39478,9.39593 1.39478,14.16259 v 478.12524 c 0,4.7667 -0.46491,9.4876 -1.39478,14.1625 -0.92981,4.6752 -2.3067,9.2146 -4.13061,13.6183 -1.82392,4.4039 -4.05982,8.5874 -6.70765,12.5506 -2.64788,3.9634 -5.65692,7.6304 -9.02697,11.001 -3.37012,3.3705 -7.03662,6.3798 -10.99951,9.028 -3.96283,2.6482 -8.14588,4.8844 -12.54914,6.7085 -4.40326,1.8241 -8.9422,3.2011 -13.6167,4.1312 -4.67444,0.9299 -9.39471,1.3949 -14.16076,1.3949 H 208.01001 c -4.76608,0 -9.48637,-0.465 -14.16086,-1.395 -4.6745,-0.93 -9.21338,-2.307 -13.61665,-4.1311 -4.40328,-1.8241 -8.58632,-4.0603 -12.54917,-6.7085 -3.96284,-2.6484 -7.62933,-5.6576 -10.99945,-9.0281 -3.37013,-3.3706 -6.37913,-7.0376 -9.027,-11.0009 -2.64791,-3.9632 -4.88379,-8.1468 -6.70769,-12.5507 -1.8239,-4.4037 -3.20075,-8.9432 -4.13056,-13.6182 -0.92981,-4.6749 -1.39471,-9.3958 -1.39471,-14.1625 z"
         id="path168" />
    </clipPath>
    <clipPath
       clipPathUnits="userSpaceOnUse"
       id="clipPath184">
      <path
         d="M 0,0 H 2629.1665 V 1586.2429 H 0 Z"
         clip-rule="evenodd"
         id="path182" />
    </clipPath>
    <clipPath
       clipPathUnits="userSpaceOnUse"
       id="clipPath198">
      <path
         d="M 0,0 H 2629.1665 V 1586.2429 H 0 Z"
         id="path196" />
    </clipPath>
    <clipPath
       clipPathUnits="userSpaceOnUse"
       id="clipPath204">
      <path
         d="M 0,0 H 2629.1665 V 1589.3655 H 0 Z"
         id="path202" />
    </clipPath>
    <clipPath
       clipPathUnits="userSpaceOnUse"
       id="clipPath210">
      <path
         d="M 657.51019,517.55969 H 1154.4021 V 861.96118 H 657.51019 Z"
         id="path208" />
    </clipPath>
    <clipPath
       clipPathUnits="userSpaceOnUse"
       id="clipPath216">
      <path
         d="M 657.51019,789.36615 V 590.15466 c -6e-5,-4.76666 0.46485,-9.48748 1.39466,-14.16259 0.92981,-4.67511 2.30664,-9.21454 4.13055,-13.61829 1.82385,-4.40381 4.05975,-8.5874 6.70764,-12.55072 2.64789,-3.96332 5.65692,-7.63025 9.0271,-11.00079 3.37012,-3.37055 7.03656,-6.37995 10.99939,-9.02814 3.96283,-2.64826 8.14594,-4.8844 12.5492,-6.7085 4.40325,-1.82416 8.94213,-3.20117 13.61663,-4.1311 4.67456,-0.92987 9.3949,-1.39484 14.16095,-1.39484 H 1081.816 c 4.766,0 9.4863,0.46497 14.1607,1.39484 4.6744,0.92987 9.2134,2.30688 13.6167,4.13104 4.4033,1.82416 8.5864,4.0603 12.5492,6.70856 3.9629,2.64819 7.6294,5.65759 10.9995,9.02814 3.3701,3.37054 6.3791,7.03747 9.027,11.00079 2.6478,3.96332 4.8836,8.14691 6.7076,12.55072 1.8239,4.40375 3.2008,8.94318 4.1306,13.61829 0.9298,4.67511 1.3947,9.39593 1.3948,14.16259 v 199.21149 c -10e-5,4.7666 -0.465,9.48743 -1.3948,14.16254 -0.9298,4.67505 -2.3067,9.21447 -4.1306,13.61828 -1.824,4.40381 -4.0598,8.58741 -6.7076,12.55072 -2.648,3.96338 -5.657,7.63031 -9.0271,11.00086 -3.3701,3.37054 -7.0366,6.37988 -10.9995,9.02807 -3.9628,2.64826 -8.1458,4.8844 -12.5491,6.7085 -4.4033,1.82416 -8.9423,3.20117 -13.6167,4.1311 -4.6744,0.92993 -9.3947,1.3949 -14.1607,1.39496 H 730.09631 c -4.76605,-6e-5 -9.48639,-0.46503 -14.16095,-1.39496 -4.6745,-0.92993 -9.21338,-2.30694 -13.61663,-4.13104 -4.40326,-1.82416 -8.58637,-4.0603 -12.5492,-6.70843 -3.96283,-2.64826 -7.62927,-5.65766 -10.99939,-9.02814 -3.37018,-3.37055 -6.37921,-7.03748 -9.0271,-11.00086 -2.64789,-3.96337 -4.88379,-8.14697 -6.70764,-12.55078 -1.82391,-4.40381 -3.20074,-8.94323 -4.13055,-13.61828 -0.92981,-4.67511 -1.39472,-9.39594 -1.39466,-14.16254 z"
         id="path214" />
    </clipPath>
    <clipPath
       clipPathUnits="userSpaceOnUse"
       id="clipPath228">
      <path
         d="M 0,0 H 2629.1665 V 1586.2429 H 0 Z"
         clip-rule="evenodd"
         id="path226" />
    </clipPath>
    <clipPath
       clipPathUnits="userSpaceOnUse"
       id="clipPath262">
      <path
         d="M 0,0 H 2629.1665 V 1586.2429 H 0 Z"
         id="path260" />
    </clipPath>
    <clipPath
       clipPathUnits="userSpaceOnUse"
       id="clipPath268">
      <path
         d="M 0,0 H 2629.1665 V 1589.3655 H 0 Z"
         id="path266" />
    </clipPath>
    <clipPath
       clipPathUnits="userSpaceOnUse"
       id="clipPath274">
      <path
         d="m 1845.4126,892.62097 h 758.4922 v 248.23253 h -758.4922 z"
         id="path272" />
    </clipPath>
    <clipPath
       clipPathUnits="userSpaceOnUse"
       id="clipPath280">
      <path
         d="M 1845.4126,1068.2585 V 965.21594 c 0,-4.76666 0.4648,-9.48761 1.3945,-14.16272 0.9298,-4.67505 2.3067,-9.21447 4.1305,-13.61828 1.8239,-4.40375 4.0597,-8.58734 6.7077,-12.55066 2.6478,-3.96332 5.6567,-7.63025 9.0269,-11.00074 3.3702,-3.37054 7.0367,-6.37994 10.9996,-9.02819 3.9628,-2.6482 8.1459,-4.88434 12.5491,-6.7085 4.4034,-1.82404 8.9422,-3.20105 13.6166,-4.13098 4.6746,-0.92993 9.3949,-1.3949 14.1612,-1.3949 h 613.3199 c 4.7659,0 9.4861,0.46497 14.1606,1.3949 4.6746,0.92993 9.2134,2.30694 13.6167,4.13098 4.4034,1.8241 8.5865,4.06024 12.5494,6.70837 3.9626,2.64826 7.6291,5.65766 10.9995,9.0282 3.3698,3.37049 6.3789,7.03742 9.0268,11.00074 2.6477,3.96331 4.8836,8.14691 6.7076,12.55072 1.8237,4.4038 3.2004,8.94323 4.1303,13.61834 0.93,4.67511 1.395,9.39606 1.3953,14.16272 v 103.04256 c -3e-4,4.7667 -0.4651,9.4875 -1.395,14.1625 -0.93,4.6751 -2.3069,9.2145 -4.1306,13.6184 -1.824,4.4037 -4.0599,8.5873 -6.7076,12.5507 -2.6479,3.9632 -5.657,7.6302 -9.0271,11.0007 -3.3701,3.3705 -7.0366,6.3799 -10.9992,9.0281 -3.9629,2.6482 -8.146,4.8844 -12.5494,6.7085 -4.4033,1.8241 -8.9421,3.2012 -13.6167,4.1311 -4.6745,0.9299 -9.3947,1.3949 -14.1606,1.395 h -613.3199 c -4.7663,-10e-5 -9.4866,-0.4651 -14.1611,-1.395 -4.6744,-0.9299 -9.2133,-2.307 -13.6167,-4.1311 -4.4032,-1.8241 -8.5863,-4.0603 -12.5491,-6.7085 -3.9628,-2.6482 -7.6293,-5.6575 -10.9993,-9.028 -3.3703,-3.3704 -6.3793,-7.0374 -9.0271,-11.0008 -2.648,-3.9634 -4.8838,-8.147 -6.7077,-12.5507 -1.8238,-4.4039 -3.2006,-8.9433 -4.1304,-13.6183 -0.9299,-4.6751 -1.3947,-9.3959 -1.3947,-14.1626 z"
         id="path278" />
    </clipPath>
    <clipPath
       clipPathUnits="userSpaceOnUse"
       id="clipPath292">
      <path
         d="M 0,0 H 2629.1665 V 1586.2429 H 0 Z"
         clip-rule="evenodd"
         id="path290" />
    </clipPath>
    <clipPath
       clipPathUnits="userSpaceOnUse"
       id="clipPath312">
      <path
         d="M 0,0 H 2629.1665 V 1586.2429 H 0 Z"
         id="path310" />
    </clipPath>
    <clipPath
       clipPathUnits="userSpaceOnUse"
       id="clipPath318">
      <path
         d="M 0,0 H 2629.1665 V 1589.3655 H 0 Z"
         id="path316" />
    </clipPath>
    <clipPath
       clipPathUnits="userSpaceOnUse"
       id="clipPath324">
      <path
         d="m 1845.4126,1317.3366 h 758.4922 v 248.2325 h -758.4922 z"
         id="path322" />
    </clipPath>
    <clipPath
       clipPathUnits="userSpaceOnUse"
       id="clipPath330">
      <path
         d="m 1845.4126,1492.9741 v -103.0426 c 0,-4.7667 0.4648,-9.4875 1.3945,-14.1627 0.9298,-4.675 2.3067,-9.2145 4.1305,-13.6183 1.8239,-4.4039 4.0597,-8.5875 6.7077,-12.5508 2.6478,-3.9632 5.6567,-7.6302 9.0269,-11.0007 3.3702,-3.3705 7.0367,-6.3799 10.9996,-9.0281 3.9628,-2.6483 8.1459,-4.8844 12.5491,-6.7085 4.4034,-1.8241 8.9422,-3.2012 13.6166,-4.1309 4.6746,-0.93 9.3949,-1.3949 14.1612,-1.3949 h 613.3199 c 4.7659,0 9.4861,0.4649 14.1606,1.3949 4.6746,0.9297 9.2134,2.3068 13.6167,4.1309 4.4034,1.8241 8.5865,4.0602 12.5494,6.7085 3.9626,2.6482 7.6291,5.6576 10.9995,9.0281 3.3698,3.3705 6.3789,7.0375 9.0268,11.0007 2.6477,3.9633 4.8836,8.1469 6.7076,12.5508 1.8237,4.4038 3.2004,8.9433 4.1303,13.6184 0.93,4.6751 1.395,9.3959 1.3953,14.1626 v 103.0426 c -3e-4,4.7666 -0.4651,9.4875 -1.395,14.1625 -0.93,4.6751 -2.3069,9.2145 -4.1306,13.6183 -1.824,4.4038 -4.0599,8.5874 -6.7076,12.5508 -2.6479,3.9632 -5.657,7.6301 -9.0271,11.0007 -3.3701,3.3705 -7.0366,6.3799 -10.9992,9.0282 -3.9629,2.6481 -8.146,4.8843 -12.5494,6.7084 -4.4033,1.8241 -8.9421,3.2011 -13.6167,4.1311 -4.6745,0.9299 -9.3947,1.3949 -14.1606,1.395 h -613.3199 c -4.7663,-10e-5 -9.4866,-0.4651 -14.1611,-1.395 -4.6744,-0.93 -9.2133,-2.307 -13.6167,-4.1311 -4.4032,-1.8241 -8.5863,-4.0603 -12.5491,-6.7084 -3.9628,-2.6483 -7.6293,-5.6577 -10.9993,-9.0282 -3.3703,-3.3706 -6.3793,-7.0376 -9.0271,-11.0009 -2.648,-3.9633 -4.8838,-8.1469 -6.7077,-12.5507 -1.8238,-4.4038 -3.2006,-8.9433 -4.1304,-13.6182 -0.9299,-4.675 -1.3947,-9.3959 -1.3947,-14.1625 z"
         id="path328" />
    </clipPath>
    <clipPath
       clipPathUnits="userSpaceOnUse"
       id="clipPath342">
      <path
         d="M 0,0 H 2629.1665 V 1586.2429 H 0 Z"
         clip-rule="evenodd"
         id="path340" />
    </clipPath>
  </defs>
  <g
     id="g8"
     transform="matrix(0.31999998,0,0,0.31999998,0,1.2704e-5)">
    <g
       id="g10">
      <g
         id="g12"
         clip-path="url(#clipPath16)">
        <g
           id="g18"
           transform="scale(3.1225255)">
          <path
             d="M 0,0 H 842 V 509 H 0 Z"
             style="fill:#ffffff;fill-opacity:1;fill-rule:nonzero;stroke:none"
             id="path20" />
        </g>
      </g>
    </g>
    <g
       id="g22">
      <g
         id="g24"
         clip-path="url(#clipPath28)">
        <g
           id="g30"
           transform="scale(3.1225255,3.1229088)">
          <path
             d="M 0,0 H 842 V 508.9375 H 0 Z"
             style="fill:#f2f2f2;fill-opacity:1;fill-rule:nonzero;stroke:none"
             id="path32" />
        </g>
      </g>
    </g>
    <g
       id="g34">
      <g
         id="g36"
         clip-path="url(#clipPath40)">
        <g
           id="g42"
           transform="matrix(6.7622371,0,0,6.7630792,-8295.9258,-524.58624)">
          <path
             d="M 0,0 H 1737.3361 V 800.37671 H 0 Z"
             style="fill:#ffffff;fill-opacity:1;fill-rule:nonzero;stroke:none"
             id="path44" />
        </g>
      </g>
    </g>
    <g
       id="g46">
      <g
         id="g48"
         clip-path="url(#clipPath52)">
        <g
           id="g54"
           clip-path="url(#clipPath58)">
          <g
             id="g60"
             clip-path="url(#clipPath64)">
            <g
               id="g66"
               clip-path="url(#clipPath70)">
              <g
                 id="g72"
                 transform="matrix(6.7622209,0,0,6.763051,19.796812,29.1992)">
                <path
                   d="M 10.734061,0 H 171.76944 c 0.35155,0 0.70225,0.01722914 1.05212,0.05168743 0.34987,0.03445828 0.69719,0.08597978 1.04198,0.1545645 0.3448,0.0685847 0.68541,0.15390243 1.02182,0.25595309 0.33643,0.10205063 0.66702,0.22034285 0.99181,0.35487661 0.3248,0.13453382 0.64221,0.28466137 0.95224,0.45038267 0.31004,0.1657213 0.61122,0.3462383 0.90353,0.5415511 0.29231,0.1953129 0.57436,0.4044808 0.84612,0.6275042 0.27174,0.2230234 0.5319,0.458828 0.78048,0.7074139 0.24858,0.248586 0.48439,0.5087564 0.70742,0.7805112 0.22302,0.2717547 0.43219,0.5537853 0.6275,0.8460912 0.19531,0.2923065 0.37582,0.5934811 0.54155,0.903524 0.16572,0.3100423 0.31585,0.62746 0.45038,0.9522533 0.13453,0.3247933 0.25282,0.6553984 0.35489,0.9918146 0.10205,0.3364158 0.18736,0.677023 0.25595,1.021821 0.0686,0.3448 0.12013,0.6921301 0.15458,1.0419913 0.0345,0.3498599 0.0517,0.7005669 0.0517,1.0521209 V 184.60965 c 0,0.35155 -0.0172,0.70225 -0.0517,1.05212 -0.0344,0.34987 -0.086,0.69719 -0.15458,1.042 -0.0686,0.3448 -0.1539,0.68541 -0.25595,1.02182 -0.10207,0.33641 -0.22036,0.66702 -0.35489,0.9918 -0.13453,0.3248 -0.28466,0.64221 -0.45038,0.95226 -0.16573,0.31004 -0.34624,0.61122 -0.54155,0.90352 -0.19531,0.29231 -0.40448,0.57434 -0.6275,0.8461 -0.22303,0.27174 -0.45884,0.5319 -0.70742,0.78048 -0.24858,0.24858 -0.50876,0.48439 -0.7805,0.70743 -0.27174,0.22304 -0.55379,0.43221 -0.84611,0.6275 -0.2923,0.1953 -0.59348,0.37581 -0.90352,0.54154 -0.31003,0.16572 -0.62744,0.31585 -0.95224,0.45038 -0.32479,0.13453 -0.65538,0.25283 -0.99181,0.3549 -0.33641,0.10205 -0.67702,0.18736 -1.02182,0.25594 -0.34479,0.0686 -0.69211,0.12013 -1.04198,0.15458 -0.34987,0.0345 -0.70057,0.0517 -1.05212,0.0517 H 10.734061 c -0.351554,0 -0.702261,-0.0172 -1.0521209,-0.0517 -0.3498612,-0.0345 -0.6971913,-0.086 -1.0419913,-0.15457 -0.344798,-0.0686 -0.6854057,-0.15388 -1.0218219,-0.25593 -0.3364158,-0.10207 -0.6670204,-0.22037 -0.9918137,-0.35491 -0.3247933,-0.13454 -0.642211,-0.28467 -0.9522538,-0.45039 C 5.364017,193.91051 5.0628424,193.73 4.7705359,193.53468 4.47823,193.33939 4.1961994,193.13022 3.9244449,192.90718 3.6526899,192.68414 3.3925195,192.44833 3.1439335,192.19975 2.8953476,191.95117 2.659543,191.69101 2.4365196,191.41925 2.2134962,191.14751 2.004328,190.86546 1.8090153,190.57315 1.6137025,190.28085 1.4331855,189.97969 1.2674642,189.66965 1.101743,189.3596 0.95161545,189.04218 0.81708163,188.71738 0.68254787,188.39259 0.56425565,188.062 0.46220502,187.72557 0.36015436,187.38916 0.27483666,187.04854 0.20625193,186.70374 0.13766721,186.35896 0.08614571,186.01164 0.05168743,185.66177 0.01722914,185.3119 0,184.9612 0,184.60965 V 10.734061 C 0,10.382507 0.01722914,10.0318 0.05168743,9.6819401 0.08614571,9.3320789 0.13766721,8.9847488 0.20625193,8.6399488 0.27483666,8.2951508 0.36015436,7.9545431 0.46220502,7.6181269 0.56425565,7.2817111 0.68254787,6.9511065 0.81708163,6.6263132 0.95161545,6.3015199 1.101743,5.9841022 1.2674643,5.6740594 1.4331856,5.364017 1.6137026,5.0628424 1.8090154,4.7705359 2.0043283,4.47823 2.2134962,4.1961994 2.4365196,3.9244449 2.659543,3.6526899 2.8953476,3.3925195 3.1439335,3.1439335 3.3925195,2.8953476 3.6526899,2.659543 3.9244447,2.4365196 4.1961994,2.2134962 4.47823,2.004328 4.7705359,1.8090153 5.0628424,1.6137025 5.364017,1.4331855 5.6740599,1.2674642 5.9841022,1.101743 6.3015199,0.95161545 6.6263132,0.81708163 6.9511065,0.68254787 7.2817116,0.56425565 7.6181278,0.46220502 7.9545436,0.36015436 8.2951508,0.27483666 8.6399488,0.20625193 8.9847488,0.13766721 9.3320789,0.08614571 9.6819401,0.05168743 10.0318,0.01722914 10.382507,0 10.734061,0 Z"
                   style="fill:#fac710;fill-opacity:1;fill-rule:evenodd;stroke:none"
                   id="path74" />
                <path
                   d="M 10.734061,0 H 171.76944 c 0.35155,0 0.70225,0.01722914 1.05212,0.05168743 0.34987,0.03445828 0.69719,0.08597978 1.04198,0.1545645 0.3448,0.0685847 0.68541,0.15390243 1.02182,0.25595309 0.33643,0.10205063 0.66702,0.22034285 0.99181,0.35487661 0.3248,0.13453382 0.64221,0.28466137 0.95224,0.45038267 0.31004,0.1657213 0.61122,0.3462383 0.90353,0.5415511 0.29231,0.1953129 0.57436,0.4044808 0.84612,0.6275042 0.27174,0.2230234 0.5319,0.458828 0.78048,0.7074139 0.24858,0.248586 0.48439,0.5087564 0.70742,0.7805112 0.22302,0.2717547 0.43219,0.5537853 0.6275,0.8460912 0.19531,0.2923065 0.37582,0.5934811 0.54155,0.903524 0.16572,0.3100423 0.31585,0.62746 0.45038,0.9522533 0.13453,0.3247933 0.25282,0.6553984 0.35489,0.9918146 0.10205,0.3364158 0.18736,0.677023 0.25595,1.021821 0.0686,0.3448 0.12013,0.6921301 0.15458,1.0419913 0.0345,0.3498599 0.0517,0.7005669 0.0517,1.0521209 V 184.60965 c 0,0.35155 -0.0172,0.70225 -0.0517,1.05212 -0.0344,0.34987 -0.086,0.69719 -0.15458,1.042 -0.0686,0.3448 -0.1539,0.68541 -0.25595,1.02182 -0.10207,0.33641 -0.22036,0.66702 -0.35489,0.9918 -0.13453,0.3248 -0.28466,0.64221 -0.45038,0.95226 -0.16573,0.31004 -0.34624,0.61122 -0.54155,0.90352 -0.19531,0.29231 -0.40448,0.57434 -0.6275,0.8461 -0.22303,0.27174 -0.45884,0.5319 -0.70742,0.78048 -0.24858,0.24858 -0.50876,0.48439 -0.7805,0.70743 -0.27174,0.22304 -0.55379,0.43221 -0.84611,0.6275 -0.2923,0.1953 -0.59348,0.37581 -0.90352,0.54154 -0.31003,0.16572 -0.62744,0.31585 -0.95224,0.45038 -0.32479,0.13453 -0.65538,0.25283 -0.99181,0.3549 -0.33641,0.10205 -0.67702,0.18736 -1.02182,0.25594 -0.34479,0.0686 -0.69211,0.12013 -1.04198,0.15458 -0.34987,0.0345 -0.70057,0.0517 -1.05212,0.0517 H 10.734061 c -0.351554,0 -0.702261,-0.0172 -1.0521209,-0.0517 -0.3498612,-0.0345 -0.6971913,-0.086 -1.0419913,-0.15457 -0.344798,-0.0686 -0.6854057,-0.15388 -1.0218219,-0.25593 -0.3364158,-0.10207 -0.6670204,-0.22037 -0.9918137,-0.35491 -0.3247933,-0.13454 -0.642211,-0.28467 -0.9522538,-0.45039 C 5.364017,193.91051 5.0628424,193.73 4.7705359,193.53468 4.47823,193.33939 4.1961994,193.13022 3.9244449,192.90718 3.6526899,192.68414 3.3925195,192.44833 3.1439335,192.19975 2.8953476,191.95117 2.659543,191.69101 2.4365196,191.41925 2.2134962,191.14751 2.004328,190.86546 1.8090153,190.57315 1.6137025,190.28085 1.4331855,189.97969 1.2674642,189.66965 1.101743,189.3596 0.95161545,189.04218 0.81708163,188.71738 0.68254787,188.39259 0.56425565,188.062 0.46220502,187.72557 0.36015436,187.38916 0.27483666,187.04854 0.20625193,186.70374 0.13766721,186.35896 0.08614571,186.01164 0.05168743,185.66177 0.01722914,185.3119 0,184.9612 0,184.60965 V 10.734061 C 0,10.382507 0.01722914,10.0318 0.05168743,9.6819401 0.08614571,9.3320789 0.13766721,8.9847488 0.20625193,8.6399488 0.27483666,8.2951508 0.36015436,7.9545431 0.46220502,7.6181269 0.56425565,7.2817111 0.68254787,6.9511065 0.81708163,6.6263132 0.95161545,6.3015199 1.101743,5.9841022 1.2674643,5.6740594 1.4331856,5.364017 1.6137026,5.0628424 1.8090154,4.7705359 2.0043283,4.47823 2.2134962,4.1961994 2.4365196,3.9244449 2.659543,3.6526899 2.8953476,3.3925195 3.1439335,3.1439335 3.3925195,2.8953476 3.6526899,2.659543 3.9244447,2.4365196 4.1961994,2.2134962 4.47823,2.004328 4.7705359,1.8090153 5.0628424,1.6137025 5.364017,1.4331855 5.6740599,1.2674642 5.9841022,1.101743 6.3015199,0.95161545 6.6263132,0.81708163 6.9511065,0.68254787 7.2817116,0.56425565 7.6181278,0.46220502 7.9545436,0.36015436 8.2951508,0.27483666 8.6399488,0.20625193 8.9847488,0.13766721 9.3320789,0.08614571 9.6819401,0.05168743 10.0318,0.01722914 10.382507,0 10.734061,0 Z"
                   style="fill:none;stroke:#1a1a1a;stroke-width:1;stroke-linecap:butt;stroke-linejoin:miter;stroke-miterlimit:10;stroke-dasharray:none;stroke-opacity:1"
                   id="path76" />
              </g>
            </g>
          </g>
        </g>
      </g>
    </g>
    <g
       id="g78">
      <g
         id="g80"
         clip-path="url(#clipPath84)">
        <g
           id="g86"
           transform="matrix(6.7622089,0,0,6.763051,81.503799,90.913223)">
          <text
             xml:space="preserve"
             transform="translate(46.211655,10)"
             style="font-variant:normal;font-weight:normal;font-size:10px;font-family:'Noto Sans';-inkscape-font-specification:NotoSans-Regular;writing-mode:lr-tb;fill:#1a1a1a;fill-opacity:1;fill-rule:nonzero;stroke:none"
             id="text90"><tspan
               x="0 6.1799927 11.819992 17.429993 23.579987 26.179977 31.789978 34.36998 36.949982 42.999969 47.799973 53.409973 57.019974 59.599976 65.649963"
               y="0"
               id="tspan88">heap allocation</tspan></text>
        </g>
      </g>
    </g>
    <g
       id="g92">
      <g
         id="g94"
         clip-path="url(#clipPath98)">
        <g
           id="g100"
           clip-path="url(#clipPath104)">
          <g
             id="g106"
             clip-path="url(#clipPath110)">
            <g
               id="g112"
               clip-path="url(#clipPath116)">
              <g
                 id="g118"
                 transform="matrix(6.7622209,0,0,6.763051,63.918095,307.07562)">
                <path
                   d="M 10.734061,0 H 157.36996 c 0.35155,0 0.70226,0.01722914 1.05213,0.05168743 0.34985,0.03445828 0.69717,0.08597978 1.04198,0.1545645 0.3448,0.0685847 0.68539,0.15390243 1.0218,0.25595309 0.33641,0.10205063 0.66702,0.22034285 0.99181,0.35487661 0.32481,0.13453382 0.64224,0.28466137 0.95228,0.45038267 0.31004,0.1657213 0.61121,0.3462383 0.90351,0.5415511 0.29231,0.1953129 0.57435,0.4044808 0.84611,0.6275042 0.27176,0.2230234 0.53192,0.458828 0.7805,0.7074139 0.2486,0.248586 0.48441,0.5087564 0.70742,0.7805112 0.22303,0.2717547 0.43219,0.5537853 0.62748,0.8460912 0.19531,0.2923065 0.37583,0.5934811 0.54155,0.903524 0.16573,0.3100423 0.31586,0.62746 0.45038,0.9522533 0.13454,0.3247933 0.25282,0.6553984 0.35487,0.9918146 0.10207,0.3364158 0.18738,0.677023 0.25596,1.021821 0.0686,0.3448 0.12011,0.6921301 0.15458,1.0419913 0.0345,0.3498599 0.0517,0.7005669 0.0517,1.0521209 V 119.70222 c 0,0.35155 -0.0172,0.70226 -0.0517,1.05211 -0.0345,0.34987 -0.086,0.69719 -0.15459,1.04198 -0.0686,0.34481 -0.1539,0.68542 -0.25595,1.02183 -0.10207,0.33642 -0.22035,0.66702 -0.35489,0.99181 -0.13452,0.3248 -0.28465,0.64222 -0.45038,0.95227 -0.16572,0.31003 -0.34624,0.6112 -0.54155,0.90351 -0.19529,0.2923 -0.40445,0.57434 -0.62748,0.8461 -0.22301,0.27176 -0.45882,0.53193 -0.70742,0.78051 -0.24858,0.24858 -0.50874,0.48439 -0.7805,0.7074 -0.27176,0.22304 -0.5538,0.43221 -0.84611,0.6275 -0.2923,0.19532 -0.59347,0.37583 -0.90351,0.54155 -0.31004,0.16573 -0.62747,0.31584 -0.95228,0.45038 -0.32479,0.13454 -0.6554,0.25284 -0.99181,0.35489 -0.33641,0.10205 -0.677,0.18736 -1.0218,0.25595 -0.34481,0.0686 -0.69213,0.12012 -1.04198,0.15459 -0.34987,0.0344 -0.70058,0.0517 -1.05213,0.0517 H 10.734041 c -0.351554,0 -0.702261,-0.0172 -1.0521209,-0.0517 -0.3498612,-0.0345 -0.6971913,-0.086 -1.0419913,-0.15459 -0.344798,-0.0686 -0.6854057,-0.1539 -1.0218219,-0.25595 -0.3364158,-0.10205 -0.6670204,-0.22035 -0.9918137,-0.35489 -0.3247933,-0.13454 -0.642211,-0.28465 -0.9522538,-0.45036 C 5.364017,129.00308 5.0628424,128.82256 4.7705359,128.62724 4.47823,128.43195 4.1961994,128.22278 3.9244449,127.99975 3.6526899,127.77673 3.3925195,127.54092 3.1439335,127.29234 2.8953476,127.04376 2.659543,126.78359 2.4365196,126.51183 2.2134962,126.24007 2.004328,125.95804 1.8090153,125.66573 1.6137025,125.37343 1.4331855,125.07225 1.2674642,124.76222 1.101743,124.45217 0.95161545,124.13475 0.81708163,123.80995 0.68254787,123.48516 0.56425565,123.15456 0.46220502,122.81814 0.36015436,122.48173 0.27483666,122.14112 0.20625193,121.79631 0.13766721,121.45152 0.08614571,121.1042 0.05168743,120.75433 0.01722914,120.40448 0,120.05377 0,119.70222 V 10.734061 C 0,10.382507 0.01722914,10.0318 0.05168743,9.6819401 0.08614571,9.3320789 0.13766721,8.9847488 0.20625193,8.6399488 0.27483666,8.2951508 0.36015436,7.9545431 0.46220502,7.6181269 0.56425565,7.2817111 0.68254787,6.9511065 0.81708163,6.6263132 0.95161545,6.3015199 1.101743,5.9841022 1.2674643,5.6740594 1.4331856,5.364017 1.6137026,5.0628424 1.8090154,4.7705359 2.0043283,4.47823 2.2134962,4.1961994 2.4365196,3.9244449 2.659543,3.6526899 2.8953476,3.3925195 3.1439335,3.1439335 3.3925195,2.8953476 3.6526899,2.659543 3.9244447,2.4365196 4.1961994,2.2134962 4.47823,2.004328 4.7705359,1.8090153 5.0628424,1.6137025 5.364017,1.4331855 5.6740599,1.2674642 5.9841022,1.101743 6.3015199,0.95161545 6.6263132,0.81708163 6.9511065,0.68254787 7.2817116,0.56425565 7.6181278,0.46220502 7.9545436,0.36015436 8.2951508,0.27483666 8.6399488,0.20625193 8.9847488,0.13766721 9.3320789,0.08614571 9.6819401,0.05168743 10.0318,0.01722914 10.382507,0 10.734061,0 Z"
                   style="fill:#8fd14f;fill-opacity:1;fill-rule:evenodd;stroke:none"
                   id="path120" />
                <path
                   d="M 10.734061,0 H 157.36996 c 0.35155,0 0.70226,0.01722914 1.05213,0.05168743 0.34985,0.03445828 0.69717,0.08597978 1.04198,0.1545645 0.3448,0.0685847 0.68539,0.15390243 1.0218,0.25595309 0.33641,0.10205063 0.66702,0.22034285 0.99181,0.35487661 0.32481,0.13453382 0.64224,0.28466137 0.95228,0.45038267 0.31004,0.1657213 0.61121,0.3462383 0.90351,0.5415511 0.29231,0.1953129 0.57435,0.4044808 0.84611,0.6275042 0.27176,0.2230234 0.53192,0.458828 0.7805,0.7074139 0.2486,0.248586 0.48441,0.5087564 0.70742,0.7805112 0.22303,0.2717547 0.43219,0.5537853 0.62748,0.8460912 0.19531,0.2923065 0.37583,0.5934811 0.54155,0.903524 0.16573,0.3100423 0.31586,0.62746 0.45038,0.9522533 0.13454,0.3247933 0.25282,0.6553984 0.35487,0.9918146 0.10207,0.3364158 0.18738,0.677023 0.25596,1.021821 0.0686,0.3448 0.12011,0.6921301 0.15458,1.0419913 0.0345,0.3498599 0.0517,0.7005669 0.0517,1.0521209 V 119.70222 c 0,0.35155 -0.0172,0.70226 -0.0517,1.05211 -0.0345,0.34987 -0.086,0.69719 -0.15459,1.04198 -0.0686,0.34481 -0.1539,0.68542 -0.25595,1.02183 -0.10207,0.33642 -0.22035,0.66702 -0.35489,0.99181 -0.13452,0.3248 -0.28465,0.64222 -0.45038,0.95227 -0.16572,0.31003 -0.34624,0.6112 -0.54155,0.90351 -0.19529,0.2923 -0.40445,0.57434 -0.62748,0.8461 -0.22301,0.27176 -0.45882,0.53193 -0.70742,0.78051 -0.24858,0.24858 -0.50874,0.48439 -0.7805,0.7074 -0.27176,0.22304 -0.5538,0.43221 -0.84611,0.6275 -0.2923,0.19532 -0.59347,0.37583 -0.90351,0.54155 -0.31004,0.16573 -0.62747,0.31584 -0.95228,0.45038 -0.32479,0.13454 -0.6554,0.25284 -0.99181,0.35489 -0.33641,0.10205 -0.677,0.18736 -1.0218,0.25595 -0.34481,0.0686 -0.69213,0.12012 -1.04198,0.15459 -0.34987,0.0344 -0.70058,0.0517 -1.05213,0.0517 H 10.734041 c -0.351554,0 -0.702261,-0.0172 -1.0521209,-0.0517 -0.3498612,-0.0345 -0.6971913,-0.086 -1.0419913,-0.15459 -0.344798,-0.0686 -0.6854057,-0.1539 -1.0218219,-0.25595 -0.3364158,-0.10205 -0.6670204,-0.22035 -0.9918137,-0.35489 -0.3247933,-0.13454 -0.642211,-0.28465 -0.9522538,-0.45036 C 5.364017,129.00308 5.0628424,128.82256 4.7705359,128.62724 4.47823,128.43195 4.1961994,128.22278 3.9244449,127.99975 3.6526899,127.77673 3.3925195,127.54092 3.1439335,127.29234 2.8953476,127.04376 2.659543,126.78359 2.4365196,126.51183 2.2134962,126.24007 2.004328,125.95804 1.8090153,125.66573 1.6137025,125.37343 1.4331855,125.07225 1.2674642,124.76222 1.101743,124.45217 0.95161545,124.13475 0.81708163,123.80995 0.68254787,123.48516 0.56425565,123.15456 0.46220502,122.81814 0.36015436,122.48173 0.27483666,122.14112 0.20625193,121.79631 0.13766721,121.45152 0.08614571,121.1042 0.05168743,120.75433 0.01722914,120.40448 0,120.05377 0,119.70222 V 10.734061 C 0,10.382507 0.01722914,10.0318 0.05168743,9.6819401 0.08614571,9.3320789 0.13766721,8.9847488 0.20625193,8.6399488 0.27483666,8.2951508 0.36015436,7.9545431 0.46220502,7.6181269 0.56425565,7.2817111 0.68254787,6.9511065 0.81708163,6.6263132 0.95161545,6.3015199 1.101743,5.9841022 1.2674643,5.6740594 1.4331856,5.364017 1.6137026,5.0628424 1.8090154,4.7705359 2.0043283,4.47823 2.2134962,4.1961994 2.4365196,3.9244449 2.659543,3.6526899 2.8953476,3.3925195 3.1439335,3.1439335 3.3925195,2.8953476 3.6526899,2.659543 3.9244447,2.4365196 4.1961994,2.2134962 4.47823,2.004328 4.7705359,1.8090153 5.0628424,1.6137025 5.364017,1.4331855 5.6740599,1.2674642 5.9841022,1.101743 6.3015199,0.95161545 6.6263132,0.81708163 6.9511065,0.68254787 7.2817116,0.56425565 7.6181278,0.46220502 7.9545436,0.36015436 8.2951508,0.27483666 8.6399488,0.20625193 8.9847488,0.13766721 9.3320789,0.08614571 9.6819401,0.05168743 10.0318,0.01722914 10.382507,0 10.734061,0 Z"
                   style="fill:none;stroke:#1a1a1a;stroke-width:1;stroke-linecap:butt;stroke-linejoin:miter;stroke-miterlimit:10;stroke-dasharray:none;stroke-opacity:1"
                   id="path122" />
              </g>
            </g>
          </g>
        </g>
      </g>
    </g>
    <g
       id="g124">
      <g
         id="g126"
         clip-path="url(#clipPath130)">
        <g
           id="g132"
           transform="matrix(6.7622118,0,0,6.763051,108.02053,351.18301)">
          <text
             xml:space="preserve"
             transform="translate(54.760246,10)"
             style="font-variant:normal;font-weight:normal;font-size:10px;font-family:'Noto Sans';-inkscape-font-specification:NotoSans-Regular;writing-mode:lr-tb;fill:#1a1a1a;fill-opacity:1;fill-rule:nonzero;stroke:none"
             id="text136"><tspan
               x="0 4.7899933 10.399994 16.009995 25.359985 28.039978 30.719971 35.799973 41.409973"
               y="0"
               id="tspan134">saam::var</tspan></text>
        </g>
        <g
           id="g138"
           transform="matrix(6.7622209,0,0,6.763051,776.25983,1189.2036)">
          <path
             d="M 158.10982,37.29866 H 8 c -5.3333335,0 -8,-2.666668 -8,-8 V 10.181818"
             style="fill:none;stroke:#333333;stroke-width:1;stroke-linecap:butt;stroke-linejoin:miter;stroke-miterlimit:10;stroke-dasharray:none;stroke-opacity:1"
             id="path140" />
        </g>
        <g
           id="g142"
           transform="matrix(0,-6.763051,6.7622209,0,776.25983,1189.2036)">
          <path
             d="M -12.727273,-7.5454545 0,0 -12.727273,7.5454545 Z"
             style="fill:#333333;fill-opacity:1;fill-rule:nonzero;stroke:none"
             id="path144" />
        </g>
      </g>
    </g>
    <g
       id="g146">
      <g
         id="g148"
         clip-path="url(#clipPath152)">
        <g
           id="g154"
           clip-path="url(#clipPath158)">
          <g
             id="g160"
             clip-path="url(#clipPath164)">
            <g
               id="g166"
               clip-path="url(#clipPath170)">
              <g
                 id="g172"
                 transform="matrix(6.7622209,0,0,6.763051,135.42392,517.55969)">
                <path
                   d="m 10.734061,0 h 52.01246 c 0.351555,0 0.702263,0.01722914 1.05212,0.05168743 0.349858,0.03445828 0.697193,0.08597978 1.041989,0.1545645 0.344802,0.0685847 0.685409,0.15390243 1.02182,0.25595309 0.33641,0.10205063 0.667015,0.22034285 0.991806,0.35487661 0.324798,0.13453382 0.642219,0.28466137 0.952263,0.45038267 0.310035,0.1657213 0.611206,0.3462383 0.903511,0.5415511 0.292312,0.1953129 0.574348,0.4044808 0.846107,0.6275042 0.271751,0.2230234 0.531921,0.458828 0.78051,0.7074139 0.248589,0.248586 0.48439,0.5087564 0.707413,0.7805112 0.22303,0.2717547 0.432197,0.5537853 0.627502,0.8460912 0.195313,0.2923065 0.375832,0.5934811 0.54155,0.903524 0.165726,0.3100423 0.315857,0.62746 0.450386,0.9522533 0.134537,0.3247933 0.25283,0.6553984 0.354881,0.9918146 0.102059,0.3364158 0.187371,0.677023 0.255951,1.021821 0.0686,0.3448 0.120117,0.6921301 0.154572,1.0419913 0.03445,0.3498599 0.05168,0.7005669 0.05168,1.0521209 v 70.696664 c 0,0.351555 -0.01723,0.702263 -0.05168,1.052124 -0.03446,0.349861 -0.08598,0.697189 -0.154579,1.041985 -0.06858,0.344803 -0.153901,0.685409 -0.255951,1.02182 -0.102051,0.336418 -0.220345,0.667015 -0.354882,0.991806 -0.134529,0.324798 -0.284652,0.642219 -0.450378,0.952263 -0.165718,0.310043 -0.346237,0.611213 -0.541557,0.903511 -0.195305,0.292305 -0.404473,0.574341 -0.627495,0.8461 -0.223023,0.271751 -0.458824,0.531921 -0.707413,0.78051 -0.248589,0.248588 -0.508759,0.484397 -0.78051,0.70742 -0.271759,0.223015 -0.553795,0.432182 -0.846107,0.627495 -0.292305,0.19532 -0.593476,0.375839 -0.903511,0.541557 -0.310044,0.165718 -0.627465,0.315849 -0.952263,0.450378 -0.324791,0.13453 -0.655396,0.252823 -0.991806,0.354882 -0.336411,0.10205 -0.677018,0.18737 -1.02182,0.255951 -0.344796,0.06859 -0.692131,0.120109 -1.041989,0.154571 -0.349857,0.03446 -0.700565,0.05169 -1.05212,0.05169 h -52.01246 c -0.351554,0 -0.702261,-0.01723 -1.0521209,-0.05169 C 9.3320789,92.078636 8.9847488,92.027115 8.6399488,91.958519 8.2951508,91.889938 7.9545431,91.804626 7.6181269,91.702576 7.2817111,91.600517 6.9511065,91.482224 6.6263132,91.347694 6.3015199,91.213165 5.9841022,91.063042 5.6740594,90.897324 5.364017,90.731598 5.0628424,90.551079 4.7705359,90.355759 4.47823,90.160446 4.1961994,89.951279 3.9244449,89.728264 3.6526899,89.505241 3.3925195,89.269432 3.1439335,89.020844 2.8953476,88.772255 2.659543,88.512085 2.4365196,88.240334 2.2134962,87.968575 2.004328,87.686539 1.8090153,87.394234 1.6137025,87.101936 1.4331855,86.800766 1.2674642,86.490723 1.101743,86.180679 0.95161545,85.863258 0.81708163,85.53846 0.68254787,85.213669 0.56425565,84.883072 0.46220502,84.546654 0.36015436,84.210243 0.27483666,83.869637 0.20625193,83.524834 0.13766721,83.180038 0.08614571,82.83271 0.05168743,82.482849 0.01722914,82.132988 0,81.78228 0,81.430725 V 10.734061 C 0,10.382507 0.01722914,10.0318 0.05168743,9.6819401 0.08614571,9.3320789 0.13766721,8.9847488 0.20625193,8.6399488 0.27483666,8.2951508 0.36015436,7.9545431 0.46220502,7.6181269 0.56425565,7.2817111 0.68254787,6.9511065 0.81708163,6.6263132 0.95161545,6.3015199 1.101743,5.9841022 1.2674643,5.6740594 1.4331856,5.364017 1.6137026,5.0628424 1.8090154,4.7705359 2.0043283,4.47823 2.2134962,4.1961994 2.4365196,3.9244449 2.659543,3.6526899 2.8953476,3.3925195 3.1439335,3.1439335 3.3925195,2.8953476 3.6526899,2.659543 3.9244447,2.4365196 4.1961994,2.2134962 4.47823,2.004328 4.7705359,1.8090153 5.0628424,1.6137025 5.364017,1.4331855 5.6740599,1.2674642 5.9841022,1.101743 6.3015199,0.95161545 6.6263132,0.81708163 6.9511065,0.68254787 7.2817116,0.56425565 7.6181278,0.46220502 7.9545436,0.36015436 8.2951508,0.27483666 8.6399488,0.20625193 8.9847488,0.13766721 9.3320789,0.08614571 9.6819401,0.05168743 10.0318,0.01722914 10.382507,0 10.734061,0 Z"
                   style="fill:#85cddb;fill-opacity:1;fill-rule:evenodd;stroke:none"
                   id="path174" />
                <path
                   d="m 10.734061,0 h 52.01246 c 0.351555,0 0.702263,0.01722914 1.05212,0.05168743 0.349858,0.03445828 0.697193,0.08597978 1.041989,0.1545645 0.344802,0.0685847 0.685409,0.15390243 1.02182,0.25595309 0.33641,0.10205063 0.667015,0.22034285 0.991806,0.35487661 0.324798,0.13453382 0.642219,0.28466137 0.952263,0.45038267 0.310035,0.1657213 0.611206,0.3462383 0.903511,0.5415511 0.292312,0.1953129 0.574348,0.4044808 0.846107,0.6275042 0.271751,0.2230234 0.531921,0.458828 0.78051,0.7074139 0.248589,0.248586 0.48439,0.5087564 0.707413,0.7805112 0.22303,0.2717547 0.432197,0.5537853 0.627502,0.8460912 0.195313,0.2923065 0.375832,0.5934811 0.54155,0.903524 0.165726,0.3100423 0.315857,0.62746 0.450386,0.9522533 0.134537,0.3247933 0.25283,0.6553984 0.354881,0.9918146 0.102059,0.3364158 0.187371,0.677023 0.255951,1.021821 0.0686,0.3448 0.120117,0.6921301 0.154572,1.0419913 0.03445,0.3498599 0.05168,0.7005669 0.05168,1.0521209 v 70.696664 c 0,0.351555 -0.01723,0.702263 -0.05168,1.052124 -0.03446,0.349861 -0.08598,0.697189 -0.154579,1.041985 -0.06858,0.344803 -0.153901,0.685409 -0.255951,1.02182 -0.102051,0.336418 -0.220345,0.667015 -0.354882,0.991806 -0.134529,0.324798 -0.284652,0.642219 -0.450378,0.952263 -0.165718,0.310043 -0.346237,0.611213 -0.541557,0.903511 -0.195305,0.292305 -0.404473,0.574341 -0.627495,0.8461 -0.223023,0.271751 -0.458824,0.531921 -0.707413,0.78051 -0.248589,0.248588 -0.508759,0.484397 -0.78051,0.70742 -0.271759,0.223015 -0.553795,0.432182 -0.846107,0.627495 -0.292305,0.19532 -0.593476,0.375839 -0.903511,0.541557 -0.310044,0.165718 -0.627465,0.315849 -0.952263,0.450378 -0.324791,0.13453 -0.655396,0.252823 -0.991806,0.354882 -0.336411,0.10205 -0.677018,0.18737 -1.02182,0.255951 -0.344796,0.06859 -0.692131,0.120109 -1.041989,0.154571 -0.349857,0.03446 -0.700565,0.05169 -1.05212,0.05169 h -52.01246 c -0.351554,0 -0.702261,-0.01723 -1.0521209,-0.05169 C 9.3320789,92.078636 8.9847488,92.027115 8.6399488,91.958519 8.2951508,91.889938 7.9545431,91.804626 7.6181269,91.702576 7.2817111,91.600517 6.9511065,91.482224 6.6263132,91.347694 6.3015199,91.213165 5.9841022,91.063042 5.6740594,90.897324 5.364017,90.731598 5.0628424,90.551079 4.7705359,90.355759 4.47823,90.160446 4.1961994,89.951279 3.9244449,89.728264 3.6526899,89.505241 3.3925195,89.269432 3.1439335,89.020844 2.8953476,88.772255 2.659543,88.512085 2.4365196,88.240334 2.2134962,87.968575 2.004328,87.686539 1.8090153,87.394234 1.6137025,87.101936 1.4331855,86.800766 1.2674642,86.490723 1.101743,86.180679 0.95161545,85.863258 0.81708163,85.53846 0.68254787,85.213669 0.56425565,84.883072 0.46220502,84.546654 0.36015436,84.210243 0.27483666,83.869637 0.20625193,83.524834 0.13766721,83.180038 0.08614571,82.83271 0.05168743,82.482849 0.01722914,82.132988 0,81.78228 0,81.430725 V 10.734061 C 0,10.382507 0.01722914,10.0318 0.05168743,9.6819401 0.08614571,9.3320789 0.13766721,8.9847488 0.20625193,8.6399488 0.27483666,8.2951508 0.36015436,7.9545431 0.46220502,7.6181269 0.56425565,7.2817111 0.68254787,6.9511065 0.81708163,6.6263132 0.95161545,6.3015199 1.101743,5.9841022 1.2674643,5.6740594 1.4331856,5.364017 1.6137026,5.0628424 1.8090154,4.7705359 2.0043283,4.47823 2.2134962,4.1961994 2.4365196,3.9244449 2.659543,3.6526899 2.8953476,3.3925195 3.1439335,3.1439335 3.3925195,2.8953476 3.6526899,2.659543 3.9244447,2.4365196 4.1961994,2.2134962 4.47823,2.004328 4.7705359,1.8090153 5.0628424,1.6137025 5.364017,1.4331855 5.6740599,1.2674642 5.9841022,1.101743 6.3015199,0.95161545 6.6263132,0.81708163 6.9511065,0.68254787 7.2817116,0.56425565 7.6181278,0.46220502 7.9545436,0.36015436 8.2951508,0.27483666 8.6399488,0.20625193 8.9847488,0.13766721 9.3320789,0.08614571 9.6819401,0.05168743 10.0318,0.01722914 10.382507,0 10.734061,0 Z"
                   style="fill:none;stroke:#1a1a1a;stroke-width:1;stroke-linecap:butt;stroke-linejoin:miter;stroke-miterlimit:10;stroke-dasharray:none;stroke-opacity:1"
                   id="path176" />
              </g>
            </g>
          </g>
        </g>
      </g>
    </g>
    <g
       id="g178">
      <g
         id="g180"
         clip-path="url(#clipPath184)">
        <g
           id="g186"
           transform="matrix(6.7622099,0,0,6.763051,160.26874,542.40729)">
          <text
             xml:space="preserve"
             transform="translate(18.651291,45.408363)"
             style="font-variant:normal;font-weight:normal;font-size:10px;font-family:'Noto Sans';-inkscape-font-specification:NotoSans-Regular;writing-mode:lr-tb;fill:#1a1a1a;fill-opacity:1;fill-rule:nonzero;stroke:none"
             id="text190"><tspan
               x="0 6.0499878 12.199982 14.779984 20.419983 25.219986"
               y="0"
               id="tspan188">object</tspan></text>
        </g>
      </g>
    </g>
    <g
       id="g192">
      <g
         id="g194"
         clip-path="url(#clipPath198)">
        <g
           id="g200"
           clip-path="url(#clipPath204)">
          <g
             id="g206"
             clip-path="url(#clipPath210)">
            <g
               id="g212"
               clip-path="url(#clipPath216)">
              <g
                 id="g218"
                 transform="matrix(6.7622209,0,0,6.763051,657.51019,517.55969)">
                <path
                   d="m 10.734061,0 h 52.01246 c 0.351555,0 0.702263,0.01722914 1.05212,0.05168743 0.349858,0.03445828 0.697193,0.08597978 1.041989,0.1545645 0.344802,0.0685847 0.685409,0.15390243 1.02182,0.25595309 0.33641,0.10205063 0.667015,0.22034285 0.991806,0.35487661 0.324798,0.13453382 0.642219,0.28466137 0.952263,0.45038267 0.310035,0.1657213 0.611206,0.3462383 0.903511,0.5415511 0.292312,0.1953129 0.574348,0.4044808 0.846107,0.6275042 0.271751,0.2230234 0.531921,0.458828 0.78051,0.7074139 0.248589,0.248586 0.48439,0.5087564 0.707413,0.7805112 0.22303,0.2717547 0.432197,0.5537853 0.627502,0.8460912 0.195313,0.2923065 0.375832,0.5934811 0.54155,0.903524 0.165726,0.3100423 0.315857,0.62746 0.450386,0.9522533 0.134537,0.3247933 0.25283,0.6553984 0.354881,0.9918146 0.102059,0.3364158 0.187371,0.677023 0.255951,1.021821 0.0686,0.3448 0.120117,0.6921301 0.154572,1.0419913 0.03445,0.3498599 0.05168,0.7005669 0.05168,1.0521209 v 29.455854 c 0,0.351551 -0.01723,0.702259 -0.05168,1.05212 -0.03446,0.349865 -0.08598,0.697193 -0.154579,1.041988 -0.06858,0.344799 -0.153901,0.685406 -0.255951,1.02182 -0.102051,0.336419 -0.220345,0.667023 -0.354882,0.991814 -0.134529,0.324799 -0.284652,0.64222 -0.450378,0.952259 -0.165718,0.310043 -0.346237,0.611218 -0.541557,0.903523 -0.195305,0.292308 -0.404473,0.574337 -0.627495,0.846092 -0.223023,0.271755 -0.458824,0.531925 -0.707413,0.78051 -0.248589,0.248584 -0.508759,0.48439 -0.78051,0.707416 -0.271759,0.223019 -0.553795,0.432186 -0.846107,0.627495 -0.292305,0.195316 -0.593476,0.375832 -0.903511,0.541554 -0.310044,0.165721 -0.627465,0.315849 -0.952263,0.450382 -0.324791,0.134533 -0.655396,0.25283 -0.991806,0.354885 -0.336411,0.102047 -0.677018,0.187366 -1.02182,0.255951 -0.344796,0.06858 -0.692131,0.120109 -1.041989,0.154568 -0.349857,0.03446 -0.700565,0.05168 -1.05212,0.05168 h -52.01246 c -0.351554,0 -0.702261,-0.01723 -1.0521209,-0.05169 C 9.3320789,50.83783 8.9847488,50.786308 8.6399488,50.71772 8.2951508,50.649136 7.9545431,50.56382 7.6181269,50.461769 7.2817111,50.359715 6.9511065,50.241421 6.6263132,50.106888 6.3015199,49.972355 5.9841022,49.822227 5.6740594,49.656506 5.364017,49.490788 5.0628424,49.310272 4.7705359,49.114956 4.47823,48.919647 4.1961994,48.71048 3.9244449,48.487457 3.6526899,48.264431 3.3925195,48.028625 3.1439335,47.780041 2.8953476,47.531456 2.659543,47.271286 2.4365196,46.999531 2.2134962,46.727776 2.004328,46.445747 1.8090153,46.153439 1.6137025,45.861134 1.4331855,45.559959 1.2674642,45.249916 1.101743,44.939877 0.95161545,44.622456 0.81708163,44.297657 0.68254787,43.972866 0.56425565,43.642262 0.46220502,43.305847 0.36015436,42.969433 0.27483666,42.628822 0.20625193,42.284023 0.13766721,41.939228 0.08614571,41.5919 0.05168743,41.242035 0.01722914,40.892174 0,40.541466 0,40.189915 V 10.734061 C 0,10.382507 0.01722914,10.0318 0.05168743,9.6819401 0.08614571,9.3320789 0.13766721,8.9847488 0.20625193,8.6399488 0.27483666,8.2951508 0.36015436,7.9545431 0.46220502,7.6181269 0.56425565,7.2817111 0.68254787,6.9511065 0.81708163,6.6263132 0.95161545,6.3015199 1.101743,5.9841022 1.2674643,5.6740594 1.4331856,5.364017 1.6137026,5.0628424 1.8090154,4.7705359 2.0043283,4.47823 2.2134962,4.1961994 2.4365196,3.9244449 2.659543,3.6526899 2.8953476,3.3925195 3.1439335,3.1439335 3.3925195,2.8953476 3.6526899,2.659543 3.9244447,2.4365196 4.1961994,2.2134962 4.47823,2.004328 4.7705359,1.8090153 5.0628424,1.6137025 5.364017,1.4331855 5.6740599,1.2674642 5.9841022,1.101743 6.3015199,0.95161545 6.6263132,0.81708163 6.9511065,0.68254787 7.2817116,0.56425565 7.6181278,0.46220502 7.9545436,0.36015436 8.2951508,0.27483666 8.6399488,0.20625193 8.9847488,0.13766721 9.3320789,0.08614571 9.6819401,0.05168743 10.0318,0.01722914 10.382507,0 10.734061,0 Z"
                   style="fill:none;stroke:#1a1a1a;stroke-width:1;stroke-linecap:butt;stroke-linejoin:miter;stroke-miterlimit:10;stroke-dasharray:none;stroke-opacity:1"
                   id="path220" />
              </g>
            </g>
          </g>
        </g>
      </g>
    </g>
    <g
       id="g222">
      <g
         id="g224"
         clip-path="url(#clipPath228)">
        <g
           id="g230"
           transform="matrix(6.762219,0,0,6.763051,674.72815,534.77972)">
          <text
             xml:space="preserve"
             transform="translate(6.2891383,11.91579)"
             style="font-variant:normal;font-weight:normal;font-size:10px;font-family:'Noto Sans';-inkscape-font-specification:NotoSans-Regular;writing-mode:lr-tb;fill:#1a1a1a;fill-opacity:1;fill-rule:nonzero;stroke:none"
             id="text234"><tspan
               x="0 6.1799927 12.22998 18.409973 21.009964 26.859955 34.71994 40.899933 43.479935 49.659927"
               y="0"
               id="tspan232">non owning</tspan></text>
        </g>
        <g
           id="g236"
           transform="matrix(6.7622166,0,0,6.763051,674.72821,534.77972)">
          <text
             xml:space="preserve"
             transform="translate(11.774117,25.915791)"
             style="font-variant:normal;font-weight:normal;font-size:10px;font-family:'Noto Sans';-inkscape-font-specification:NotoSans-Regular;writing-mode:lr-tb;fill:#1a1a1a;fill-opacity:1;fill-rule:nonzero;stroke:none"
             id="text240"><tspan
               x="0 3.9299927 9.5699921 13.009995 18.649994 22.579987 28.219986 34.399979 39.199982"
               y="0"
               id="tspan238">reference</tspan></text>
        </g>
        <g
           id="g242"
           transform="matrix(6.7622161,0,0,6.763051,674.72815,534.77972)">
          <text
             xml:space="preserve"
             transform="translate(2.5341334,39.915791)"
             style="font-variant:normal;font-weight:normal;font-size:10px;font-family:'Noto Sans';-inkscape-font-specification:NotoSans-Regular;writing-mode:lr-tb;fill:#1a1a1a;fill-opacity:1;fill-rule:nonzero;stroke:none"
             id="text246"><tspan
               x="0 9.3499908 14.959991 21.139984 26.749985 32.899979 38.539978 47.889969 53.529968 59.709961"
               y="0"
               id="tspan244">management</tspan></text>
        </g>
        <g
           id="g248"
           transform="matrix(6.7622209,0,0,6.763051,632.3114,1013.6025)">
          <path
             d="M 179.39615,0.46684378 C 111.71016,0.46684378 77.867805,0 10.181818,0"
             style="fill:none;stroke:#333333;stroke-width:1;stroke-linecap:butt;stroke-linejoin:miter;stroke-miterlimit:10;stroke-dasharray:none;stroke-opacity:1"
             id="path250" />
        </g>
        <g
           id="g252"
           transform="matrix(-6.7622209,0,0,-6.763051,632.3114,1013.6025)">
          <path
             d="M -12.727273,-7.5454545 0,0 -12.727273,7.5454545 Z"
             style="fill:#333333;fill-opacity:1;fill-rule:nonzero;stroke:none"
             id="path254" />
        </g>
      </g>
    </g>
    <g
       id="g256">
      <g
         id="g258"
         clip-path="url(#clipPath262)">
        <g
           id="g264"
           clip-path="url(#clipPath268)">
          <g
             id="g270"
             clip-path="url(#clipPath274)">
            <g
               id="g276"
               clip-path="url(#clipPath280)">
              <g
                 id="g282"
                 transform="matrix(6.7622209,0,0,6.763051,1845.4126,892.62097)">
                <path
                   d="m 10.734061,0 h 90.697999 c 0.35156,0 0.70226,0.01722914 1.05212,0.05168743 0.34986,0.03445828 0.69719,0.08597978 1.04198,0.1545645 0.3448,0.0685847 0.68541,0.15390243 1.02182,0.25595309 0.33642,0.10205063 0.66702,0.22034285 0.99181,0.35487661 0.3248,0.13453382 0.64222,0.28466137 0.95227,0.45038267 0.31004,0.1657213 0.61121,0.3462383 0.90352,0.5415511 0.29231,0.1953129 0.57435,0.4044808 0.8461,0.6275042 0.27176,0.2230234 0.53193,0.458828 0.78051,0.7074139 0.24858,0.248586 0.48439,0.5087564 0.70742,0.7805112 0.22301,0.2717547 0.43218,0.5537853 0.62749,0.8460912 0.19532,0.2923065 0.37584,0.5934811 0.54156,0.903524 0.16572,0.3100423 0.31584,0.62746 0.45037,0.9522533 0.13454,0.3247933 0.25283,0.6553984 0.35488,0.9918146 0.10206,0.3364158 0.18738,0.677023 0.25596,1.021821 0.0686,0.3448 0.12012,0.6921301 0.15458,1.0419913 0.0345,0.3498599 0.0517,0.7005669 0.0517,1.0521209 v 15.236108 c 1e-5,0.351555 -0.0172,0.702263 -0.0517,1.052122 -0.0345,0.349859 -0.086,0.69719 -0.15458,1.041987 -0.0686,0.344799 -0.1539,0.685405 -0.25595,1.021822 -0.10205,0.336416 -0.22034,0.66702 -0.35488,0.991813 -0.13453,0.324795 -0.28465,0.642214 -0.45036,0.952257 -0.16573,0.310042 -0.34625,0.611216 -0.54157,0.903519 -0.19531,0.292309 -0.40448,0.574341 -0.62749,0.846092 -0.22303,0.271759 -0.45884,0.531929 -0.70742,0.780514 -0.24858,0.248585 -0.50875,0.48439 -0.78051,0.707417 -0.27175,0.223026 -0.55379,0.432193 -0.8461,0.627502 -0.29231,0.195316 -0.59348,0.375832 -0.90352,0.54155 -0.31005,0.165722 -0.62747,0.315853 -0.95227,0.450386 -0.32479,0.134533 -0.65539,0.252827 -0.99181,0.354881 -0.33641,0.102047 -0.67702,0.187363 -1.02181,0.255947 -0.3448,0.06858 -0.69212,0.12011 -1.04199,0.154568 -0.34986,0.03446 -0.70056,0.05168 -1.05212,0.05168 H 10.734071 c -0.351554,0 -0.702261,-0.01723 -1.0521209,-0.05168 C 9.3320789,36.618088 8.9847488,36.566563 8.6399488,36.497974 8.2951508,36.42939 7.9545431,36.344074 7.6181269,36.242027 7.2817111,36.139977 6.9511065,36.021683 6.6263132,35.88715 6.3015199,35.752617 5.9841022,35.602489 5.6740594,35.436768 5.364017,35.271046 5.0628424,35.090527 4.7705359,34.89521 4.47823,34.699902 4.1961994,34.490734 3.9244449,34.267712 3.6526899,34.044685 3.3925195,33.80888 3.1439335,33.560295 2.8953476,33.31171 2.659543,33.05154 2.4365196,32.779785 2.2134962,32.50803 2.004328,32.225998 1.8090153,31.933689 1.6137025,31.641386 1.4331855,31.340212 1.2674642,31.030169 1.101743,30.720127 0.95161545,30.402708 0.81708163,30.077913 0.68254787,29.75312 0.56425565,29.422516 0.46220502,29.0861 0.36015436,28.749683 0.27483666,28.409077 0.20625193,28.064278 0.13766721,27.719481 0.08614571,27.37215 0.05168743,27.022291 0.01722914,26.672432 0,26.321724 0,25.970169 V 10.734061 C 0,10.382507 0.01722914,10.0318 0.05168743,9.6819401 0.08614571,9.3320789 0.13766721,8.9847488 0.20625193,8.6399488 0.27483666,8.2951508 0.36015436,7.9545431 0.46220502,7.6181269 0.56425565,7.2817111 0.68254787,6.9511065 0.81708163,6.6263132 0.95161545,6.3015199 1.101743,5.9841022 1.2674643,5.6740594 1.4331856,5.364017 1.6137026,5.0628424 1.8090154,4.7705359 2.0043283,4.47823 2.2134962,4.1961994 2.4365196,3.9244449 2.659543,3.6526899 2.8953476,3.3925195 3.1439335,3.1439335 3.3925195,2.8953476 3.6526899,2.659543 3.9244447,2.4365196 4.1961994,2.2134962 4.47823,2.004328 4.7705359,1.8090153 5.0628424,1.6137025 5.364017,1.4331855 5.6740599,1.2674642 5.9841022,1.101743 6.3015199,0.95161545 6.6263132,0.81708163 6.9511065,0.68254787 7.2817116,0.56425565 7.6181278,0.46220502 7.9545436,0.36015436 8.2951508,0.27483666 8.6399488,0.20625193 8.9847488,0.13766721 9.3320789,0.08614571 9.6819401,0.05168743 10.0318,0.01722914 10.382507,0 10.734061,0 Z"
                   style="fill:none;stroke:#1a1a1a;stroke-width:1;stroke-linecap:butt;stroke-linejoin:miter;stroke-miterlimit:10;stroke-dasharray:none;stroke-opacity:1"
                   id="path284" />
              </g>
            </g>
          </g>
        </g>
      </g>
    </g>
    <g
       id="g286">
      <g
         id="g288"
         clip-path="url(#clipPath292)">
        <g
           id="g294"
           transform="matrix(6.7622137,0,0,6.763051,1857.8229,905.03265)">
          <text
             xml:space="preserve"
             transform="translate(32.382893,12.516905)"
             style="font-variant:normal;font-weight:normal;font-size:10px;font-family:'Noto Sans';-inkscape-font-specification:NotoSans-Regular;writing-mode:lr-tb;fill:#1a1a1a;fill-opacity:1;fill-rule:nonzero;stroke:none"
             id="text298"><tspan
               x="0 4.7899933 10.399994 16.009995 25.359985 28.039978 30.719971 34.649963 40.289963"
               y="0"
               id="tspan296">saam::ref</tspan></text>
        </g>
        <g
           id="g300"
           transform="matrix(6.7622142,0,0,6.763051,1857.8226,905.03265)">
          <text
             xml:space="preserve"
             transform="translate(7.0979409,26.516905)"
             style="font-variant:normal;font-weight:normal;font-size:10px;font-family:'Noto Sans';-inkscape-font-specification:NotoSans-Regular;writing-mode:lr-tb;fill:#1a1a1a;fill-opacity:1;fill-rule:nonzero;stroke:none"
             id="text304"><tspan
               x="0 5.7200012 11.440002 17.619995 23.669983 29.849976 32.449966 38.299957 46.159943 52.339935 54.919937 61.09993 67.249924 69.849915 73.779907 79.419907 82.859909 88.57991"
               y="0"
               id="tspan302">&lt;&lt;non owning ref&gt;&gt;</tspan></text>
        </g>
      </g>
    </g>
    <g
       id="g306">
      <g
         id="g308"
         clip-path="url(#clipPath312)">
        <g
           id="g314"
           clip-path="url(#clipPath318)">
          <g
             id="g320"
             clip-path="url(#clipPath324)">
            <g
               id="g326"
               clip-path="url(#clipPath330)">
              <g
                 id="g332"
                 transform="matrix(6.7622209,0,0,6.763051,1845.4126,1317.3366)">
                <path
                   d="m 10.734061,0 h 90.697999 c 0.35156,0 0.70226,0.01722914 1.05212,0.05168743 0.34986,0.03445828 0.69719,0.08597978 1.04198,0.1545645 0.3448,0.0685847 0.68541,0.15390243 1.02182,0.25595309 0.33642,0.10205063 0.66702,0.22034285 0.99181,0.35487661 0.3248,0.13453382 0.64222,0.28466137 0.95227,0.45038267 0.31004,0.1657213 0.61121,0.3462383 0.90352,0.5415511 0.29231,0.1953129 0.57435,0.4044808 0.8461,0.6275042 0.27176,0.2230234 0.53193,0.458828 0.78051,0.7074139 0.24858,0.248586 0.48439,0.5087564 0.70742,0.7805112 0.22301,0.2717547 0.43218,0.5537853 0.62749,0.8460912 0.19532,0.2923065 0.37584,0.5934811 0.54156,0.903524 0.16572,0.3100423 0.31584,0.62746 0.45037,0.9522533 0.13454,0.3247933 0.25283,0.6553984 0.35488,0.9918146 0.10206,0.3364158 0.18738,0.677023 0.25596,1.021821 0.0686,0.3448 0.12012,0.6921301 0.15458,1.0419913 0.0345,0.3498599 0.0517,0.7005669 0.0517,1.0521209 v 15.236108 c 1e-5,0.351555 -0.0172,0.702263 -0.0517,1.052122 -0.0345,0.349859 -0.086,0.69719 -0.15458,1.041987 -0.0686,0.344799 -0.1539,0.685405 -0.25595,1.021822 -0.10205,0.336416 -0.22034,0.66702 -0.35488,0.991813 -0.13453,0.324795 -0.28465,0.642214 -0.45036,0.952257 -0.16573,0.310042 -0.34625,0.611216 -0.54157,0.903519 -0.19531,0.292309 -0.40448,0.574341 -0.62749,0.846092 -0.22303,0.271759 -0.45884,0.531929 -0.70742,0.780514 -0.24858,0.248585 -0.50875,0.48439 -0.78051,0.707417 -0.27175,0.223026 -0.55379,0.432193 -0.8461,0.627502 -0.29231,0.195316 -0.59348,0.375832 -0.90352,0.54155 -0.31005,0.165722 -0.62747,0.315853 -0.95227,0.450386 -0.32479,0.134533 -0.65539,0.252827 -0.99181,0.354881 -0.33641,0.102047 -0.67702,0.187363 -1.02181,0.255947 -0.3448,0.06858 -0.69212,0.12011 -1.04199,0.154568 -0.34986,0.03446 -0.70056,0.05168 -1.05212,0.05168 H 10.734071 c -0.351554,0 -0.702261,-0.01723 -1.0521209,-0.05168 C 9.3320789,36.618088 8.9847488,36.566563 8.6399488,36.497974 8.2951508,36.42939 7.9545431,36.344074 7.6181269,36.242027 7.2817111,36.139977 6.9511065,36.021683 6.6263132,35.88715 6.3015199,35.752617 5.9841022,35.602489 5.6740594,35.436768 5.364017,35.271046 5.0628424,35.090527 4.7705359,34.89521 4.47823,34.699902 4.1961994,34.490734 3.9244449,34.267712 3.6526899,34.044685 3.3925195,33.80888 3.1439335,33.560295 2.8953476,33.31171 2.659543,33.05154 2.4365196,32.779785 2.2134962,32.50803 2.004328,32.225998 1.8090153,31.933689 1.6137025,31.641386 1.4331855,31.340212 1.2674642,31.030169 1.101743,30.720127 0.95161545,30.402708 0.81708163,30.077913 0.68254787,29.75312 0.56425565,29.422516 0.46220502,29.0861 0.36015436,28.749683 0.27483666,28.409077 0.20625193,28.064278 0.13766721,27.719481 0.08614571,27.37215 0.05168743,27.022291 0.01722914,26.672432 0,26.321724 0,25.970169 V 10.734061 C 0,10.382507 0.01722914,10.0318 0.05168743,9.6819401 0.08614571,9.3320789 0.13766721,8.9847488 0.20625193,8.6399488 0.27483666,8.2951508 0.36015436,7.9545431 0.46220502,7.6181269 0.56425565,7.2817111 0.68254787,6.9511065 0.81708163,6.6263132 0.95161545,6.3015199 1.101743,5.9841022 1.2674643,5.6740594 1.4331856,5.364017 1.6137026,5.0628424 1.8090154,4.7705359 2.0043283,4.47823 2.2134962,4.1961994 2.4365196,3.9244449 2.659543,3.6526899 2.8953476,3.3925195 3.1439335,3.1439335 3.3925195,2.8953476 3.6526899,2.659543 3.9244447,2.4365196 4.1961994,2.2134962 4.47823,2.004328 4.7705359,1.8090153 5.0628424,1.6137025 5.364017,1.4331855 5.6740599,1.2674642 5.9841022,1.101743 6.3015199,0.95161545 6.6263132,0.81708163 6.9511065,0.68254787 7.2817116,0.56425565 7.6181278,0.46220502 7.9545436,0.36015436 8.2951508,0.27483666 8.6399488,0.20625193 8.9847488,0.13766721 9.3320789,0.08614571 9.6819401,0.05168743 10.0318,0.01722914 10.382507,0 10.734061,0 Z"
                   style="fill:none;stroke:#1a1a1a;stroke-width:1;stroke-linecap:butt;stroke-linejoin:miter;stroke-miterlimit:10;stroke-dasharray:none;stroke-opacity:1"
                   id="path334" />
              </g>
            </g>
          </g>
        </g>
      </g>
    </g>
    <g
       id="g336">
      <g
         id="g338"
         clip-path="url(#clipPath342)">
        <g
           id="g344"
           transform="matrix(6.7622151,0,0,6.763051,1857.8228,1329.7483)">
          <text
             xml:space="preserve"
             transform="translate(18.672915,12.516905)"
             style="font-variant:normal;font-weight:normal;font-size:10px;font-family:'Noto Sans';-inkscape-font-specification:NotoSans-Regular;writing-mode:lr-tb;fill:#1a1a1a;fill-opacity:1;fill-rule:nonzero;stroke:none"
             id="text348"><tspan
               x="0 4.7899933 8.3999939 14.549988 17.22998 19.909973 26.089966 32.269958 34.84996 40.999954 47.179947 52.819946 57.259949 63.409943 67.019943"
               y="0"
               id="tspan346">std::unique_ptr</tspan></text>
        </g>
        <g
           id="g350"
           transform="matrix(6.7622123,0,0,6.763051,1857.8228,1329.7483)">
          <text
             xml:space="preserve"
             transform="translate(17.602922,26.516905)"
             style="font-variant:normal;font-weight:normal;font-size:10px;font-family:'Noto Sans';-inkscape-font-specification:NotoSans-Regular;writing-mode:lr-tb;fill:#1a1a1a;fill-opacity:1;fill-rule:nonzero;stroke:none"
             id="text354"><tspan
               x="0 5.7200012 11.440002 17.289993 25.149979 31.329971 33.909973 40.089966 46.23996 48.839951 52.769943 58.409943 61.849945 67.569946"
               y="0"
               id="tspan352">&lt;&lt;owning ref&gt;&gt;</tspan></text>
        </g>
        <g
           id="g356"
           transform="matrix(6.7622209,0,0,6.763051,1154.3977,689.75684)">
          <path
             d="M 158.27234,30 V 8 c 0,-5.3333335 -2.66667,-8 -8,-8 H 94.136894 c -4.8e-4,0 -7.25e-4,2.3913974e-4 -7.25e-4,7.1741926e-4 0,4.7828074e-4 -2.36e-4,7.1742074e-4 -7.17e-4,7.1742074e-4 H 10.181818"
             style="fill:none;stroke:#333333;stroke-width:1;stroke-linecap:butt;stroke-linejoin:miter;stroke-miterlimit:10;stroke-dasharray:none;stroke-opacity:1"
             id="path358" />
        </g>
        <g
           id="g360"
           transform="matrix(-6.7622209,0,0,-6.763051,1154.3977,689.76654)">
          <path
             d="M -12.727273,-7.5454545 0,0 -12.727273,7.5454545 Z"
             style="fill:#333333;fill-opacity:1;fill-rule:nonzero;stroke:none"
             id="path362" />
        </g>
      </g>
    </g>
  </g>
</svg>
