<?xml version="1.0" encoding="UTF-8" standalone="no"?>
<!-- Created with Inkscape (http://www.inkscape.org/) -->

<svg
   version="1.1"
   id="svg2"
   width="841.27997"
   height="552"
   viewBox="0 0 841.27997 552"
   xmlns="http://www.w3.org/2000/svg"
   xmlns:svg="http://www.w3.org/2000/svg">
  <defs
     id="defs6">
    <clipPath
       clipPathUnits="userSpaceOnUse"
       id="clipPath16">
      <path
         d="M 0,0 H 2629.1665 V 1723.634 H 0 Z"
         clip-rule="evenodd"
         id="path14" />
    </clipPath>
    <clipPath
       clipPathUnits="userSpaceOnUse"
       id="clipPath28">
      <path
         d="M 0,0 H 2629.1665 V 1723.634 H 0 Z"
         clip-rule="evenodd"
         id="path26" />
    </clipPath>
    <clipPath
       clipPathUnits="userSpaceOnUse"
       id="clipPath40">
      <path
         d="M 0,0 H 2629.1665 V 1723.634 H 0 Z"
         clip-rule="evenodd"
         id="path38" />
    </clipPath>
    <clipPath
       clipPathUnits="userSpaceOnUse"
       id="clipPath52">
      <path
         d="M 0,0 H 2629.1665 V 1723.634 H 0 Z"
         id="path50" />
    </clipPath>
    <clipPath
       clipPathUnits="userSpaceOnUse"
       id="clipPath58">
      <path
         d="M 0,0 H 2629.1665 V 1729.8792 H 0 Z"
         id="path56" />
    </clipPath>
    <clipPath
       clipPathUnits="userSpaceOnUse"
       id="clipPath64">
      <path
         d="M 30.13237,40.739567 H 1238.9048 V 887.04591 H 30.13237 Z"
         id="path62" />
    </clipPath>
    <clipPath
       clipPathUnits="userSpaceOnUse"
       id="clipPath70">
      <path
         d="M 30.13237,809.81995 V 117.96553 c -2e-6,-5.07073 0.494358,-10.09275 1.483076,-15.06605 0.988718,-4.973294 2.452803,-9.802312 4.392244,-14.487058 1.939442,-4.684746 4.316983,-9.135193 7.132622,-13.351349 2.81564,-4.216156 6.01527,-8.117004 9.598896,-11.702549 3.583622,-3.585548 7.482384,-6.786895 11.696278,-9.604042 4.213898,-2.817142 8.661964,-5.195957 13.344192,-7.136444 4.682228,-1.940483 9.50866,-3.40535 14.479294,-4.3946 4.970635,-0.989246 9.989958,-1.483871 15.057978,-1.483871 H 1161.7202 c 5.068,0 10.0873,0.494625 15.0579,1.483875 4.9706,0.989246 9.7971,2.454113 14.4794,4.394596 4.6822,1.940487 9.1302,4.319302 13.3441,7.136444 4.214,2.817147 8.1128,6.018494 11.6964,9.604042 3.5836,3.585545 6.7832,7.486393 9.5987,11.702549 2.8157,4.216156 5.1933,8.666603 7.1327,13.351349 1.9394,4.684746 3.4035,9.513764 4.3922,14.487058 0.9888,4.9733 1.4832,9.99532 1.4832,15.06605 v 691.85442 c 0,5.07068 -0.4944,10.09265 -1.4832,15.06598 -0.9887,4.97326 -2.4528,9.80224 -4.3922,14.48699 -1.9394,4.68476 -4.317,9.1352 -7.1327,13.35132 -2.8155,4.21619 -6.0151,8.11707 -9.5987,11.70264 -3.5836,3.58551 -7.4824,6.7868 -11.6964,9.60394 -4.2139,2.81708 -8.6619,5.19593 -13.3441,7.13642 -4.6823,1.94049 -9.5088,3.40539 -14.4794,4.39465 -4.9706,0.98932 -9.9899,1.48395 -15.0579,1.48401 H 107.31695 c -5.06802,-6e-5 -10.087351,-0.49469 -15.057985,-1.48401 -4.970627,-0.98926 -9.797059,-2.45416 -14.479287,-4.39465 -4.682228,-1.94056 -9.130294,-4.3194 -13.344192,-7.13648 -4.213894,-2.81714 -8.112656,-6.01843 -11.696278,-9.60394 -3.583626,-3.58557 -6.783256,-7.48645 -9.598896,-11.70258 -2.815639,-4.21612 -5.19318,-8.66656 -7.132622,-13.35132 -1.939441,-4.68475 -3.403526,-9.51373 -4.392244,-14.48699 -0.988718,-4.97333 -1.483078,-9.9953 -1.483076,-15.06598 z"
         id="path68" />
    </clipPath>
    <clipPath
       clipPathUnits="userSpaceOnUse"
       id="clipPath84">
      <path
         d="M 0,0 H 2629.1665 V 1723.634 H 0 Z"
         clip-rule="evenodd"
         id="path82" />
    </clipPath>
    <clipPath
       clipPathUnits="userSpaceOnUse"
       id="clipPath98">
      <path
         d="M 0,0 H 2629.1665 V 1723.634 H 0 Z"
         id="path96" />
    </clipPath>
    <clipPath
       clipPathUnits="userSpaceOnUse"
       id="clipPath104">
      <path
         d="M 0,0 H 2629.1665 V 1729.8792 H 0 Z"
         id="path102" />
    </clipPath>
    <clipPath
       clipPathUnits="userSpaceOnUse"
       id="clipPath110">
      <path
         d="M 106.13464,263.68246 H 634.50573 V 835.61007 H 106.13464 Z"
         id="path108" />
    </clipPath>
    <clipPath
       clipPathUnits="userSpaceOnUse"
       id="clipPath116">
      <path
         d="M 106.13464,758.38416 V 340.90842 c 0,-5.07074 0.49435,-10.09278 1.48307,-15.06607 0.98872,-4.9733 2.4528,-9.80231 4.39225,-14.48706 1.93943,-4.68473 4.31697,-9.13517 7.13261,-13.35132 2.81564,-4.21616 6.01527,-8.11701 9.5989,-11.70255 3.58363,-3.58554 7.48239,-6.78689 11.69627,-9.60406 4.2139,-2.81714 8.66196,-5.19596 13.3442,-7.13645 4.68223,-1.94049 9.50866,-3.40536 14.47931,-4.39459 4.97062,-0.98923 9.98996,-1.48386 15.05796,-1.48386 h 374.00196 c 5.06799,0 10.08728,0.49463 15.05792,1.48386 4.97064,0.98923 9.79712,2.4541 14.47931,4.39459 4.68225,1.94049 9.13031,4.31931 13.34418,7.13645 4.21386,2.81717 8.11261,6.01852 11.69622,9.60406 3.58362,3.58554 6.78327,7.48639 9.59888,11.70255 2.81567,4.21615 5.19324,8.66659 7.13269,13.35132 1.93945,4.68475 3.4035,9.51379 4.39221,14.48709 0.98871,4.97329 1.4831,9.9953 1.48316,15.06604 v 417.47574 c -6e-5,5.07074 -0.49445,10.09271 -1.48316,15.06591 -0.98871,4.97333 -2.45276,9.80231 -4.39221,14.48706 -1.93945,4.68476 -4.31702,9.1352 -7.13269,13.35132 -2.81561,4.21625 -6.01526,8.11713 -9.59888,11.70264 -3.58361,3.58551 -7.48236,6.78686 -11.69622,9.604 -4.21387,2.81708 -8.66193,5.19593 -13.34418,7.13642 -4.68219,1.94049 -9.50867,3.40533 -14.47931,4.39465 -4.97064,0.98926 -9.98993,1.48389 -15.05792,1.48395 H 183.31921 c -5.068,-6e-5 -10.08734,-0.49469 -15.05796,-1.48395 -4.97065,-0.98926 -9.79708,-2.4541 -14.47931,-4.39459 -4.68224,-1.94049 -9.1303,-4.31934 -13.3442,-7.13648 -4.21388,-2.81714 -8.11264,-6.01849 -11.69627,-9.604 -3.58363,-3.58551 -6.78326,-7.48639 -9.5989,-11.70264 -2.81564,-4.21612 -5.19318,-8.66656 -7.13261,-13.35132 -1.93945,-4.68475 -3.40353,-9.51373 -4.39225,-14.48706 -0.98872,-4.9732 -1.48307,-9.99517 -1.48307,-15.06591 z"
         id="path114" />
    </clipPath>
    <clipPath
       clipPathUnits="userSpaceOnUse"
       id="clipPath130">
      <path
         d="M 0,0 H 2629.1665 V 1723.634 H 0 Z"
         clip-rule="evenodd"
         id="path128" />
    </clipPath>
    <clipPath
       clipPathUnits="userSpaceOnUse"
       id="clipPath144">
      <path
         d="M 0,0 H 2629.1665 V 1723.634 H 0 Z"
         id="path142" />
    </clipPath>
    <clipPath
       clipPathUnits="userSpaceOnUse"
       id="clipPath150">
      <path
         d="M 0,0 H 2629.1665 V 1729.8792 H 0 Z"
         id="path148" />
    </clipPath>
    <clipPath
       clipPathUnits="userSpaceOnUse"
       id="clipPath156">
      <path
         d="m 1209.9161,1053.8862 h 806.5444 v 264.0678 h -806.5444 z"
         id="path154" />
    </clipPath>
    <clipPath
       clipPathUnits="userSpaceOnUse"
       id="clipPath162">
      <path
         d="m 1209.9161,1240.728 v -109.6158 c -10e-5,-5.0707 0.4943,-10.0928 1.483,-15.0661 0.9886,-4.9733 2.4527,-9.8023 4.3922,-14.487 1.9394,-4.6848 4.317,-9.1353 7.1325,-13.3513 2.8158,-4.2162 6.0155,-8.1171 9.5992,-11.7027 3.5836,-3.5855 7.4824,-6.7868 11.6962,-9.604 4.2139,-2.8172 8.6619,-5.196 13.3442,-7.1364 4.6822,-1.9405 9.5086,-3.4053 14.4792,-4.3947 4.9707,-0.9891 9.9901,-1.4838 15.0581,-1.4838 h 652.1752 c 5.0679,0 10.0871,0.4947 15.0578,1.4838 4.9705,0.9894 9.7969,2.4542 14.4793,4.3947 4.6822,1.9404 9.1302,4.3192 13.344,7.1364 4.214,2.8172 8.1128,6.0185 11.6964,9.604 3.5836,3.5856 6.7832,7.4864 9.5987,11.7025 2.8157,4.2162 5.1933,8.6667 7.1327,13.3514 1.9395,4.6847 3.4036,9.5138 4.3924,14.4871 0.9887,4.9733 1.4831,9.9954 1.4832,15.0661 v 109.6158 c -10e-5,5.0707 -0.4945,10.0927 -1.4832,15.066 -0.9887,4.9732 -2.4528,9.8022 -4.3922,14.4869 -1.9396,4.6847 -4.3172,9.1352 -7.1329,13.3514 -2.8155,4.2162 -6.0151,8.1171 -9.5987,11.7027 -3.5836,3.5854 -7.4824,6.7867 -11.6964,9.6038 -4.2139,2.8172 -8.6619,5.196 -13.3441,7.1365 -4.6823,1.9406 -9.5087,3.4054 -14.4793,4.3947 -4.9706,0.9891 -9.9898,1.4839 -15.0577,1.484 h -652.1752 c -5.068,-10e-5 -10.0874,-0.4949 -15.058,-1.484 -4.9707,-0.9893 -9.7971,-2.4541 -14.4793,-4.3947 -4.6823,-1.9405 -9.1303,-4.3193 -13.3442,-7.1365 -4.2138,-2.8171 -8.1126,-6.0184 -11.6962,-9.6038 -3.5837,-3.5856 -6.7834,-7.4865 -9.5992,-11.7027 -2.8155,-4.2162 -5.1931,-8.6667 -7.1325,-13.3514 -1.9395,-4.6847 -3.4036,-9.5137 -4.3922,-14.4869 -0.9887,-4.9733 -1.4831,-9.9953 -1.483,-15.066 z"
         id="path160" />
    </clipPath>
    <clipPath
       clipPathUnits="userSpaceOnUse"
       id="clipPath174">
      <path
         d="M 0,0 H 2629.1665 V 1723.634 H 0 Z"
         clip-rule="evenodd"
         id="path172" />
    </clipPath>
    <clipPath
       clipPathUnits="userSpaceOnUse"
       id="clipPath202">
      <path
         d="M 0,0 H 2629.1665 V 1723.634 H 0 Z"
         id="path200" />
    </clipPath>
    <clipPath
       clipPathUnits="userSpaceOnUse"
       id="clipPath208">
      <path
         d="M 0,0 H 2629.1665 V 1729.8792 H 0 Z"
         id="path206" />
    </clipPath>
    <clipPath
       clipPathUnits="userSpaceOnUse"
       id="clipPath214">
      <path
         d="m 1788.8949,1432.9142 h 806.5443 v 264.0677 h -806.5443 z"
         id="path212" />
    </clipPath>
    <clipPath
       clipPathUnits="userSpaceOnUse"
       id="clipPath220">
      <path
         d="m 1788.8949,1619.756 v -109.6159 c -10e-5,-5.0708 0.4943,-10.0929 1.4829,-15.0661 0.9887,-4.9733 2.4526,-9.8024 4.3921,-14.4871 1.9395,-4.6847 4.317,-9.1351 7.1327,-13.3513 2.8158,-4.2162 6.0155,-8.1169 9.5991,-11.7025 3.5836,-3.5856 7.4823,-6.787 11.6963,-9.6043 4.2137,-2.817 8.6617,-5.1958 13.344,-7.1363 4.6822,-1.9403 9.5087,-3.4052 14.4794,-4.3945 4.9705,-0.9892 9.99,-1.4838 15.0581,-1.4838 h 652.1751 c 5.0682,0 10.0874,0.4946 15.0579,1.4839 4.9705,0.9892 9.7966,2.4541 14.479,4.3944 4.6824,1.9405 9.1304,4.3193 13.3445,7.1363 4.2141,2.8173 8.1128,6.0187 11.6963,9.6043 3.5835,3.5856 6.7829,7.4863 9.5986,11.7024 2.8154,4.2162 5.1929,8.6667 7.1326,13.3514 1.9394,4.6847 3.4035,9.5138 4.3923,14.4871 0.989,4.9732 1.4834,9.9953 1.4834,15.0661 v 109.6159 c 0,5.0707 -0.4944,10.0928 -1.4834,15.066 -0.9888,4.9733 -2.4529,9.8021 -4.3923,14.4868 -1.9397,4.6849 -4.3172,9.1353 -7.1326,13.3515 -2.8157,4.2162 -6.0151,8.117 -9.5986,11.7026 -3.5835,3.5855 -7.4822,6.7868 -11.6963,9.6039 -4.2141,2.817 -8.6621,5.1959 -13.3445,7.1365 -4.6824,1.9405 -9.5088,3.4054 -14.4792,4.3945 -4.9705,0.9894 -9.9895,1.484 -15.0577,1.4841 h -652.1751 c -5.0681,-10e-5 -10.0876,-0.4947 -15.0581,-1.484 -4.9707,-0.9892 -9.7973,-2.4541 -14.4795,-4.3946 -4.6822,-1.9406 -9.1302,-4.3195 -13.3439,-7.1365 -4.214,-2.8171 -8.1127,-6.0184 -11.6963,-9.6039 -3.5836,-3.5856 -6.7833,-7.4864 -9.599,-11.7026 -2.8158,-4.2162 -5.1933,-8.6666 -7.1327,-13.3515 -1.9396,-4.6847 -3.4035,-9.5136 -4.3921,-14.4869 -0.9887,-4.9733 -1.4831,-9.9952 -1.483,-15.0659 z"
         id="path218" />
    </clipPath>
    <clipPath
       clipPathUnits="userSpaceOnUse"
       id="clipPath232">
      <path
         d="M 0,0 H 2629.1665 V 1723.634 H 0 Z"
         clip-rule="evenodd"
         id="path230" />
    </clipPath>
    <clipPath
       clipPathUnits="userSpaceOnUse"
       id="clipPath260">
      <path
         d="M 0,0 H 2629.1665 V 1723.634 H 0 Z"
         id="path258" />
    </clipPath>
    <clipPath
       clipPathUnits="userSpaceOnUse"
       id="clipPath266">
      <path
         d="M 0,0 H 2629.1665 V 1729.8792 H 0 Z"
         id="path264" />
    </clipPath>
    <clipPath
       clipPathUnits="userSpaceOnUse"
       id="clipPath272">
      <path
         d="M 681.55365,263.68246 H 1209.9248 V 630.05383 H 681.55365 Z"
         id="path270" />
    </clipPath>
    <clipPath
       clipPathUnits="userSpaceOnUse"
       id="clipPath278">
      <path
         d="M 681.55365,552.82788 V 340.90842 c -6e-5,-5.07074 0.49432,-10.09278 1.48303,-15.06607 0.98871,-4.9733 2.45276,-9.80231 4.39221,-14.48706 1.93946,-4.68473 4.31702,-9.13517 7.13263,-13.35132 2.81562,-4.21616 6.01526,-8.11701 9.59894,-11.70255 3.58362,-3.58554 7.48236,-6.78689 11.69629,-9.60406 4.21387,-2.81714 8.66193,-5.19596 13.34412,-7.13645 4.68219,-1.94049 9.50866,-3.40536 14.47931,-4.39459 4.97064,-0.98923 9.98999,-1.48386 15.05804,-1.48386 h 374.00198 c 5.068,0 10.0873,0.49463 15.0579,1.48386 4.9706,0.98923 9.797,2.4541 14.4792,4.39459 4.6823,1.94049 9.1303,4.31931 13.3442,7.13645 4.214,2.81717 8.1128,6.01852 11.6964,9.60406 3.5836,3.58554 6.7832,7.48639 9.5987,11.70255 2.8157,4.21615 5.1933,8.66659 7.1327,13.35132 1.9395,4.68475 3.4036,9.51379 4.3924,14.48709 0.9886,4.97329 1.483,9.9953 1.4831,15.06604 v 211.91946 c -10e-5,5.07074 -0.4945,10.09271 -1.4831,15.06598 -0.9888,4.97333 -2.4529,9.80231 -4.3924,14.48706 -1.9394,4.68475 -4.317,9.13519 -7.1327,13.35132 -2.8155,4.21619 -6.0151,8.11706 -9.5987,11.70257 -3.5836,3.58551 -7.4824,6.78687 -11.6964,9.60401 -4.2139,2.81714 -8.6619,5.19598 -13.3442,7.13647 -4.6822,1.94049 -9.5086,3.4054 -14.4792,4.3946 -4.9706,0.98931 -9.9899,1.48394 -15.0579,1.48394 H 758.73822 c -5.06805,0 -10.0874,-0.49463 -15.05804,-1.48394 -4.97065,-0.9892 -9.79712,-2.45411 -14.47931,-4.3946 -4.68219,-1.94049 -9.13025,-4.31933 -13.34418,-7.13647 -4.21387,-2.81714 -8.11261,-6.0185 -11.69623,-9.60401 -3.58368,-3.58551 -6.78326,-7.48638 -9.59888,-11.70257 -2.81567,-4.21613 -5.19323,-8.66657 -7.13269,-13.35132 -1.93945,-4.68475 -3.4035,-9.51373 -4.39221,-14.48706 -0.98871,-4.97327 -1.48309,-9.99524 -1.48303,-15.06598 z"
         id="path276" />
    </clipPath>
    <clipPath
       clipPathUnits="userSpaceOnUse"
       id="clipPath290">
      <path
         d="M 0,0 H 2629.1665 V 1723.634 H 0 Z"
         clip-rule="evenodd"
         id="path288" />
    </clipPath>
  </defs>
  <g
     id="g8"
     transform="matrix(0.31999998,0,0,0.31999998,0,1.38e-5)">
    <g
       id="g10">
      <g
         id="g12"
         clip-path="url(#clipPath16)">
        <g
           id="g18"
           transform="scale(3.1225255)">
          <path
             d="M 0,0 H 842 V 554 H 0 Z"
             style="fill:#ffffff;fill-opacity:1;fill-rule:nonzero;stroke:none"
             id="path20" />
        </g>
      </g>
    </g>
    <g
       id="g22">
      <g
         id="g24"
         clip-path="url(#clipPath28)">
        <g
           id="g30"
           transform="scale(3.1225255,3.1241999)">
          <path
             d="M 0,0 H 842 V 553.70313 H 0 Z"
             style="fill:#f2f2f2;fill-opacity:1;fill-rule:nonzero;stroke:none"
             id="path32" />
        </g>
      </g>
    </g>
    <g
       id="g34">
      <g
         id="g36"
         clip-path="url(#clipPath40)">
        <g
           id="g42"
           transform="matrix(7.1906376,0,0,7.1945066,-529.08075,-942.41486)">
          <path
             d="M 0,0 H 1737.3361 V 800.37671 H 0 Z"
             style="fill:#ffffff;fill-opacity:1;fill-rule:nonzero;stroke:none"
             id="path44" />
        </g>
      </g>
    </g>
    <g
       id="g46">
      <g
         id="g48"
         clip-path="url(#clipPath52)">
        <g
           id="g54"
           clip-path="url(#clipPath58)">
          <g
             id="g60"
             clip-path="url(#clipPath64)">
            <g
               id="g66"
               clip-path="url(#clipPath70)">
              <g
                 id="g72"
                 transform="matrix(7.1906223,0,0,7.1944776,30.13237,40.739567)">
                <path
                   d="M 10.734061,0 H 157.36996 c 0.35155,0 0.70226,0.01722914 1.05213,0.05168743 0.34985,0.03445828 0.69717,0.08597978 1.04198,0.1545645 0.3448,0.0685847 0.68539,0.15390243 1.0218,0.25595309 0.33641,0.10205063 0.66702,0.22034285 0.99181,0.35487661 0.32481,0.13453382 0.64224,0.28466137 0.95228,0.45038267 0.31004,0.1657213 0.61121,0.3462383 0.90351,0.5415511 0.29231,0.1953129 0.57435,0.4044808 0.84611,0.6275042 0.27176,0.2230234 0.53192,0.458828 0.7805,0.7074139 0.2486,0.248586 0.48441,0.5087564 0.70742,0.7805112 0.22303,0.2717547 0.43219,0.5537853 0.62748,0.8460912 0.19531,0.2923065 0.37583,0.5934811 0.54155,0.903524 0.16573,0.3100423 0.31586,0.62746 0.45038,0.9522533 0.13454,0.3247933 0.25282,0.6553984 0.35487,0.9918146 0.10207,0.3364158 0.18738,0.677023 0.25596,1.021821 0.0686,0.3448 0.12011,0.6921301 0.15458,1.0419913 0.0345,0.3498599 0.0517,0.7005669 0.0517,1.0521209 v 96.164649 c 0,0.35156 -0.0172,0.70226 -0.0517,1.05212 -0.0345,0.34986 -0.086,0.69719 -0.15459,1.04198 -0.0686,0.34479 -0.1539,0.6854 -0.25595,1.02182 -0.10207,0.33642 -0.22035,0.66703 -0.35489,0.99182 -0.13452,0.32479 -0.28465,0.64221 -0.45038,0.95225 -0.16572,0.31004 -0.34624,0.61122 -0.54155,0.90352 -0.19529,0.29231 -0.40445,0.57435 -0.62748,0.8461 -0.22301,0.27176 -0.45882,0.53193 -0.70742,0.78052 -0.24858,0.24859 -0.50874,0.4844 -0.7805,0.70742 -0.27176,0.22301 -0.5538,0.43218 -0.84611,0.62749 -0.2923,0.19532 -0.59347,0.37584 -0.90351,0.54155 -0.31004,0.16572 -0.62747,0.31585 -0.95228,0.45038 -0.32479,0.13455 -0.6554,0.25284 -0.99181,0.35489 -0.33641,0.10205 -0.677,0.18736 -1.0218,0.25594 -0.34481,0.0686 -0.69213,0.12011 -1.04198,0.15457 -0.34987,0.0345 -0.70058,0.0517 -1.05213,0.0517 H 10.734041 c -0.351554,0 -0.702261,-0.0172 -1.0521209,-0.0517 -0.3498612,-0.0345 -0.6971913,-0.086 -1.0419913,-0.15457 -0.344798,-0.0686 -0.6854057,-0.15389 -1.0218219,-0.25594 -0.3364158,-0.10205 -0.6670204,-0.22034 -0.9918137,-0.35489 -0.3247933,-0.13453 -0.642211,-0.28466 -0.9522538,-0.45038 -0.3100424,-0.16572 -0.611217,-0.34624 -0.9035235,-0.54155 -0.2923059,-0.19531 -0.5743365,-0.40448 -0.846091,-0.6275 -0.271755,-0.22303 -0.5319254,-0.45883 -0.7805114,-0.70742 C 2.8953476,114.24025 2.659543,113.98008 2.4365196,113.70832 2.2134962,113.43657 2.004328,113.15453 1.8090153,112.86222 1.6137025,112.56992 1.4331855,112.26874 1.2674642,111.9587 1.101743,111.64865 0.95161545,111.33123 0.81708163,111.00644 0.68254787,110.68165 0.56425565,110.35105 0.46220502,110.01463 0.36015436,109.67821 0.27483666,109.3376 0.20625193,108.99281 0.13766721,108.64802 0.08614571,108.30069 0.05168743,107.95083 0.01722914,107.60097 0,107.25027 0,106.89871 V 10.734061 C 0,10.382507 0.01722914,10.0318 0.05168743,9.6819401 0.08614571,9.3320789 0.13766721,8.9847488 0.20625193,8.6399488 0.27483666,8.2951508 0.36015436,7.9545431 0.46220502,7.6181269 0.56425565,7.2817111 0.68254787,6.9511065 0.81708163,6.6263132 0.95161545,6.3015199 1.101743,5.9841022 1.2674643,5.6740594 1.4331856,5.364017 1.6137026,5.0628424 1.8090154,4.7705359 2.0043283,4.47823 2.2134962,4.1961994 2.4365196,3.9244449 2.659543,3.6526899 2.8953476,3.3925195 3.1439335,3.1439335 3.3925195,2.8953476 3.6526899,2.659543 3.9244447,2.4365196 4.1961994,2.2134962 4.47823,2.004328 4.7705359,1.8090153 5.0628424,1.6137025 5.364017,1.4331855 5.6740599,1.2674642 5.9841022,1.101743 6.3015199,0.95161545 6.6263132,0.81708163 6.9511065,0.68254787 7.2817116,0.56425565 7.6181278,0.46220502 7.9545436,0.36015436 8.2951508,0.27483666 8.6399488,0.20625193 8.9847488,0.13766721 9.3320789,0.08614571 9.6819401,0.05168743 10.0318,0.01722914 10.382507,0 10.734061,0 Z"
                   style="fill:#8fd14f;fill-opacity:1;fill-rule:evenodd;stroke:none"
                   id="path74" />
                <path
                   d="M 10.734061,0 H 157.36996 c 0.35155,0 0.70226,0.01722914 1.05213,0.05168743 0.34985,0.03445828 0.69717,0.08597978 1.04198,0.1545645 0.3448,0.0685847 0.68539,0.15390243 1.0218,0.25595309 0.33641,0.10205063 0.66702,0.22034285 0.99181,0.35487661 0.32481,0.13453382 0.64224,0.28466137 0.95228,0.45038267 0.31004,0.1657213 0.61121,0.3462383 0.90351,0.5415511 0.29231,0.1953129 0.57435,0.4044808 0.84611,0.6275042 0.27176,0.2230234 0.53192,0.458828 0.7805,0.7074139 0.2486,0.248586 0.48441,0.5087564 0.70742,0.7805112 0.22303,0.2717547 0.43219,0.5537853 0.62748,0.8460912 0.19531,0.2923065 0.37583,0.5934811 0.54155,0.903524 0.16573,0.3100423 0.31586,0.62746 0.45038,0.9522533 0.13454,0.3247933 0.25282,0.6553984 0.35487,0.9918146 0.10207,0.3364158 0.18738,0.677023 0.25596,1.021821 0.0686,0.3448 0.12011,0.6921301 0.15458,1.0419913 0.0345,0.3498599 0.0517,0.7005669 0.0517,1.0521209 v 96.164649 c 0,0.35156 -0.0172,0.70226 -0.0517,1.05212 -0.0345,0.34986 -0.086,0.69719 -0.15459,1.04198 -0.0686,0.34479 -0.1539,0.6854 -0.25595,1.02182 -0.10207,0.33642 -0.22035,0.66703 -0.35489,0.99182 -0.13452,0.32479 -0.28465,0.64221 -0.45038,0.95225 -0.16572,0.31004 -0.34624,0.61122 -0.54155,0.90352 -0.19529,0.29231 -0.40445,0.57435 -0.62748,0.8461 -0.22301,0.27176 -0.45882,0.53193 -0.70742,0.78052 -0.24858,0.24859 -0.50874,0.4844 -0.7805,0.70742 -0.27176,0.22301 -0.5538,0.43218 -0.84611,0.62749 -0.2923,0.19532 -0.59347,0.37584 -0.90351,0.54155 -0.31004,0.16572 -0.62747,0.31585 -0.95228,0.45038 -0.32479,0.13455 -0.6554,0.25284 -0.99181,0.35489 -0.33641,0.10205 -0.677,0.18736 -1.0218,0.25594 -0.34481,0.0686 -0.69213,0.12011 -1.04198,0.15457 -0.34987,0.0345 -0.70058,0.0517 -1.05213,0.0517 H 10.734041 c -0.351554,0 -0.702261,-0.0172 -1.0521209,-0.0517 -0.3498612,-0.0345 -0.6971913,-0.086 -1.0419913,-0.15457 -0.344798,-0.0686 -0.6854057,-0.15389 -1.0218219,-0.25594 -0.3364158,-0.10205 -0.6670204,-0.22034 -0.9918137,-0.35489 -0.3247933,-0.13453 -0.642211,-0.28466 -0.9522538,-0.45038 -0.3100424,-0.16572 -0.611217,-0.34624 -0.9035235,-0.54155 -0.2923059,-0.19531 -0.5743365,-0.40448 -0.846091,-0.6275 -0.271755,-0.22303 -0.5319254,-0.45883 -0.7805114,-0.70742 C 2.8953476,114.24025 2.659543,113.98008 2.4365196,113.70832 2.2134962,113.43657 2.004328,113.15453 1.8090153,112.86222 1.6137025,112.56992 1.4331855,112.26874 1.2674642,111.9587 1.101743,111.64865 0.95161545,111.33123 0.81708163,111.00644 0.68254787,110.68165 0.56425565,110.35105 0.46220502,110.01463 0.36015436,109.67821 0.27483666,109.3376 0.20625193,108.99281 0.13766721,108.64802 0.08614571,108.30069 0.05168743,107.95083 0.01722914,107.60097 0,107.25027 0,106.89871 V 10.734061 C 0,10.382507 0.01722914,10.0318 0.05168743,9.6819401 0.08614571,9.3320789 0.13766721,8.9847488 0.20625193,8.6399488 0.27483666,8.2951508 0.36015436,7.9545431 0.46220502,7.6181269 0.56425565,7.2817111 0.68254787,6.9511065 0.81708163,6.6263132 0.95161545,6.3015199 1.101743,5.9841022 1.2674643,5.6740594 1.4331856,5.364017 1.6137026,5.0628424 1.8090154,4.7705359 2.0043283,4.47823 2.2134962,4.1961994 2.4365196,3.9244449 2.659543,3.6526899 2.8953476,3.3925195 3.1439335,3.1439335 3.3925195,2.8953476 3.6526899,2.659543 3.9244447,2.4365196 4.1961994,2.2134962 4.47823,2.004328 4.7705359,1.8090153 5.0628424,1.6137025 5.364017,1.4331855 5.6740599,1.2674642 5.9841022,1.101743 6.3015199,0.95161545 6.6263132,0.81708163 6.9511065,0.68254787 7.2817116,0.56425565 7.6181278,0.46220502 7.9545436,0.36015436 8.2951508,0.27483666 8.6399488,0.20625193 8.9847488,0.13766721 9.3320789,0.08614571 9.6819401,0.05168743 10.0318,0.01722914 10.382507,0 10.734061,0 Z"
                   style="fill:none;stroke:#1a1a1a;stroke-width:1;stroke-linecap:butt;stroke-linejoin:miter;stroke-miterlimit:10;stroke-dasharray:none;stroke-opacity:1"
                   id="path76" />
              </g>
            </g>
          </g>
        </g>
      </g>
    </g>
    <g
       id="g78">
      <g
         id="g80"
         clip-path="url(#clipPath84)">
        <g
           id="g86"
           transform="matrix(7.1906128,0,0,7.1944776,72.425529,83.054886)">
          <text
             xml:space="preserve"
             transform="translate(55.400421,10)"
             style="font-variant:normal;font-weight:normal;font-size:10px;font-family:'Noto Sans';-inkscape-font-specification:NotoSans-Regular;writing-mode:lr-tb;fill:#1a1a1a;fill-opacity:1;fill-rule:nonzero;stroke:none"
             id="text90"><tspan
               x="0 4.7899933 10.399994 16.009995 25.359985 28.039978 30.719971 35.799973 41.409973"
               y="0"
               id="tspan88">saam::var</tspan></text>
        </g>
      </g>
    </g>
    <g
       id="g92">
      <g
         id="g94"
         clip-path="url(#clipPath98)">
        <g
           id="g100"
           clip-path="url(#clipPath104)">
          <g
             id="g106"
             clip-path="url(#clipPath110)">
            <g
               id="g112"
               clip-path="url(#clipPath116)">
              <g
                 id="g118"
                 transform="matrix(7.1906223,0,0,7.1944776,106.13464,263.68246)">
                <path
                   d="m 10.734061,0 h 52.01246 c 0.351555,0 0.702263,0.01722914 1.05212,0.05168743 0.349858,0.03445828 0.697193,0.08597978 1.041989,0.1545645 0.344802,0.0685847 0.685409,0.15390243 1.02182,0.25595309 0.33641,0.10205063 0.667015,0.22034285 0.991806,0.35487661 0.324798,0.13453382 0.642219,0.28466137 0.952263,0.45038267 0.310035,0.1657213 0.611206,0.3462383 0.903511,0.5415511 0.292312,0.1953129 0.574348,0.4044808 0.846107,0.6275042 0.271751,0.2230234 0.531921,0.458828 0.78051,0.7074139 0.248589,0.248586 0.48439,0.5087564 0.707413,0.7805112 0.22303,0.2717547 0.432197,0.5537853 0.627502,0.8460912 0.195313,0.2923065 0.375832,0.5934811 0.54155,0.903524 0.165726,0.3100423 0.315857,0.62746 0.450386,0.9522533 0.134537,0.3247933 0.25283,0.6553984 0.354881,0.9918146 0.102059,0.3364158 0.187371,0.677023 0.255951,1.021821 0.0686,0.3448 0.120117,0.6921301 0.154572,1.0419913 0.03445,0.3498599 0.05168,0.7005669 0.05168,1.0521209 v 58.027246 c 0,0.351555 -0.01723,0.702263 -0.05168,1.052124 -0.03446,0.349861 -0.08598,0.697189 -0.154579,1.041984 -0.06858,0.344803 -0.153901,0.68541 -0.255951,1.02182 -0.102051,0.336419 -0.220345,0.667023 -0.354882,0.991814 -0.134529,0.324799 -0.284652,0.64222 -0.450378,0.952255 -0.165718,0.310036 -0.346237,0.611206 -0.541557,0.903511 -0.195305,0.292313 -0.404473,0.574349 -0.627495,0.8461 -0.223023,0.271752 -0.458824,0.531922 -0.707413,0.78051 -0.248589,0.248589 -0.508759,0.484398 -0.78051,0.707413 -0.271759,0.223022 -0.553795,0.43219 -0.846107,0.627502 -0.292305,0.19532 -0.593476,0.37584 -0.903511,0.541558 -0.310044,0.165725 -0.627465,0.315849 -0.952263,0.450378 -0.324791,0.134529 -0.655396,0.252823 -0.991806,0.354874 -0.336411,0.102058 -0.677018,0.187378 -1.02182,0.255958 -0.344796,0.0686 -0.692131,0.120117 -1.041989,0.154579 -0.349857,0.03446 -0.700565,0.05168 -1.05212,0.05168 h -52.01246 c -0.351554,0 -0.702261,-0.01723 -1.0521209,-0.05168 C 9.3320789,79.409225 8.9847488,79.357704 8.6399488,79.289108 8.2951508,79.220528 7.9545431,79.135208 7.6181269,79.03315 7.2817111,78.931099 6.9511065,78.812805 6.6263132,78.678276 6.3015199,78.543747 5.9841022,78.393623 5.6740594,78.227898 5.364017,78.06218 5.0628424,77.88166 4.7705359,77.686348 4.47823,77.491043 4.1961994,77.281876 3.9244449,77.058846 3.6526899,76.835823 3.3925195,76.600021 3.1439335,76.351433 2.8953476,76.102844 2.659543,75.842674 2.4365196,75.570923 2.2134962,75.299164 2.004328,75.017128 1.8090153,74.724823 1.6137025,74.432518 1.4331855,74.131348 1.2674642,73.821312 1.101743,73.511269 0.95161545,73.193848 0.81708163,72.869049 0.68254787,72.544258 0.56425565,72.213654 0.46220502,71.877235 0.36015436,71.540825 0.27483666,71.200218 0.20625193,70.855415 0.13766721,70.51062 0.08614571,70.163292 0.05168743,69.813431 0.01722914,69.46357 0,69.112862 0,68.761307 V 10.734061 C 0,10.382507 0.01722914,10.0318 0.05168743,9.6819401 0.08614571,9.3320789 0.13766721,8.9847488 0.20625193,8.6399488 0.27483666,8.2951508 0.36015436,7.9545431 0.46220502,7.6181269 0.56425565,7.2817111 0.68254787,6.9511065 0.81708163,6.6263132 0.95161545,6.3015199 1.101743,5.9841022 1.2674643,5.6740594 1.4331856,5.364017 1.6137026,5.0628424 1.8090154,4.7705359 2.0043283,4.47823 2.2134962,4.1961994 2.4365196,3.9244449 2.659543,3.6526899 2.8953476,3.3925195 3.1439335,3.1439335 3.3925195,2.8953476 3.6526899,2.659543 3.9244447,2.4365196 4.1961994,2.2134962 4.47823,2.004328 4.7705359,1.8090153 5.0628424,1.6137025 5.364017,1.4331855 5.6740599,1.2674642 5.9841022,1.101743 6.3015199,0.95161545 6.6263132,0.81708163 6.9511065,0.68254787 7.2817116,0.56425565 7.6181278,0.46220502 7.9545436,0.36015436 8.2951508,0.27483666 8.6399488,0.20625193 8.9847488,0.13766721 9.3320789,0.08614571 9.6819401,0.05168743 10.0318,0.01722914 10.382507,0 10.734061,0 Z"
                   style="fill:#85cddb;fill-opacity:1;fill-rule:evenodd;stroke:none"
                   id="path120" />
                <path
                   d="m 10.734061,0 h 52.01246 c 0.351555,0 0.702263,0.01722914 1.05212,0.05168743 0.349858,0.03445828 0.697193,0.08597978 1.041989,0.1545645 0.344802,0.0685847 0.685409,0.15390243 1.02182,0.25595309 0.33641,0.10205063 0.667015,0.22034285 0.991806,0.35487661 0.324798,0.13453382 0.642219,0.28466137 0.952263,0.45038267 0.310035,0.1657213 0.611206,0.3462383 0.903511,0.5415511 0.292312,0.1953129 0.574348,0.4044808 0.846107,0.6275042 0.271751,0.2230234 0.531921,0.458828 0.78051,0.7074139 0.248589,0.248586 0.48439,0.5087564 0.707413,0.7805112 0.22303,0.2717547 0.432197,0.5537853 0.627502,0.8460912 0.195313,0.2923065 0.375832,0.5934811 0.54155,0.903524 0.165726,0.3100423 0.315857,0.62746 0.450386,0.9522533 0.134537,0.3247933 0.25283,0.6553984 0.354881,0.9918146 0.102059,0.3364158 0.187371,0.677023 0.255951,1.021821 0.0686,0.3448 0.120117,0.6921301 0.154572,1.0419913 0.03445,0.3498599 0.05168,0.7005669 0.05168,1.0521209 v 58.027246 c 0,0.351555 -0.01723,0.702263 -0.05168,1.052124 -0.03446,0.349861 -0.08598,0.697189 -0.154579,1.041984 -0.06858,0.344803 -0.153901,0.68541 -0.255951,1.02182 -0.102051,0.336419 -0.220345,0.667023 -0.354882,0.991814 -0.134529,0.324799 -0.284652,0.64222 -0.450378,0.952255 -0.165718,0.310036 -0.346237,0.611206 -0.541557,0.903511 -0.195305,0.292313 -0.404473,0.574349 -0.627495,0.8461 -0.223023,0.271752 -0.458824,0.531922 -0.707413,0.78051 -0.248589,0.248589 -0.508759,0.484398 -0.78051,0.707413 -0.271759,0.223022 -0.553795,0.43219 -0.846107,0.627502 -0.292305,0.19532 -0.593476,0.37584 -0.903511,0.541558 -0.310044,0.165725 -0.627465,0.315849 -0.952263,0.450378 -0.324791,0.134529 -0.655396,0.252823 -0.991806,0.354874 -0.336411,0.102058 -0.677018,0.187378 -1.02182,0.255958 -0.344796,0.0686 -0.692131,0.120117 -1.041989,0.154579 -0.349857,0.03446 -0.700565,0.05168 -1.05212,0.05168 h -52.01246 c -0.351554,0 -0.702261,-0.01723 -1.0521209,-0.05168 C 9.3320789,79.409225 8.9847488,79.357704 8.6399488,79.289108 8.2951508,79.220528 7.9545431,79.135208 7.6181269,79.03315 7.2817111,78.931099 6.9511065,78.812805 6.6263132,78.678276 6.3015199,78.543747 5.9841022,78.393623 5.6740594,78.227898 5.364017,78.06218 5.0628424,77.88166 4.7705359,77.686348 4.47823,77.491043 4.1961994,77.281876 3.9244449,77.058846 3.6526899,76.835823 3.3925195,76.600021 3.1439335,76.351433 2.8953476,76.102844 2.659543,75.842674 2.4365196,75.570923 2.2134962,75.299164 2.004328,75.017128 1.8090153,74.724823 1.6137025,74.432518 1.4331855,74.131348 1.2674642,73.821312 1.101743,73.511269 0.95161545,73.193848 0.81708163,72.869049 0.68254787,72.544258 0.56425565,72.213654 0.46220502,71.877235 0.36015436,71.540825 0.27483666,71.200218 0.20625193,70.855415 0.13766721,70.51062 0.08614571,70.163292 0.05168743,69.813431 0.01722914,69.46357 0,69.112862 0,68.761307 V 10.734061 C 0,10.382507 0.01722914,10.0318 0.05168743,9.6819401 0.08614571,9.3320789 0.13766721,8.9847488 0.20625193,8.6399488 0.27483666,8.2951508 0.36015436,7.9545431 0.46220502,7.6181269 0.56425565,7.2817111 0.68254787,6.9511065 0.81708163,6.6263132 0.95161545,6.3015199 1.101743,5.9841022 1.2674643,5.6740594 1.4331856,5.364017 1.6137026,5.0628424 1.8090154,4.7705359 2.0043283,4.47823 2.2134962,4.1961994 2.4365196,3.9244449 2.659543,3.6526899 2.8953476,3.3925195 3.1439335,3.1439335 3.3925195,2.8953476 3.6526899,2.659543 3.9244447,2.4365196 4.1961994,2.2134962 4.47823,2.004328 4.7705359,1.8090153 5.0628424,1.6137025 5.364017,1.4331855 5.6740599,1.2674642 5.9841022,1.101743 6.3015199,0.95161545 6.6263132,0.81708163 6.9511065,0.68254787 7.2817116,0.56425565 7.6181278,0.46220502 7.9545436,0.36015436 8.2951508,0.27483666 8.6399488,0.20625193 8.9847488,0.13766721 9.3320789,0.08614571 9.6819401,0.05168743 10.0318,0.01722914 10.382507,0 10.734061,0 Z"
                   style="fill:none;stroke:#1a1a1a;stroke-width:1;stroke-linecap:butt;stroke-linejoin:miter;stroke-miterlimit:10;stroke-dasharray:none;stroke-opacity:1"
                   id="path122" />
              </g>
            </g>
          </g>
        </g>
      </g>
    </g>
    <g
       id="g124">
      <g
         id="g126"
         clip-path="url(#clipPath130)">
        <g
           id="g132"
           transform="matrix(7.1906109,0,0,7.1944776,132.55341,290.11517)">
          <text
             xml:space="preserve"
             transform="translate(18.651291,39.073658)"
             style="font-variant:normal;font-weight:normal;font-size:10px;font-family:'Noto Sans';-inkscape-font-specification:NotoSans-Regular;writing-mode:lr-tb;fill:#1a1a1a;fill-opacity:1;fill-rule:nonzero;stroke:none"
             id="text136"><tspan
               x="0 6.0499878 12.199982 14.779984 20.419983 25.219986"
               y="0"
               id="tspan134">object</tspan></text>
        </g>
      </g>
    </g>
    <g
       id="g138">
      <g
         id="g140"
         clip-path="url(#clipPath144)">
        <g
           id="g146"
           clip-path="url(#clipPath150)">
          <g
             id="g152"
             clip-path="url(#clipPath156)">
            <g
               id="g158"
               clip-path="url(#clipPath162)">
              <g
                 id="g164"
                 transform="matrix(7.1906223,0,0,7.1944776,1209.9161,1053.8862)">
                <path
                   d="m 10.734061,0 h 90.697999 c 0.35156,0 0.70226,0.01722914 1.05212,0.05168743 0.34986,0.03445828 0.69719,0.08597978 1.04198,0.1545645 0.3448,0.0685847 0.68541,0.15390243 1.02182,0.25595309 0.33642,0.10205063 0.66702,0.22034285 0.99181,0.35487661 0.3248,0.13453382 0.64222,0.28466137 0.95227,0.45038267 0.31004,0.1657213 0.61121,0.3462383 0.90352,0.5415511 0.29231,0.1953129 0.57435,0.4044808 0.8461,0.6275042 0.27176,0.2230234 0.53193,0.458828 0.78051,0.7074139 0.24858,0.248586 0.48439,0.5087564 0.70742,0.7805112 0.22301,0.2717547 0.43218,0.5537853 0.62749,0.8460912 0.19532,0.2923065 0.37584,0.5934811 0.54156,0.903524 0.16572,0.3100423 0.31584,0.62746 0.45037,0.9522533 0.13454,0.3247933 0.25283,0.6553984 0.35488,0.9918146 0.10206,0.3364158 0.18738,0.677023 0.25596,1.021821 0.0686,0.3448 0.12012,0.6921301 0.15458,1.0419913 0.0345,0.3498599 0.0517,0.7005669 0.0517,1.0521209 v 15.236108 c 1e-5,0.351555 -0.0172,0.702263 -0.0517,1.052122 -0.0345,0.349859 -0.086,0.69719 -0.15458,1.041987 -0.0686,0.344799 -0.1539,0.685405 -0.25595,1.021822 -0.10205,0.336416 -0.22034,0.66702 -0.35488,0.991813 -0.13453,0.324795 -0.28465,0.642214 -0.45036,0.952257 -0.16573,0.310042 -0.34625,0.611216 -0.54157,0.903519 -0.19531,0.292309 -0.40448,0.574341 -0.62749,0.846092 -0.22303,0.271759 -0.45884,0.531929 -0.70742,0.780514 -0.24858,0.248585 -0.50875,0.48439 -0.78051,0.707417 -0.27175,0.223026 -0.55379,0.432193 -0.8461,0.627502 -0.29231,0.195316 -0.59348,0.375832 -0.90352,0.54155 -0.31005,0.165722 -0.62747,0.315853 -0.95227,0.450386 -0.32479,0.134533 -0.65539,0.252827 -0.99181,0.354881 -0.33641,0.102047 -0.67702,0.187363 -1.02181,0.255947 -0.3448,0.06858 -0.69212,0.12011 -1.04199,0.154568 -0.34986,0.03446 -0.70056,0.05168 -1.05212,0.05168 H 10.734071 c -0.351554,0 -0.702261,-0.01723 -1.0521209,-0.05168 C 9.3320789,36.618088 8.9847488,36.566563 8.6399488,36.497974 8.2951508,36.42939 7.9545431,36.344074 7.6181269,36.242027 7.2817111,36.139977 6.9511065,36.021683 6.6263132,35.88715 6.3015199,35.752617 5.9841022,35.602489 5.6740594,35.436768 5.364017,35.271046 5.0628424,35.090527 4.7705359,34.89521 4.47823,34.699902 4.1961994,34.490734 3.9244449,34.267712 3.6526899,34.044685 3.3925195,33.80888 3.1439335,33.560295 2.8953476,33.31171 2.659543,33.05154 2.4365196,32.779785 2.2134962,32.50803 2.004328,32.225998 1.8090153,31.933689 1.6137025,31.641386 1.4331855,31.340212 1.2674642,31.030169 1.101743,30.720127 0.95161545,30.402708 0.81708163,30.077913 0.68254787,29.75312 0.56425565,29.422516 0.46220502,29.0861 0.36015436,28.749683 0.27483666,28.409077 0.20625193,28.064278 0.13766721,27.719481 0.08614571,27.37215 0.05168743,27.022291 0.01722914,26.672432 0,26.321724 0,25.970169 V 10.734061 C 0,10.382507 0.01722914,10.0318 0.05168743,9.6819401 0.08614571,9.3320789 0.13766721,8.9847488 0.20625193,8.6399488 0.27483666,8.2951508 0.36015436,7.9545431 0.46220502,7.6181269 0.56425565,7.2817111 0.68254787,6.9511065 0.81708163,6.6263132 0.95161545,6.3015199 1.101743,5.9841022 1.2674643,5.6740594 1.4331856,5.364017 1.6137026,5.0628424 1.8090154,4.7705359 2.0043283,4.47823 2.2134962,4.1961994 2.4365196,3.9244449 2.659543,3.6526899 2.8953476,3.3925195 3.1439335,3.1439335 3.3925195,2.8953476 3.6526899,2.659543 3.9244447,2.4365196 4.1961994,2.2134962 4.47823,2.004328 4.7705359,1.8090153 5.0628424,1.6137025 5.364017,1.4331855 5.6740599,1.2674642 5.9841022,1.101743 6.3015199,0.95161545 6.6263132,0.81708163 6.9511065,0.68254787 7.2817116,0.56425565 7.6181278,0.46220502 7.9545436,0.36015436 8.2951508,0.27483666 8.6399488,0.20625193 8.9847488,0.13766721 9.3320789,0.08614571 9.6819401,0.05168743 10.0318,0.01722914 10.382507,0 10.734061,0 Z"
                   style="fill:none;stroke:#1a1a1a;stroke-width:1;stroke-linecap:butt;stroke-linejoin:miter;stroke-miterlimit:10;stroke-dasharray:none;stroke-opacity:1"
                   id="path166" />
              </g>
            </g>
          </g>
        </g>
      </g>
    </g>
    <g
       id="g168">
      <g
         id="g170"
         clip-path="url(#clipPath174)">
        <g
           id="g176"
           transform="matrix(7.1906147,0,0,7.1944776,1223.1128,1067.0896)">
          <text
             xml:space="preserve"
             transform="translate(32.382893,12.516905)"
             style="font-variant:normal;font-weight:normal;font-size:10px;font-family:'Noto Sans';-inkscape-font-specification:NotoSans-Regular;writing-mode:lr-tb;fill:#1a1a1a;fill-opacity:1;fill-rule:nonzero;stroke:none"
             id="text180"><tspan
               x="0 4.7899933 10.399994 16.009995 25.359985 28.039978 30.719971 34.649963 40.289963"
               y="0"
               id="tspan178">saam::ref</tspan></text>
        </g>
        <g
           id="g182"
           transform="matrix(7.1906157,0,0,7.1944776,1223.1126,1067.0896)">
          <text
             xml:space="preserve"
             transform="translate(7.0979409,26.516905)"
             style="font-variant:normal;font-weight:normal;font-size:10px;font-family:'Noto Sans';-inkscape-font-specification:NotoSans-Regular;writing-mode:lr-tb;fill:#1a1a1a;fill-opacity:1;fill-rule:nonzero;stroke:none"
             id="text186"><tspan
               x="0 5.7200012 11.440002 17.619995 23.669983 29.849976 32.449966 38.299957 46.159943 52.339935 54.919937 61.09993 67.249924 69.849915 73.779907 79.419907 82.859909 88.57991"
               y="0"
               id="tspan184">&lt;&lt;non owning ref&gt;&gt;</tspan></text>
        </g>
        <g
           id="g188"
           transform="matrix(7.1906223,0,0,7.1944776,370.33151,835.62976)">
          <path
             d="M 116.76168,48.689995 H 8 c -5.3333335,0 -8,-2.666668 -8,-8 V 10.181818"
             style="fill:none;stroke:#333333;stroke-width:1;stroke-linecap:butt;stroke-linejoin:miter;stroke-miterlimit:10;stroke-dasharray:none;stroke-opacity:1"
             id="path190" />
        </g>
        <g
           id="g192"
           transform="matrix(0,-7.1944776,7.1906223,0,370.33151,835.62976)">
          <path
             d="M -12.727273,-7.5454545 0,0 -12.727273,7.5454545 Z"
             style="fill:#333333;fill-opacity:1;fill-rule:nonzero;stroke:none"
             id="path194" />
        </g>
      </g>
    </g>
    <g
       id="g196">
      <g
         id="g198"
         clip-path="url(#clipPath202)">
        <g
           id="g204"
           clip-path="url(#clipPath208)">
          <g
             id="g210"
             clip-path="url(#clipPath214)">
            <g
               id="g216"
               clip-path="url(#clipPath220)">
              <g
                 id="g222"
                 transform="matrix(7.1906223,0,0,7.1944776,1788.8949,1432.9142)">
                <path
                   d="m 10.734061,0 h 90.697999 c 0.35156,0 0.70226,0.01722914 1.05212,0.05168743 0.34986,0.03445828 0.69719,0.08597978 1.04198,0.1545645 0.3448,0.0685847 0.68541,0.15390243 1.02182,0.25595309 0.33642,0.10205063 0.66702,0.22034285 0.99181,0.35487661 0.3248,0.13453382 0.64222,0.28466137 0.95227,0.45038267 0.31004,0.1657213 0.61121,0.3462383 0.90352,0.5415511 0.29231,0.1953129 0.57435,0.4044808 0.8461,0.6275042 0.27176,0.2230234 0.53193,0.458828 0.78051,0.7074139 0.24858,0.248586 0.48439,0.5087564 0.70742,0.7805112 0.22301,0.2717547 0.43218,0.5537853 0.62749,0.8460912 0.19532,0.2923065 0.37584,0.5934811 0.54156,0.903524 0.16572,0.3100423 0.31584,0.62746 0.45037,0.9522533 0.13454,0.3247933 0.25283,0.6553984 0.35488,0.9918146 0.10206,0.3364158 0.18738,0.677023 0.25596,1.021821 0.0686,0.3448 0.12012,0.6921301 0.15458,1.0419913 0.0345,0.3498599 0.0517,0.7005669 0.0517,1.0521209 v 15.236108 c 1e-5,0.351555 -0.0172,0.702263 -0.0517,1.052122 -0.0345,0.349859 -0.086,0.69719 -0.15458,1.041987 -0.0686,0.344799 -0.1539,0.685405 -0.25595,1.021822 -0.10205,0.336416 -0.22034,0.66702 -0.35488,0.991813 -0.13453,0.324795 -0.28465,0.642214 -0.45036,0.952257 -0.16573,0.310042 -0.34625,0.611216 -0.54157,0.903519 -0.19531,0.292309 -0.40448,0.574341 -0.62749,0.846092 -0.22303,0.271759 -0.45884,0.531929 -0.70742,0.780514 -0.24858,0.248585 -0.50875,0.48439 -0.78051,0.707417 -0.27175,0.223026 -0.55379,0.432193 -0.8461,0.627502 -0.29231,0.195316 -0.59348,0.375832 -0.90352,0.54155 -0.31005,0.165722 -0.62747,0.315853 -0.95227,0.450386 -0.32479,0.134533 -0.65539,0.252827 -0.99181,0.354881 -0.33641,0.102047 -0.67702,0.187363 -1.02181,0.255947 -0.3448,0.06858 -0.69212,0.12011 -1.04199,0.154568 -0.34986,0.03446 -0.70056,0.05168 -1.05212,0.05168 H 10.734071 c -0.351554,0 -0.702261,-0.01723 -1.0521209,-0.05168 C 9.3320789,36.618088 8.9847488,36.566563 8.6399488,36.497974 8.2951508,36.42939 7.9545431,36.344074 7.6181269,36.242027 7.2817111,36.139977 6.9511065,36.021683 6.6263132,35.88715 6.3015199,35.752617 5.9841022,35.602489 5.6740594,35.436768 5.364017,35.271046 5.0628424,35.090527 4.7705359,34.89521 4.47823,34.699902 4.1961994,34.490734 3.9244449,34.267712 3.6526899,34.044685 3.3925195,33.80888 3.1439335,33.560295 2.8953476,33.31171 2.659543,33.05154 2.4365196,32.779785 2.2134962,32.50803 2.004328,32.225998 1.8090153,31.933689 1.6137025,31.641386 1.4331855,31.340212 1.2674642,31.030169 1.101743,30.720127 0.95161545,30.402708 0.81708163,30.077913 0.68254787,29.75312 0.56425565,29.422516 0.46220502,29.0861 0.36015436,28.749683 0.27483666,28.409077 0.20625193,28.064278 0.13766721,27.719481 0.08614571,27.37215 0.05168743,27.022291 0.01722914,26.672432 0,26.321724 0,25.970169 V 10.734061 C 0,10.382507 0.01722914,10.0318 0.05168743,9.6819401 0.08614571,9.3320789 0.13766721,8.9847488 0.20625193,8.6399488 0.27483666,8.2951508 0.36015436,7.9545431 0.46220502,7.6181269 0.56425565,7.2817111 0.68254787,6.9511065 0.81708163,6.6263132 0.95161545,6.3015199 1.101743,5.9841022 1.2674643,5.6740594 1.4331856,5.364017 1.6137026,5.0628424 1.8090154,4.7705359 2.0043283,4.47823 2.2134962,4.1961994 2.4365196,3.9244449 2.659543,3.6526899 2.8953476,3.3925195 3.1439335,3.1439335 3.3925195,2.8953476 3.6526899,2.659543 3.9244447,2.4365196 4.1961994,2.2134962 4.47823,2.004328 4.7705359,1.8090153 5.0628424,1.6137025 5.364017,1.4331855 5.6740599,1.2674642 5.9841022,1.101743 6.3015199,0.95161545 6.6263132,0.81708163 6.9511065,0.68254787 7.2817116,0.56425565 7.6181278,0.46220502 7.9545436,0.36015436 8.2951508,0.27483666 8.6399488,0.20625193 8.9847488,0.13766721 9.3320789,0.08614571 9.6819401,0.05168743 10.0318,0.01722914 10.382507,0 10.734061,0 Z"
                   style="fill:none;stroke:#1a1a1a;stroke-width:1;stroke-linecap:butt;stroke-linejoin:miter;stroke-miterlimit:10;stroke-dasharray:none;stroke-opacity:1"
                   id="path224" />
              </g>
            </g>
          </g>
        </g>
      </g>
    </g>
    <g
       id="g226">
      <g
         id="g228"
         clip-path="url(#clipPath232)">
        <g
           id="g234"
           transform="matrix(7.1906147,0,0,7.1944776,1802.0916,1446.1176)">
          <text
             xml:space="preserve"
             transform="translate(32.382893,12.516905)"
             style="font-variant:normal;font-weight:normal;font-size:10px;font-family:'Noto Sans';-inkscape-font-specification:NotoSans-Regular;writing-mode:lr-tb;fill:#1a1a1a;fill-opacity:1;fill-rule:nonzero;stroke:none"
             id="text238"><tspan
               x="0 4.7899933 10.399994 16.009995 25.359985 28.039978 30.719971 34.649963 40.289963"
               y="0"
               id="tspan236">saam::ref</tspan></text>
        </g>
        <g
           id="g240"
           transform="matrix(7.1906157,0,0,7.1944776,1802.0913,1446.1176)">
          <text
             xml:space="preserve"
             transform="translate(7.0979409,26.516905)"
             style="font-variant:normal;font-weight:normal;font-size:10px;font-family:'Noto Sans';-inkscape-font-specification:NotoSans-Regular;writing-mode:lr-tb;fill:#1a1a1a;fill-opacity:1;fill-rule:nonzero;stroke:none"
             id="text244"><tspan
               x="0 5.7200012 11.440002 17.619995 23.669983 29.849976 32.449966 38.299957 46.159943 52.339935 54.919937 61.09993 67.249924 69.849915 73.779907 79.419907 82.859909 88.57991"
               y="0"
               id="tspan242">&lt;&lt;non owning ref&gt;&gt;</tspan></text>
        </g>
        <g
           id="g246"
           transform="matrix(7.1906223,0,0,7.1944776,370.33151,835.62976)">
          <path
             d="M 197.27846,101.37303 H 8 c -5.3333335,0 -8,-2.666663 -8,-7.999998 V 10.181818"
             style="fill:none;stroke:#333333;stroke-width:1;stroke-linecap:butt;stroke-linejoin:miter;stroke-miterlimit:10;stroke-dasharray:none;stroke-opacity:1"
             id="path248" />
        </g>
        <g
           id="g250"
           transform="matrix(0,-7.1944776,7.1906223,0,370.33151,835.62976)">
          <path
             d="M -12.727273,-7.5454545 0,0 -12.727273,7.5454545 Z"
             style="fill:#333333;fill-opacity:1;fill-rule:nonzero;stroke:none"
             id="path252" />
        </g>
      </g>
    </g>
    <g
       id="g254">
      <g
         id="g256"
         clip-path="url(#clipPath260)">
        <g
           id="g262"
           clip-path="url(#clipPath266)">
          <g
             id="g268"
             clip-path="url(#clipPath272)">
            <g
               id="g274"
               clip-path="url(#clipPath278)">
              <g
                 id="g280"
                 transform="matrix(7.1906223,0,0,7.1944776,681.55365,263.68246)">
                <path
                   d="m 10.734061,0 h 52.01246 c 0.351555,0 0.702263,0.01722914 1.05212,0.05168743 0.349858,0.03445828 0.697193,0.08597978 1.041989,0.1545645 0.344802,0.0685847 0.685409,0.15390243 1.02182,0.25595309 0.33641,0.10205063 0.667015,0.22034285 0.991806,0.35487661 0.324798,0.13453382 0.642219,0.28466137 0.952263,0.45038267 0.310035,0.1657213 0.611206,0.3462383 0.903511,0.5415511 0.292312,0.1953129 0.574348,0.4044808 0.846107,0.6275042 0.271751,0.2230234 0.531921,0.458828 0.78051,0.7074139 0.248589,0.248586 0.48439,0.5087564 0.707413,0.7805112 0.22303,0.2717547 0.432197,0.5537853 0.627502,0.8460912 0.195313,0.2923065 0.375832,0.5934811 0.54155,0.903524 0.165726,0.3100423 0.315857,0.62746 0.450386,0.9522533 0.134537,0.3247933 0.25283,0.6553984 0.354881,0.9918146 0.102059,0.3364158 0.187371,0.677023 0.255951,1.021821 0.0686,0.3448 0.120117,0.6921301 0.154572,1.0419913 0.03445,0.3498599 0.05168,0.7005669 0.05168,1.0521209 v 29.455854 c 0,0.351551 -0.01723,0.702259 -0.05168,1.05212 -0.03446,0.349865 -0.08598,0.697193 -0.154579,1.041988 -0.06858,0.344799 -0.153901,0.685406 -0.255951,1.02182 -0.102051,0.336419 -0.220345,0.667023 -0.354882,0.991814 -0.134529,0.324799 -0.284652,0.64222 -0.450378,0.952259 -0.165718,0.310043 -0.346237,0.611218 -0.541557,0.903523 -0.195305,0.292308 -0.404473,0.574337 -0.627495,0.846092 -0.223023,0.271755 -0.458824,0.531925 -0.707413,0.78051 -0.248589,0.248584 -0.508759,0.48439 -0.78051,0.707416 -0.271759,0.223019 -0.553795,0.432186 -0.846107,0.627495 -0.292305,0.195316 -0.593476,0.375832 -0.903511,0.541554 -0.310044,0.165721 -0.627465,0.315849 -0.952263,0.450382 -0.324791,0.134533 -0.655396,0.25283 -0.991806,0.354885 -0.336411,0.102047 -0.677018,0.187366 -1.02182,0.255951 -0.344796,0.06858 -0.692131,0.120109 -1.041989,0.154568 -0.349857,0.03446 -0.700565,0.05168 -1.05212,0.05168 h -52.01246 c -0.351554,0 -0.702261,-0.01723 -1.0521209,-0.05169 C 9.3320789,50.83783 8.9847488,50.786308 8.6399488,50.71772 8.2951508,50.649136 7.9545431,50.56382 7.6181269,50.461769 7.2817111,50.359715 6.9511065,50.241421 6.6263132,50.106888 6.3015199,49.972355 5.9841022,49.822227 5.6740594,49.656506 5.364017,49.490788 5.0628424,49.310272 4.7705359,49.114956 4.47823,48.919647 4.1961994,48.71048 3.9244449,48.487457 3.6526899,48.264431 3.3925195,48.028625 3.1439335,47.780041 2.8953476,47.531456 2.659543,47.271286 2.4365196,46.999531 2.2134962,46.727776 2.004328,46.445747 1.8090153,46.153439 1.6137025,45.861134 1.4331855,45.559959 1.2674642,45.249916 1.101743,44.939877 0.95161545,44.622456 0.81708163,44.297657 0.68254787,43.972866 0.56425565,43.642262 0.46220502,43.305847 0.36015436,42.969433 0.27483666,42.628822 0.20625193,42.284023 0.13766721,41.939228 0.08614571,41.5919 0.05168743,41.242035 0.01722914,40.892174 0,40.541466 0,40.189915 V 10.734061 C 0,10.382507 0.01722914,10.0318 0.05168743,9.6819401 0.08614571,9.3320789 0.13766721,8.9847488 0.20625193,8.6399488 0.27483666,8.2951508 0.36015436,7.9545431 0.46220502,7.6181269 0.56425565,7.2817111 0.68254787,6.9511065 0.81708163,6.6263132 0.95161545,6.3015199 1.101743,5.9841022 1.2674643,5.6740594 1.4331856,5.364017 1.6137026,5.0628424 1.8090154,4.7705359 2.0043283,4.47823 2.2134962,4.1961994 2.4365196,3.9244449 2.659543,3.6526899 2.8953476,3.3925195 3.1439335,3.1439335 3.3925195,2.8953476 3.6526899,2.659543 3.9244447,2.4365196 4.1961994,2.2134962 4.47823,2.004328 4.7705359,1.8090153 5.0628424,1.6137025 5.364017,1.4331855 5.6740599,1.2674642 5.9841022,1.101743 6.3015199,0.95161545 6.6263132,0.81708163 6.9511065,0.68254787 7.2817116,0.56425565 7.6181278,0.46220502 7.9545436,0.36015436 8.2951508,0.27483666 8.6399488,0.20625193 8.9847488,0.13766721 9.3320789,0.08614571 9.6819401,0.05168743 10.0318,0.01722914 10.382507,0 10.734061,0 Z"
                   style="fill:none;stroke:#1a1a1a;stroke-width:1;stroke-linecap:butt;stroke-linejoin:miter;stroke-miterlimit:10;stroke-dasharray:none;stroke-opacity:1"
                   id="path282" />
              </g>
            </g>
          </g>
        </g>
      </g>
    </g>
    <g
       id="g284">
      <g
         id="g286"
         clip-path="url(#clipPath290)">
        <g
           id="g292"
           transform="matrix(7.1906204,0,0,7.1944776,699.86243,282.00104)">
          <text
             xml:space="preserve"
             transform="translate(6.2891383,11.91579)"
             style="font-variant:normal;font-weight:normal;font-size:10px;font-family:'Noto Sans';-inkscape-font-specification:NotoSans-Regular;writing-mode:lr-tb;fill:#1a1a1a;fill-opacity:1;fill-rule:nonzero;stroke:none"
             id="text296"><tspan
               x="0 6.1799927 12.22998 18.409973 21.009964 26.859955 34.71994 40.899933 43.479935 49.659927"
               y="0"
               id="tspan294">non owning</tspan></text>
        </g>
        <g
           id="g298"
           transform="matrix(7.1906176,0,0,7.1944776,699.86249,282.00104)">
          <text
             xml:space="preserve"
             transform="translate(11.774117,25.915791)"
             style="font-variant:normal;font-weight:normal;font-size:10px;font-family:'Noto Sans';-inkscape-font-specification:NotoSans-Regular;writing-mode:lr-tb;fill:#1a1a1a;fill-opacity:1;fill-rule:nonzero;stroke:none"
             id="text302"><tspan
               x="0 3.9299927 9.5699921 13.009995 18.649994 22.579987 28.219986 34.399979 39.199982"
               y="0"
               id="tspan300">reference</tspan></text>
        </g>
        <g
           id="g304"
           transform="matrix(7.1906171,0,0,7.1944776,699.86243,282.00104)">
          <text
             xml:space="preserve"
             transform="translate(2.5341334,39.915791)"
             style="font-variant:normal;font-weight:normal;font-size:10px;font-family:'Noto Sans';-inkscape-font-specification:NotoSans-Regular;writing-mode:lr-tb;fill:#1a1a1a;fill-opacity:1;fill-rule:nonzero;stroke:none"
             id="text308"><tspan
               x="0 9.3499908 14.959991 21.139984 26.749985 32.899979 38.539978 47.889969 53.529968 59.709961"
               y="0"
               id="tspan306">management</tspan></text>
        </g>
        <g
           id="g310"
           transform="matrix(7.1906223,0,0,7.1944776,1209.9161,446.88553)">
          <path
             d="M 56.083061,84.371262 V 8 c 0,-5.3333335 -2.666668,-8 -8,-8 H 10.181818"
             style="fill:none;stroke:#333333;stroke-width:1;stroke-linecap:butt;stroke-linejoin:miter;stroke-miterlimit:10;stroke-dasharray:none;stroke-opacity:1"
             id="path312" />
        </g>
        <g
           id="g314"
           transform="matrix(-7.1906223,0,0,-7.1944776,1209.9161,446.88553)">
          <path
             d="M -12.727273,-7.5454545 0,0 -12.727273,7.5454545 Z"
             style="fill:#333333;fill-opacity:1;fill-rule:nonzero;stroke:none"
             id="path316" />
        </g>
        <g
           id="g318"
           transform="matrix(7.1906223,0,0,7.1944776,1209.9161,446.88553)">
          <path
             d="M 136.59984,137.05429 V 8 c 0,-5.3333335 -2.66667,-8 -8,-8 H 10.181818"
             style="fill:none;stroke:#333333;stroke-width:1;stroke-linecap:butt;stroke-linejoin:miter;stroke-miterlimit:10;stroke-dasharray:none;stroke-opacity:1"
             id="path320" />
        </g>
        <g
           id="g322"
           transform="matrix(-7.1906223,0,0,-7.1944776,1209.9161,446.88553)">
          <path
             d="M -12.727273,-7.5454545 0,0 -12.727273,7.5454545 Z"
             style="fill:#333333;fill-opacity:1;fill-rule:nonzero;stroke:none"
             id="path324" />
        </g>
      </g>
    </g>
  </g>
</svg>
